<svg width="330" height="102" viewBox="0 0 330 102" fill="none" xmlns="http://www.w3.org/2000/svg">
<rect width="330" height="102" rx="10.0076" fill="#F2F2F2"/>
<path d="M32.065 25.481H33.357V30.079H35.732V19.135H33.357V23.448H32.065V19.458H29.728V29.528H32.065V25.481ZM29.234 20.921H26.213V19.325H23.743V20.921H20.722V22.859H29.234V20.921ZM23.458 26.469C23.458 25.652 24.085 25.215 25.016 25.215C25.947 25.215 26.555 25.652 26.555 26.469C26.555 27.286 25.947 27.742 25.016 27.742C24.085 27.742 23.458 27.286 23.458 26.469ZM28.778 26.469C28.778 24.664 27.22 23.429 25.016 23.429C22.793 23.429 21.235 24.664 21.235 26.469C21.235 28.274 22.793 29.528 25.016 29.528C27.22 29.528 28.778 28.274 28.778 26.469ZM29.804 34.772C27.467 34.772 26.289 34.373 26.289 33.461C26.289 32.549 27.467 32.15 29.804 32.15C32.141 32.15 33.319 32.549 33.319 33.461C33.319 34.373 32.141 34.772 29.804 34.772ZM29.804 30.269C26.042 30.269 23.781 31.428 23.781 33.461C23.781 35.494 26.042 36.634 29.804 36.634C33.566 36.634 35.827 35.494 35.827 33.461C35.827 31.428 33.566 30.269 29.804 30.269ZM54.1225 27.59H51.8235C52.2605 25.139 52.2605 23.353 52.2605 21.719V20.142H40.1195V22.156H49.8095C49.8095 23.657 49.7715 25.367 49.3345 27.59H38.3145V29.604H44.8505V36.634H47.3965V29.604H54.1225V27.59ZM75.9057 27.59H73.6067C74.0437 25.139 74.0437 23.353 74.0437 21.719V20.142H61.9027V22.156H71.5927C71.5927 23.657 71.5547 25.367 71.1177 27.59H60.0977V29.604H66.6337V36.634H69.1797V29.604H75.9057V27.59ZM82.6112 31.01C81.4332 31.01 80.5592 30.212 80.5592 28.882C80.5592 27.552 81.4332 26.735 82.6112 26.735C83.7892 26.735 84.6442 27.552 84.6442 28.863C84.6442 30.212 83.7892 31.01 82.6112 31.01ZM82.6112 24.702C80.0652 24.702 78.1652 26.431 78.1652 28.863C78.1652 31.333 80.0652 33.062 82.6112 33.062C85.1382 33.062 87.0192 31.333 87.0192 28.863C87.0192 26.431 85.1382 24.702 82.6112 24.702ZM83.8462 19.439H81.3382V21.719H77.4622V23.714H87.6462V21.719H83.8462V19.439ZM93.8022 25.975H91.2942V19.135H88.7862V36.634H91.2942V28.046H93.8022V25.975ZM96.0048 20.94V22.935H101.838C101.477 26.811 99.5388 29.547 95.0738 31.694L96.3848 33.67C102.598 30.668 104.403 26.298 104.403 20.94H96.0048ZM107.082 19.116V36.615H109.609V19.116H107.082Z" fill="#FF7171"/>
<g filter="url(#filter0_dd_761_1519)">
<rect x="264" y="28" width="46" height="46" rx="23" fill="#FF7171"/>
<path d="M278.271 51.0177C278.271 54.2001 279.922 56.8221 282.034 57.1724C280.947 55.2846 280.396 53.1355 280.442 50.9576C280.403 48.8351 280.924 46.7397 281.954 44.883C279.882 45.2833 278.271 47.8753 278.271 51.0177Z" fill="white"/>
<path d="M282.514 42.8113C279.072 42.8113 276.269 46.4942 276.269 51.0076C276.269 55.5211 279.072 59.2039 282.514 59.2039C285.957 59.2039 288.759 55.5311 288.759 51.0076C288.759 46.4841 285.957 42.8113 282.514 42.8113ZM278.271 51.0076C278.271 47.8752 279.882 45.2832 281.954 44.8729C280.925 46.7297 280.403 48.825 280.443 50.9475C280.397 53.1254 280.947 55.2745 282.034 57.1623C279.922 56.812 278.271 54.19 278.271 51.0176V51.0076Z" fill="black"/>
<path d="M291.521 42.7513C288.078 42.7513 285.276 46.424 285.276 50.9475C285.276 55.471 288.078 59.1438 291.521 59.1438C294.963 59.1438 297.766 55.471 297.766 50.9475C297.766 46.424 294.963 42.7513 291.521 42.7513ZM287.278 50.9475C287.278 47.8051 288.879 45.2131 290.96 44.8128C289.931 46.6696 289.41 48.7649 289.449 50.8875C289.403 53.0654 289.953 55.2144 291.04 57.1022C288.919 56.7419 287.278 54.1199 287.278 50.9475Z" fill="black"/>
<path d="M287.278 50.9476C287.278 54.12 288.919 56.742 291.04 57.1023C289.953 55.2145 289.403 53.0654 289.449 50.8875C289.41 48.765 289.931 46.6696 290.96 44.8129C288.879 45.2132 287.278 47.8052 287.278 50.9476Z" fill="white"/>
</g>
<path d="M23 54.85C23.5875 54.85 24 54.45 24 53.8C24 53.2 23.5375 52.8375 23 52.8375C22.95 52.8375 22.9125 52.8375 22.8625 52.85C22.8625 52.05 23.275 51.5125 24.0875 51.075L23.6625 50.2625C22.4125 50.9125 21.7875 51.875 21.7875 53.15C21.7875 54.225 22.2125 54.85 23 54.85ZM26.125 54.85C26.7 54.85 27.125 54.45 27.125 53.8C27.125 53.2 26.6625 52.8375 26.125 52.8375C26.075 52.8375 26.0375 52.8375 25.9875 52.85C25.9875 52.05 26.4 51.5125 27.2125 51.075L26.7875 50.2625C25.5375 50.9125 24.9125 51.875 24.9125 53.15C24.9125 54.225 25.3375 54.85 26.125 54.85ZM36.1274 53.7375H36.9774V56.7625H38.5399V49.5625H36.9774V52.4H36.1274V49.775H34.5899V56.4H36.1274V53.7375ZM34.2649 50.7375H32.2774V49.6875H30.6524V50.7375H28.6649V52.0125H34.2649V50.7375ZM30.4649 54.3875C30.4649 53.85 30.8774 53.5625 31.4899 53.5625C32.1024 53.5625 32.5024 53.85 32.5024 54.3875C32.5024 54.925 32.1024 55.225 31.4899 55.225C30.8774 55.225 30.4649 54.925 30.4649 54.3875ZM33.9649 54.3875C33.9649 53.2 32.9399 52.3875 31.4899 52.3875C30.0274 52.3875 29.0024 53.2 29.0024 54.3875C29.0024 55.575 30.0274 56.4 31.4899 56.4C32.9399 56.4 33.9649 55.575 33.9649 54.3875ZM34.6399 59.85C33.1024 59.85 32.3274 59.5875 32.3274 58.9875C32.3274 58.3875 33.1024 58.125 34.6399 58.125C36.1774 58.125 36.9524 58.3875 36.9524 58.9875C36.9524 59.5875 36.1774 59.85 34.6399 59.85ZM34.6399 56.8875C32.1649 56.8875 30.6774 57.65 30.6774 58.9875C30.6774 60.325 32.1649 61.075 34.6399 61.075C37.1149 61.075 38.6024 60.325 38.6024 58.9875C38.6024 57.65 37.1149 56.8875 34.6399 56.8875ZM44.464 50.45H42.8015V52.125C42.8015 54.2625 41.9265 56.4625 39.989 57.375L40.9765 58.7125C42.2765 58.075 43.139 56.8625 43.639 55.4C44.114 56.775 44.9265 57.8875 46.1265 58.5L47.1265 57.2C45.2765 56.2875 44.464 54.2 44.464 52.125V50.45ZM50.914 53.9875H49.239V49.5625H47.589V61.075H49.239V55.3625H50.914V53.9875ZM55.07 50.325V51.6375H58.6825C58.52 52.9 57.3075 54.025 54.52 54.4875L55.1575 55.8C58.67 55.1375 60.52 53.4 60.52 50.325H55.07ZM57.72 59.0625H63.545V57.9125H57.72V57.2375H63.67V56.0375H56.0825V60.9375H63.9075V59.75H57.72V59.0625ZM63.62 51.9125V49.55H61.97V55.575H63.62V53.275H65.145V51.9125H63.62ZM73.944 49.55V61.1H75.594V49.55H73.944ZM69.4065 50.3625C67.669 50.3625 66.3815 51.9375 66.3815 54.4625C66.3815 57 67.669 58.5875 69.4065 58.5875C71.144 58.5875 72.4315 57 72.4315 54.4625C72.4315 51.9375 71.144 50.3625 69.4065 50.3625ZM69.4065 51.85C70.2565 51.85 70.844 52.7625 70.844 54.4625C70.844 56.175 70.2565 57.0875 69.4065 57.0875C68.5565 57.0875 67.969 56.175 67.969 54.4625C67.969 52.7625 68.5565 51.85 69.4065 51.85ZM80.9126 50.7375V52.075H84.6751C84.3751 54.625 82.9501 56.45 80.2751 57.825L81.2001 59.0875C85.0251 57.15 86.3376 54.1875 86.3376 50.7375H80.9126ZM91.0126 53.95H89.4001V49.55H87.7501V61.05H89.4001V55.3125H91.0126V53.95ZM96.3366 52.025H98.7116V50.6625H92.2616V52.025H94.6616V52.6625C94.6616 54.625 93.7241 56.7375 91.7991 57.6L92.7366 58.9125C94.0866 58.3 95.0116 57.0375 95.5241 55.5375C96.0366 56.925 96.9491 58.05 98.2866 58.625L99.1866 57.325C97.2616 56.525 96.3366 54.5375 96.3366 52.6625V52.025ZM99.7741 49.5625V61.075H101.424V49.5625H99.7741ZM107.893 52.8125C107.893 51.9625 108.518 51.4625 109.368 51.4625C110.218 51.4625 110.843 51.9625 110.843 52.8125C110.843 53.65 110.218 54.15 109.368 54.15C108.518 54.15 107.893 53.65 107.893 52.8125ZM112.43 52.8125C112.43 51.2375 111.118 50.1125 109.368 50.1125C107.618 50.1125 106.305 51.2375 106.305 52.8125C106.305 54.375 107.618 55.5 109.368 55.5C111.118 55.5 112.43 54.375 112.43 52.8125ZM108.83 56.3375H107.23V60.7875H107.868C108.993 60.7875 109.893 60.725 110.843 60.4L110.618 59.1C110.043 59.2875 109.443 59.3875 108.83 59.4375V56.3375ZM113.318 59.975C112.88 59.975 112.555 59.8125 112.555 59.4625C112.555 59.125 112.88 58.9625 113.318 58.9625C113.768 58.9625 114.08 59.125 114.08 59.4625C114.08 59.8125 113.768 59.975 113.318 59.975ZM113.318 57.85C112.005 57.85 111.093 58.475 111.093 59.4625C111.093 60.4625 112.005 61.0875 113.318 61.0875C114.63 61.0875 115.543 60.4625 115.543 59.4625C115.543 58.475 114.63 57.85 113.318 57.85ZM114.13 55.5625H112.53V56.375H110.43V57.5625H116.193V56.375H114.13V55.5625ZM115.268 51.9375V49.5625H113.618V55.225H115.268V53.3H116.793V51.9375H115.268ZM122.917 50.9375C124.592 50.9375 125.379 51.175 125.379 51.6875C125.379 52.225 124.592 52.45 122.917 52.45C121.254 52.45 120.467 52.225 120.467 51.6875C120.467 51.175 121.254 50.9375 122.917 50.9375ZM122.917 53.65C125.554 53.65 127.092 52.9625 127.092 51.6875C127.092 50.425 125.554 49.725 122.917 49.725C120.292 49.725 118.754 50.425 118.754 51.6875C118.754 52.9625 120.292 53.65 122.917 53.65ZM120.554 59.1H126.854V56.1375H118.904V57.35H125.229V57.9625H118.917V60.9875H127.154V59.75H120.554V59.1ZM117.717 54.2V55.4875H128.117V54.2H117.717ZM131.128 55.1375H133.866V50.675H129.516V52H132.278V53.8375H129.528V58.525H130.341C131.728 58.525 132.978 58.4875 134.453 58.25L134.328 56.9125C133.178 57.0875 132.178 57.15 131.128 57.175V55.1375ZM137.528 49.55V53.9H136.491V49.7625H134.953V60.525H136.491V55.225H137.528V61.0625H139.091V49.55H137.528ZM142.39 56.85H143.99C143.802 55.0875 145.977 54.4875 145.977 52.7125C145.977 51.1125 144.877 50.3375 143.377 50.3375C142.29 50.3375 141.402 50.85 140.752 51.5875L141.765 52.5125C142.165 52.1 142.602 51.8125 143.152 51.8125C143.802 51.8125 144.215 52.2125 144.215 52.8375C144.215 54.025 142.09 54.8375 142.39 56.85ZM143.19 60.175C143.852 60.175 144.34 59.65 144.34 58.975C144.34 58.2875 143.852 57.775 143.19 57.775C142.54 57.775 142.052 58.2875 142.052 58.975C142.052 59.65 142.54 60.175 143.19 60.175ZM147.559 54.7C148.809 54.0625 149.434 53.0875 149.434 51.8C149.434 50.7375 149.009 50.1125 148.221 50.1125C147.646 50.1125 147.221 50.525 147.221 51.1625C147.221 51.7625 147.684 52.125 148.221 52.125C148.271 52.125 148.309 52.125 148.359 52.1125C148.359 52.925 147.946 53.45 147.134 53.9L147.559 54.7ZM150.684 54.7C151.934 54.0625 152.559 53.0875 152.559 51.8C152.559 50.7375 152.134 50.1125 151.346 50.1125C150.771 50.1125 150.346 50.525 150.346 51.1625C150.346 51.7625 150.809 52.125 151.346 52.125C151.396 52.125 151.434 52.125 151.484 52.1125C151.484 52.925 151.071 53.45 150.259 53.9L150.684 54.7ZM28.3125 69.9H25.5125V68.6125H24.4875V69.9H21.7V70.725H28.3125V69.9ZM23.3 73.2875C23.3 72.55 23.975 72.0625 25 72.0625C26.025 72.0625 26.7125 72.55 26.7125 73.2875C26.7125 74.025 26.025 74.5125 25 74.5125C23.975 74.5125 23.3 74.025 23.3 73.2875ZM27.6875 73.2875C27.6875 72.0625 26.6 71.2875 25 71.2875C23.4 71.2875 22.325 72.0625 22.325 73.2875C22.325 74.5 23.4 75.275 25 75.275C26.6 75.275 27.6875 74.5 27.6875 73.2875ZM24.325 76.9125H29.35V78.95H24.325V76.9125ZM23.325 79.775H30.3625V76.1H23.325V79.775ZM32.025 71.7H30.3625V68.725H29.3375V75.4625H30.3625V72.55H32.025V71.7ZM33.424 70.05V70.8875H35.0365C34.9615 72.975 34.574 75.025 33.1865 76.8125L33.9865 77.2625C35.599 75.0875 35.9115 72.45 35.9115 70.05H33.424ZM39.674 73.1125H38.2365C38.3615 72.025 38.3865 70.975 38.3865 70.05H36.2865V70.8875H37.499C37.4615 73 37.199 75.525 35.674 77.525L36.474 77.9875C37.374 76.7625 37.849 75.35 38.1115 73.95H39.674V79.35H40.6365V69H39.674V73.1125ZM41.749 68.7125V79.9125H42.724V68.7125H41.749ZM54.106 69.7375H51.306V68.6H50.281V69.7375H47.4935V70.525H54.106V69.7375ZM49.0935 72.8625C49.0935 72.1875 49.756 71.7875 50.7935 71.7875C51.831 71.7875 52.506 72.1875 52.506 72.8625C52.506 73.5375 51.831 73.9375 50.7935 73.9375C49.756 73.9375 49.0935 73.5375 49.0935 72.8625ZM53.481 72.8625C53.481 71.725 52.4185 71.025 50.7935 71.025C49.181 71.025 48.1185 71.725 48.1185 72.8625C48.1185 74 49.181 74.7 50.7935 74.7C52.4185 74.7 53.481 74 53.481 72.8625ZM50.0685 77.9375H56.156V75.45H49.031V76.2125H55.1435V77.1875H49.0685V79.8H56.5685V79.0125H50.0685V77.9375ZM56.156 71.375V68.675H55.131V74.875H56.156V72.225H57.8185V71.375H56.156ZM68.8004 72.6H70.2254V75.8125H71.2129V68.7125H70.2254V71.7625H68.8004V68.9375H67.8254V75.4125H68.8004V72.6ZM67.3879 70.05H65.0504V68.8H64.0379V70.05H61.6879V70.8625H67.3879V70.05ZM63.0754 73.3625C63.0754 72.675 63.6629 72.2125 64.5504 72.2125C65.4254 72.2125 66.0254 72.675 66.0254 73.3625C66.0254 74.0625 65.4254 74.525 64.5504 74.525C63.6629 74.525 63.0754 74.0625 63.0754 73.3625ZM66.9379 73.3625C66.9379 72.2125 65.9629 71.45 64.5504 71.45C63.1379 71.45 62.1504 72.2125 62.1504 73.3625C62.1504 74.5375 63.1379 75.2875 64.5504 75.2875C65.9629 75.2875 66.9379 74.5375 66.9379 73.3625ZM67.5254 79.125C65.8129 79.125 64.7879 78.7 64.7879 77.9625C64.7879 77.2125 65.8129 76.7875 67.5254 76.7875C69.2254 76.7875 70.2504 77.2125 70.2504 77.9625C70.2504 78.7 69.2254 79.125 67.5254 79.125ZM67.5254 76C65.1879 76 63.7754 76.7 63.7754 77.9625C63.7754 79.2125 65.1879 79.9125 67.5254 79.9125C69.8629 79.9125 71.2754 79.2125 71.2754 77.9625C71.2754 76.7 69.8629 76 67.5254 76ZM77.0119 69.6875H75.9994V71.7C75.9994 73.7375 74.7244 75.8875 73.1119 76.7125L73.7244 77.5375C74.9869 76.8625 76.0244 75.4625 76.5119 73.825C77.0244 75.3625 78.0369 76.675 79.2244 77.3125L79.8619 76.5C78.2869 75.7125 77.0119 73.675 77.0119 71.7V69.6875ZM83.7244 73.2625H81.8744V68.725H80.8494V79.925H81.8744V74.1125H83.7244V73.2625ZM93.9484 68.725H92.9234V77H93.9484V68.725ZM91.6484 74.6375C89.9859 74.125 88.8109 72.8 88.8109 71.325V71.0375H91.3484V70.2125H88.8234V68.775H87.7984V70.2125H85.2484V71.0375H87.7984V71.325C87.7984 72.8875 86.6609 74.3 84.9859 74.85L85.4859 75.65C86.8109 75.2 87.8359 74.225 88.3234 72.9875C88.8359 74.1375 89.8609 75.025 91.1609 75.4375L91.6484 74.6375ZM87.7609 78.8375V76.2375H86.7359V79.675H94.2859V78.8375H87.7609ZM106.397 74.2625H104.735C105.047 72.65 105.047 71.4625 105.047 70.4125V69.4375H97.5225V70.2625H104.047V70.4125C104.047 71.4625 104.047 72.65 103.697 74.2625H96.26V75.1H100.785V79.9375H101.822V75.1H106.397V74.2625ZM115.596 70.675H109.046V73.075H116.809V72.3375H110.059V71.375H116.609V69.0375H109.021V69.7625H115.596V70.675ZM109.996 78H116.646V75.6125H108.959V76.35H115.634V77.2875H108.984V79.775H116.996V79.0375H109.996V78ZM107.746 73.925V74.7H117.909V73.925H107.746ZM132.191 74.2625H130.528C130.841 72.65 130.841 71.4625 130.841 70.4125V69.4375H123.316V70.2625H129.841V70.4125C129.841 71.4625 129.841 72.65 129.491 74.2625H122.053V75.1H126.578V79.9375H127.616V75.1H132.191V74.2625ZM136.315 76.475C135.44 76.475 134.827 75.7625 134.827 74.7625C134.827 73.7875 135.44 73.075 136.315 73.075C137.177 73.075 137.802 73.7875 137.802 74.7625C137.802 75.7625 137.177 76.475 136.315 76.475ZM136.315 72.2125C134.927 72.2125 133.915 73.2625 133.915 74.7625C133.915 76.2875 134.927 77.325 136.315 77.325C137.702 77.325 138.715 76.2875 138.715 74.7625C138.715 73.2625 137.702 72.2125 136.315 72.2125ZM136.815 69.0375H135.802V70.625H133.527V71.4625H139.09V70.625H136.815V69.0375ZM142.052 68.7V73.4375H140.615V68.9625H139.652V79.375H140.615V74.275H142.052V79.9125H143.04V68.7H142.052ZM147.251 72.35H152.976V74.4125H147.251V72.35ZM150.626 77.65V75.2375H153.976V69.5125H152.976V71.5125H147.251V69.5125H146.239V75.2375H149.589V77.65H145.039V78.4875H155.201V77.65H150.626ZM159.863 69.775H158.875V71.9125C158.875 73.8375 157.95 75.85 156.413 76.75L157.05 77.525C158.163 76.8375 158.975 75.5625 159.375 74.075C159.775 75.4375 160.525 76.625 161.588 77.275L162.175 76.475C160.7 75.575 159.863 73.675 159.863 71.875V69.775ZM162.813 72.7375H160.963V73.5875H162.813V79.375H163.775V68.9625H162.813V72.7375ZM165.088 68.7125V79.925H166.063V68.7125H165.088ZM171.55 75C172.012 75.1125 172.55 75.175 173.1 75.175C173.662 75.175 174.2 75.1125 174.675 75V77.6375H171.55V75ZM173.1 70.225C174.9 70.225 176.2 71.05 176.2 72.3C176.2 73.55 174.9 74.375 173.1 74.375C171.3 74.375 170.012 73.55 170.012 72.3C170.012 71.05 171.3 70.225 173.1 70.225ZM175.7 77.6375V74.6C176.625 74.1125 177.175 73.3125 177.175 72.3C177.175 70.55 175.487 69.425 173.1 69.425C170.725 69.425 169.025 70.55 169.025 72.3C169.025 73.3125 169.587 74.125 170.525 74.6125V77.6375H168.025V78.4875H178.212V77.6375H175.7ZM180.499 76.2375H181.286L181.436 70.9375L181.474 69.6375H180.311L180.349 70.9375L180.499 76.2375ZM180.886 79.1625C181.349 79.1625 181.711 78.8125 181.711 78.3C181.711 77.7875 181.349 77.4125 180.886 77.4125C180.436 77.4125 180.061 77.7875 180.061 78.3C180.061 78.8125 180.436 79.1625 180.886 79.1625Z" fill="#4D4D4D"/>
<defs>
<filter id="filter0_dd_761_1519" x="253.992" y="18.9931" width="66.0153" height="66.0153" filterUnits="userSpaceOnUse" color-interpolation-filters="sRGB">
<feFlood flood-opacity="0" result="BackgroundImageFix"/>
<feColorMatrix in="SourceAlpha" type="matrix" values="0 0 0 0 0 0 0 0 0 0 0 0 0 0 0 0 0 0 127 0" result="hardAlpha"/>
<feOffset dy="1.00076"/>
<feGaussianBlur stdDeviation="5.00382"/>
<feColorMatrix type="matrix" values="0 0 0 0 0 0 0 0 0 0 0 0 0 0 0 0 0 0 0.12 0"/>
<feBlend mode="normal" in2="BackgroundImageFix" result="effect1_dropShadow_761_1519"/>
<feColorMatrix in="SourceAlpha" type="matrix" values="0 0 0 0 0 0 0 0 0 0 0 0 0 0 0 0 0 0 127 0" result="hardAlpha"/>
<feOffset dy="4.00306"/>
<feGaussianBlur stdDeviation="2.50191"/>
<feColorMatrix type="matrix" values="0 0 0 0 0 0 0 0 0 0 0 0 0 0 0 0 0 0 0.14 0"/>
<feBlend mode="normal" in2="effect1_dropShadow_761_1519" result="effect2_dropShadow_761_1519"/>
<feBlend mode="normal" in="SourceGraphic" in2="effect2_dropShadow_761_1519" result="shape"/>
</filter>
</defs>
</svg>
