<svg width="34" height="34" viewBox="0 0 34 34" fill="none" xmlns="http://www.w3.org/2000/svg">
<path d="M30.5207 7.84003L30.4907 7.70003L30.4707 7.56003L30.4307 7.42003L30.3907 7.28003L30.3407 7.15003L30.2907 7.02003L30.2307 6.89003L30.1707 6.76003L30.1007 6.63003L30.0207 6.51003L29.9407 6.40003L29.8607 6.28003L29.7707 6.17003L29.6807 6.07003L29.5807 5.97003L29.4807 5.87003L29.3707 5.78003L29.2607 5.69003L29.1507 5.61003L29.0307 5.54003L28.9107 5.46003L28.7907 5.40003L28.6607 5.34003L28.5307 5.29003L28.4007 5.24003L28.2607 5.20003L28.1207 5.17003L27.9907 5.15003L8.91065 2.19003L8.77065 2.17003L8.63065 2.16003H8.49065H8.36065L8.22065 2.17003L8.09065 2.19003L7.96065 2.22003L7.84065 2.25003L7.71065 2.29003L7.59065 2.33003L7.47065 2.38003L7.36065 2.44003L7.25065 2.51003L7.14065 2.57003L7.03065 2.65003L6.93065 2.73003L6.84065 2.81003L6.74065 2.91003L6.66065 3.00003L6.57065 3.10003L6.50065 3.21003L6.42065 3.32003L6.35065 3.43003L6.29065 3.55003L6.24065 3.67003L6.18065 3.79003L6.14065 3.92003L6.10065 4.06003L6.07065 4.19003L6.04065 4.33003L6.02065 4.48003L6.01065 4.62003L4.79065 24.63V24.77V24.92L4.80065 25.06L4.81065 25.21L4.84065 25.35L4.86065 25.49L4.90065 25.63L4.94065 25.77L4.99065 25.9L5.04065 26.04L5.10065 26.17L5.16065 26.29L5.23065 26.42L5.31065 26.54L5.39065 26.66L5.47065 26.77L5.56065 26.88L5.65065 26.98L5.75065 27.08L5.85065 27.18L5.96065 27.27L6.07065 27.36L6.18065 27.44L6.30065 27.52L6.42065 27.59L6.54065 27.65L6.67065 27.71L6.80065 27.76L6.93065 27.81L7.07065 27.85L7.20065 27.88L7.34065 27.91L26.4207 30.86L26.5607 30.88L26.7007 30.89L26.8407 30.9L26.9707 30.89L27.1007 30.88L27.2407 30.86L27.3707 30.83L27.4907 30.8L27.6207 30.76L27.7407 30.72L27.8607 30.67L27.9707 30.61L28.0807 30.55L28.1907 30.48L28.3007 30.4L28.4007 30.32L28.4907 30.24L28.5807 30.15L28.6707 30.05L28.7607 29.95L28.8307 29.85L28.9107 29.74L28.9707 29.62L29.0407 29.51L29.0907 29.38L29.1407 29.26L29.1907 29.13L29.2307 28.99L29.2607 28.86L29.2907 28.72L29.3107 28.57L29.3207 28.43L30.5407 8.43003V8.28003V8.13003L30.5307 7.99003L30.5207 7.84003Z" fill="#383838"/>
<path d="M26.5906 28.0099L7.52063 25.0499L8.74063 5.04989L27.8106 7.99989L26.5906 28.0099Z" fill="white"/>
<path d="M4.79061 24.7701V24.9201L4.80061 25.0601L4.81061 25.2101L4.84061 25.3501L4.86061 25.4901L4.90061 25.6301L4.94061 25.7701L4.99061 25.9001L5.04061 26.0401L5.10061 26.1701L5.16061 26.2901L5.23061 26.4201L5.31061 26.5401L5.39061 26.6601L5.47061 26.7701L5.56061 26.8801L5.65061 26.9801L5.75061 27.0801L5.85061 27.1801L5.96061 27.2701L6.07061 27.3601L6.18061 27.4401L6.30061 27.5201L6.42061 27.5901L6.54061 27.6501L6.67061 27.7101L6.80061 27.7601L6.93061 27.8101L7.07061 27.8501L7.20061 27.8801L7.34061 27.9101L26.4206 30.8601L26.5606 30.8801L24.8906 31.7701L24.7506 31.7501L5.68061 28.7901L5.54061 28.7601L5.40061 28.7301L5.27061 28.6901L5.13061 28.6501L5.00061 28.5901L4.88061 28.5401L4.75061 28.4701L4.63061 28.4001L4.52061 28.3201L4.40061 28.2401L4.29061 28.1601L4.19061 28.0601L4.08061 27.9701L3.99061 27.8701L3.89061 27.7601L3.80061 27.6501L3.72061 27.5401L3.64061 27.4201L3.57061 27.3001L3.50061 27.1801L3.43061 27.0501L3.37061 26.9201L3.32061 26.7901L3.27061 26.6501L3.23061 26.5201L3.20061 26.3801L3.17061 26.2401L3.15061 26.0901L3.13061 25.9501L3.12061 25.8001V25.6601L4.79061 24.7701Z" fill="#383838" stroke="black" stroke-width="0.0100076" stroke-miterlimit="10"/>
<path d="M27.8104 7.99989L26.1404 8.88989L7.07043 5.92989L8.74044 5.04989L27.8104 7.99989Z" fill="#383838" stroke="black" stroke-width="0.0100076" stroke-miterlimit="10"/>
<path d="M27.8109 8.00009L26.5909 28.0101L24.9309 28.8901L26.1409 8.89009L27.8109 8.00009Z" fill="#383838" stroke="black" stroke-width="0.0100076" stroke-miterlimit="10"/>
<path d="M25.4108 24.9401L20.5908 16.7801L18.9308 17.6601L19.2708 18.2401L16.1708 21.6701L13.4808 17.5201L11.8108 18.4001L12.1708 18.9601L9.05078 22.4001L23.0008 24.5601L23.7408 25.8201L25.4108 24.9401Z" fill="#DD5757"/>
<path d="M23.7407 25.8199L18.9307 17.6599L14.5007 22.5599L11.8107 18.3999L7.39075 23.2899L23.7407 25.8199Z" fill="#FF7171"/>
<path d="M28.8506 8.7299L28.8306 8.5899L28.8006 8.4399L28.7706 8.2999L28.7206 8.1699L28.6706 8.0299L28.6206 7.8999L28.5606 7.7699L28.5006 7.6399L28.4306 7.5199L28.3606 7.3999L28.2806 7.2799L28.2006 7.1699L28.1106 7.0599L28.0206 6.9499L27.9206 6.8499L27.8206 6.7499L27.7106 6.6599L27.6006 6.5699L27.4906 6.4899L27.3706 6.4099L27.2506 6.3399L27.1206 6.2799L26.9906 6.2199L26.8606 6.1699L26.7306 6.1199L26.6006 6.0799L26.4606 6.0499L26.3206 6.0299L7.2406 3.0699L7.10061 3.0499L6.96061 3.0399H6.82061H6.68061L6.56061 3.0599L6.43061 3.0799L6.30061 3.0999L6.17061 3.1299L6.05061 3.1699L5.93061 3.2199L5.81061 3.2699L5.69061 3.3299L5.58061 3.3899L5.47061 3.4599L5.37061 3.5299L5.27061 3.6099L5.17061 3.6999L5.08061 3.7899L4.99061 3.8899L4.91061 3.9899L4.83061 4.0899L4.76061 4.1999L4.69061 4.3099L4.63061 4.4299L4.57061 4.5499L4.52061 4.6799L4.47061 4.8099L4.43061 4.9399L4.40061 5.0799L4.38061 5.2199L4.36061 5.3599L4.34061 5.5099L3.12061 25.5099V25.6599V25.8099L3.13061 25.9599L3.15061 26.0999L3.17061 26.2399L3.20061 26.3799L3.23061 26.5199L3.27061 26.6599L3.32061 26.7999L3.37061 26.9299L3.43061 27.0599L3.49061 27.1899L3.56061 27.3099L3.63061 27.4299L3.72061 27.5399L3.80061 27.6499L3.89061 27.7599L3.98061 27.8699L4.08061 27.9699L4.18061 28.0699L4.29061 28.1599L4.40061 28.2499L4.51061 28.3299L4.63061 28.4099L4.75061 28.4799L4.87061 28.5399L5.00061 28.5999L5.13061 28.6499L5.26061 28.6999L5.39061 28.7399L5.53061 28.7699L5.67061 28.7999L24.7506 31.7599L24.8906 31.7799L25.0306 31.7899H25.1706H25.3106L25.4406 31.7799L25.5706 31.7599L25.7006 31.7299L25.8306 31.6999L25.9506 31.6599L26.0706 31.6099L26.1906 31.5599L26.3106 31.4999L26.4206 31.4399L26.5306 31.3699L26.6306 31.2999L26.7306 31.2199L26.8306 31.1299L26.9206 31.0399L27.0106 30.9399L27.0906 30.8399L27.1706 30.7399L27.2406 30.6299L27.3106 30.5199L27.3706 30.3999L27.4306 30.2799L27.4806 30.1499L27.5306 30.0199L27.5706 29.8899L27.6006 29.7499L27.6306 29.6099L27.6506 29.4699L27.6606 29.3199L28.8806 9.3199L28.8906 9.1699V9.0199L28.8806 8.8699L28.8506 8.7299ZM24.9306 28.8899L5.85061 25.9299L7.07061 5.9299L26.1506 8.8899L24.9306 28.8899Z" fill="#383838"/>
<path d="M5.37085 3.52997L7.36085 2.43997L7.07085 4.08997L5.37085 3.52997Z" fill="#383838"/>
<path d="M27.6204 29.5999L27.9704 30.6099L25.9504 31.6499L27.6204 29.5999Z" fill="#383838"/>
</svg>
