<svg width="42" height="33" viewBox="0 0 42 33" fill="none" xmlns="http://www.w3.org/2000/svg">
<path d="M28.8012 5.69268L28.7903 5.54986V5.40704L28.7793 5.25323L28.7573 5.11041L28.7463 4.9676L28.7243 4.82478L28.7024 4.69295L28.6694 4.55013L28.6364 4.41829L28.6035 4.28646L28.5705 4.15463L28.5266 4.02279L28.4936 3.89096L28.4387 3.77011L28.3948 3.63828L28.3398 3.51744L28.2959 3.39659L28.2409 3.27574L28.175 3.16588L28.1201 3.04503L28.0542 2.93517L27.9883 2.82531L27.9223 2.71545L27.8454 2.60559L27.7685 2.50672L27.6916 2.40784L27.6147 2.30897L27.5378 2.21009L27.4499 2.11122L27.373 2.02333L27.2852 1.93544L27.1973 1.84755L27.0984 1.77065L27.0105 1.68276L26.9116 1.60586L26.8128 1.52896L26.7139 1.46304L26.615 1.38614L26.5161 1.32022L26.4063 1.26529L26.3074 1.19937L26.1975 1.14444L26.0877 1.08951L25.9778 1.03458L25.857 0.990639L25.7471 0.935708L25.6263 0.891764L25.5164 0.858806L25.3956 0.825848L25.2747 0.792889L25.1539 0.759931L25.044 0.737959L24.9451 0.672042L24.8463 0.606126L24.7364 0.551196L24.6265 0.496265L24.5167 0.441335L24.4068 0.386405L24.2969 0.331474L24.1871 0.28753L24.0662 0.243586L23.9454 0.210628L23.8355 0.166683L23.7147 0.144711L23.5938 0.111753L23.462 0.0787947L23.3412 0.0568224L23.2203 0.0458363L23.0885 0.0238642L22.9676 0.0128782L22.8358 0.00189209H22.704H22.5721H22.4403L22.3085 0.0128782L22.1766 0.0238642L22.0448 0.0348503L21.913 0.0458363L21.7811 0.0678086L21.7482 0.0787947L21.6493 0.100767L21.5614 0.111753L21.5065 0.122739L21.3856 0.155697L21.2538 0.188655L21.122 0.2326L21.0561 0.254572L20.9901 0.276544L20.8693 0.320488L20.7375 0.364433L20.7155 0.375419L20.6166 0.419363L20.4958 0.474293L20.4298 0.507251L20.3639 0.529224L20.2431 0.59514L20.1332 0.661056L20.0124 0.726973L19.8915 0.792889L19.8256 0.836834L19.7817 0.869792L19.6608 0.946694L19.551 1.0236L19.4411 1.1005L19.3862 1.14444L19.3312 1.18839L19.2324 1.27628L19.1225 1.36416L19.0236 1.45205L18.9138 1.55093L18.8149 1.6498L18.716 1.73769L18.6281 1.84755L18.5293 1.94643L18.4414 2.05629L18.3535 2.15516L18.2656 2.26502L18.1777 2.37488L18.0898 2.49573L18.0129 2.60559L17.936 2.72644L17.8591 2.84728L17.7822 2.96813L17.7163 3.08898L17.6394 3.20983L17.5735 3.34166L17.5076 3.4625L17.4526 3.59434L17.3867 3.72617L17.3318 3.858L17.2768 3.98984L17.2329 4.12167L17.178 4.26449L17.134 4.39632L17.0901 4.53914L17.0571 4.67097L17.0132 4.81379L16.9802 4.95661L16.9582 5.09943L16.9253 5.24225L16.9033 5.38507L16.8813 5.52789L16.8594 5.65972V5.6707L16.8484 5.82451L16.8374 5.96733L16.8264 6.11015L16.8154 6.26395V6.40677V6.56058L16.8264 6.7034V6.8572L16.8374 7.00002L16.8594 7.14284L16.8704 7.28566L16.8923 7.42848L16.9143 7.56031L16.9473 7.70313L16.9802 7.83496L17.0132 7.97778L17.0461 8.10961L17.0901 8.23046L17.123 8.36229L17.178 8.49413L17.2219 8.61497L17.2659 8.73582L17.3208 8.85667L17.3757 8.97751L17.4416 9.09836L17.4966 9.20822L17.5625 9.31808L17.6284 9.42794L17.6943 9.5378L17.7712 9.64766L17.8481 9.74654L17.925 9.8564L18.0019 9.94429L18.0788 10.0432L18.1667 10.142L18.2436 10.2299L18.3315 10.3178L18.4194 10.4057L18.5183 10.4936L18.6062 10.5705L18.705 10.6474L18.8039 10.7243L18.9028 10.8012L19.0017 10.8671L19.1005 10.933L19.2104 10.999L19.3093 11.0539L19.4191 11.1198L19.529 11.1747L19.6389 11.2187L19.7597 11.2736L19.8696 11.3175L19.9904 11.3615L20.1003 11.3944L20.2211 11.4384L20.342 11.4714L20.4628 11.4933L20.5727 11.5153L20.6715 11.5812L20.7704 11.6471L20.8803 11.7021L20.9901 11.768L21.1 11.8229L21.2099 11.8668L21.3197 11.9218L21.4296 11.9657L21.5504 12.0097L21.6713 12.0536L21.7811 12.0866L21.902 12.1195L22.0228 12.1415L22.1547 12.1745L22.2755 12.1964L22.3964 12.2184L22.5282 12.2294L22.649 12.2404L22.7809 12.2514H22.9127H23.0445H23.1654H23.3082L23.44 12.2404L23.5719 12.2294L23.7037 12.2074L23.8355 12.1854L23.9674 12.1635L24.0992 12.1305L24.231 12.0976L24.3629 12.0646L24.4947 12.0207L24.6265 11.9877L24.7474 11.9328L24.8792 11.8888L25.0001 11.8339L25.1209 11.779L25.2527 11.724L25.3736 11.6581L25.4834 11.5922L25.6043 11.5263L25.7251 11.4604L25.835 11.3835L25.9558 11.3066L26.0657 11.2297L26.1756 11.1528L26.2854 11.0649L26.3843 10.977L26.4942 10.8891L26.593 10.8012L26.7029 10.7133L26.8018 10.6144L26.9006 10.5156L26.9885 10.4167L27.0874 10.3068L27.1753 10.208L27.2632 10.0981L27.3511 9.98823L27.439 9.87837L27.5269 9.75752L27.6038 9.64766L27.6807 9.52682L27.7576 9.40597L27.8345 9.29611L27.9004 9.16428L27.9773 9.04343L28.0432 8.92258L28.1091 8.79075L28.164 8.65892L28.219 8.52708L28.2849 8.39525L28.3398 8.26342L28.3838 8.13159L28.4387 7.99975L28.4826 7.85693L28.5266 7.7251L28.5595 7.58228L28.6035 7.43946L28.6364 7.29664L28.6584 7.16481L28.6914 7.02199L28.7133 6.86819L28.7353 6.72537L28.7573 6.58255L28.7683 6.43973L28.7793 6.28593L28.7903 6.14311L28.8012 6.00029V5.84648V5.69268Z" fill="#383838"/>
<path d="M11.9269 23.1387L13.4869 23.7869L34.3165 20.7657L34.2616 17.8874L34.2506 17.7116L34.2396 17.5358L34.2066 17.371L34.1737 17.2062L34.1187 17.0414L34.0638 16.8876L33.9979 16.7338L33.932 16.591L33.8551 16.4372L33.7562 16.3054L33.6683 16.1626L33.5585 16.0307L33.4486 15.8989L33.3277 15.778L33.2069 15.6572L33.0751 15.5363L32.9322 15.4265L32.7894 15.3166L32.6466 15.2068L32.4818 15.1079L32.328 15.009L32.1632 14.9101L31.9874 14.8223L31.8117 14.7344L31.6359 14.6465L31.4491 14.5586L31.2624 14.4817L31.0756 14.4048L30.8779 14.3389L30.6801 14.2729L30.5043 14.218L30.4274 14.1741L30.2516 14.0862L30.0649 13.9983L29.8891 13.9104L29.7023 13.8335L29.5046 13.7566L29.3068 13.6907L29.1091 13.6248L28.9113 13.5589L28.7136 13.4929L28.5049 13.438L28.2961 13.3831L28.0874 13.3281L27.8677 13.2732L27.6589 13.2293L27.4392 13.1853L27.2195 13.1414L27.0108 13.1084L26.791 13.0755L26.5713 13.0425L26.3516 13.0095L26.1319 12.9876L25.9121 12.9656L25.7034 12.9436L25.4837 12.9217L25.264 12.9107L25.0552 12.8887H24.8465L24.6378 12.8777L24.429 12.8667H24.2203H24.0116H23.8138L23.6161 12.8777H23.4183L23.2315 12.8887L23.0448 12.8997L22.858 12.9217L22.6822 12.9326L22.5065 12.9546L22.3307 12.9766L22.1659 12.9986L22.0011 13.0205L21.8363 13.0535L21.6605 13.0865L21.4738 13.1194L21.298 13.1524L21.1112 13.1963L20.9135 13.2403L20.7267 13.2952L20.529 13.3501L20.3312 13.405L20.1225 13.46L19.9247 13.5259L19.716 13.5918L19.5073 13.6577L19.2985 13.7346L19.0788 13.8005L18.8701 13.8774L18.6504 13.9653L18.4416 14.0422L18.2219 14.1301L18.0022 14.218L17.7934 14.3169L17.5737 14.4048L17.365 14.5037L17.1453 14.6025L16.9365 14.7124L16.7168 14.8113L16.5081 14.9211L16.2993 15.031L16.0906 15.1518L15.8929 15.2617L15.6841 15.3825L15.4864 15.5034L15.2886 15.6242L15.0909 15.7451L14.9041 15.8769L14.7173 16.0087L14.5306 16.1406L14.3548 16.2724L14.179 16.4152L14.0032 16.5471L13.8385 16.6899L13.6737 16.8327L13.5199 16.9755L13.3661 17.1293L13.2232 17.2721L13.0914 17.426L12.9596 17.5798L12.8277 17.7336L12.7069 17.8874L12.597 18.0522L12.4872 18.206L12.3883 18.3708L12.3004 18.5355L12.2235 18.7003L12.1466 18.8651L12.0807 19.0409L12.0148 19.2057L11.9708 19.3815L11.9269 19.5463L11.9049 19.722L11.8829 19.8978L11.8719 20.0846L11.861 20.2604L11.9269 23.1387Z" fill="#383838"/>
<path d="M24.6268 5.57199V5.64889V5.72579L24.6158 5.79171L24.6049 5.86861L24.5939 5.93453V6.01143L24.5719 6.08834L24.5609 6.15425L24.5499 6.22017L24.528 6.29707L24.506 6.36299L24.495 6.43989L24.473 6.50581L24.4511 6.57172L24.4181 6.63764L24.3961 6.70356L24.3742 6.76947L24.3412 6.83539L24.3082 6.9013L24.2863 6.96722L24.2533 7.03314L24.2203 7.09905L24.1764 7.15398L24.1434 7.2199L24.1105 7.27483L24.0665 7.34075L24.0336 7.39568L23.9896 7.45061L23.9457 7.51652L23.9018 7.57146L23.8578 7.62639L23.8139 7.68132L23.7699 7.72526L23.726 7.78019L23.671 7.83512L23.6271 7.87907L23.5722 7.934L23.5282 7.97794L23.4733 8.02188L23.4184 8.06583L23.3744 8.10977L23.3195 8.15372L23.2646 8.19766L23.1986 8.23062L23.1437 8.27456L23.0888 8.30752L23.0339 8.34048L22.9679 8.37344L22.913 8.4064L22.8471 8.43935L22.7922 8.47231L22.7262 8.49429L22.6713 8.51626L22.6054 8.54922L22.5395 8.57119L22.4736 8.59316L22.4076 8.60415L22.3527 8.62612L22.2868 8.6371L22.2209 8.65908L22.155 8.67006L22.0781 8.68105L22.0121 8.69203H21.9462L21.8803 8.70302H21.8144H21.7485H21.6826H21.6276L21.5617 8.69203H21.4958L21.4299 8.68105L21.375 8.67006L21.309 8.65908L21.2431 8.64809L21.1882 8.6371L21.1223 8.61513L21.0673 8.60415L21.0124 8.58217L20.9465 8.5602L20.8916 8.53823L20.8366 8.51626L20.7817 8.4833L20.7268 8.46133L20.6718 8.42837L20.6169 8.39541L20.573 8.36245L20.518 8.32949L20.4631 8.29654L20.4192 8.26358L20.3642 8.21963L20.3203 8.18668L20.2763 8.14273L20.2324 8.09879L20.1775 8.05484L20.1335 8.0109L20.1006 7.96695L20.0566 7.92301L20.0127 7.86808L19.9797 7.82413L19.9358 7.7692L19.9028 7.72526L19.8699 7.67033L19.8259 7.6154L19.793 7.56047L19.76 7.50554L19.738 7.45061L19.7051 7.38469L19.6721 7.32976L19.6501 7.26384L19.6282 7.20891L19.5952 7.143L19.5732 7.07708L19.5513 7.02215L19.5403 6.95624L19.5183 6.89032L19.5073 6.81342L19.4853 6.7475L19.4744 6.68158L19.4634 6.61567L19.4524 6.53876L19.4414 6.47285L19.4304 6.39595V6.33003L19.4194 6.25313V6.17622V6.11031V6.03341L19.4304 5.9565V5.89059L19.4414 5.81368V5.73678L19.4524 5.67086L19.4634 5.59396L19.4744 5.52805L19.4853 5.45114L19.5073 5.38523L19.5183 5.30832L19.5403 5.24241L19.5623 5.17649L19.5842 5.09959L19.6062 5.03367L19.6282 4.96776L19.6501 4.90184L19.6831 4.83592L19.7161 4.77001L19.738 4.70409L19.771 4.63817L19.8039 4.57226L19.8369 4.50634L19.8699 4.45141L19.9028 4.38549L19.9468 4.33056L19.9797 4.26465L20.0237 4.20972L20.0676 4.15479L20.1006 4.08887L20.1445 4.03394L20.1885 3.97901L20.2324 3.93507L20.2763 3.88013L20.3313 3.8252L20.3752 3.77027L20.4302 3.72633L20.4741 3.68239L20.529 3.62745L20.573 3.58351L20.6279 3.53957L20.6828 3.49562L20.7378 3.45168L20.7927 3.41872L20.8476 3.37478L20.9026 3.34182L20.9575 3.29787L21.0234 3.26491L21.0783 3.23196L21.1442 3.199L21.1992 3.16604L21.2651 3.14407L21.32 3.11111L21.3859 3.08914L21.4519 3.05618L21.5068 3.03421L21.5727 3.01223L21.6386 3.00125L21.7045 2.97928L21.7705 2.96829L21.8364 2.94632L21.9023 2.93533L21.9682 2.92435L22.0341 2.91336H22.1L22.166 2.90237H22.2319H22.2978H22.3637H22.4296L22.4955 2.91336H22.5615L22.6164 2.92435L22.6823 2.93533L22.7482 2.94632L22.8031 2.9573L22.8691 2.96829L22.924 2.99026L22.9899 3.01223L23.0448 3.02322L23.0998 3.04519L23.1547 3.06717L23.2096 3.10012L23.2755 3.1221L23.3305 3.14407L23.3744 3.17703L23.4293 3.20998L23.4843 3.24294L23.5392 3.2759L23.5832 3.30886L23.6381 3.34182L23.682 3.38576L23.737 3.41872L23.7809 3.46266L23.8248 3.50661L23.8688 3.55055L23.9127 3.5945L23.9567 3.63844L24.0006 3.68239L24.0336 3.73732L24.0775 3.78126L24.1105 3.83619L24.1544 3.88013L24.1874 3.93507L24.2203 3.99L24.2533 4.04493L24.2863 4.09986L24.3192 4.16577L24.3522 4.2207L24.3742 4.27563L24.4071 4.34155L24.4291 4.39648L24.4511 4.4624L24.473 4.52831L24.495 4.59423L24.517 4.66015L24.5389 4.72606L24.5499 4.79198L24.5609 4.8579L24.5829 4.92381L24.5939 4.98973L24.6049 5.06663L24.6158 5.13255V5.20945L24.6268 5.27537V5.35227V5.42917V5.49509V5.57199Z" fill="white"/>
<path d="M14.4646 19.8756L14.4866 19.8317L14.5085 19.7768L14.5305 19.7218L14.5635 19.6669L14.5964 19.601L14.6404 19.5461L14.6843 19.4801L14.7393 19.4142L14.7942 19.3593L14.8601 19.2934L14.915 19.2165L14.9919 19.1506L15.0578 19.0846L15.1348 19.0187L15.2226 18.9418L15.3105 18.8649L15.3984 18.799L15.4863 18.7221L15.5852 18.6452L15.6841 18.5793L15.7939 18.5024L15.8928 18.4255L16.0136 18.3486L16.1235 18.2717L16.2443 18.1948L16.3652 18.1179L16.486 18.041L16.6069 17.9641L16.7387 17.8872L16.8706 17.8103L17.0024 17.7334L17.1342 17.6564L17.277 17.5905L17.4199 17.5136L17.5627 17.4367L17.7055 17.3598L17.8483 17.2939L18.0021 17.217L18.1559 17.1511L18.3097 17.0742L18.4635 17.0083L18.6173 16.9424L18.7711 16.8764L18.9249 16.8105L19.0897 16.7446L19.2545 16.6787L19.4083 16.6238L19.5731 16.5578L19.7379 16.5029L19.9027 16.448L20.0675 16.3931L20.2323 16.3381L20.3971 16.2832L20.5619 16.2392L20.7267 16.1953L20.9024 16.1404L21.0672 16.1074L21.232 16.0635L21.3968 16.0195L21.5616 15.9866L21.7264 15.9536L21.8912 15.9207L22.056 15.8987L22.2208 15.8657L22.3856 15.8437L22.5613 15.8328L22.7261 15.8108L22.8909 15.7998L23.0557 15.7778H23.2205L23.3963 15.7668L23.5611 15.7559H23.7259H23.9016H24.0664H24.2312L24.396 15.7668H24.5608L24.7366 15.7778L24.9014 15.7888L25.0662 15.7998L25.231 15.8218L25.3848 15.8328L25.5495 15.8547L25.7143 15.8767L25.8681 15.8877L26.0329 15.9207L26.1867 15.9426L26.3405 15.9646L26.4944 15.9976L26.6482 16.0195L26.791 16.0525L26.9448 16.0854L27.0876 16.1184L27.2304 16.1514L27.3732 16.1843L27.5161 16.2173L27.6479 16.2612L27.7797 16.2942L27.9116 16.3381L28.0434 16.3711L28.1642 16.415L28.2851 16.459L28.4059 16.4919L28.5268 16.5359L28.6366 16.5798L28.7465 16.6238L28.8564 16.6677L28.9552 16.7226L29.0541 16.7666L29.153 16.8105L29.2409 16.8545L29.3288 16.8984L29.4057 16.9533L29.4935 16.9973L29.5595 17.0412L29.6364 17.0962L29.7023 17.1401L29.7572 17.184L29.8231 17.239L29.8671 17.2829L29.922 17.3379L29.955 17.3818L29.9989 17.4257L30.0319 17.4697L30.0538 17.5246L30.0758 17.5686L30.0978 17.6125L14.4646 19.8756Z" fill="white"/>
<path d="M20.0232 24.1161L18.1336 24.1601L18.2874 24.3029L18.3313 24.3469L18.3643 24.3908L18.3972 24.4347L18.4192 24.4897L18.4412 24.5336L18.4521 24.5776L2.65417 26.8297L4.15927 27.6427L19.9572 25.3905L20.0232 24.1161Z" fill="#DD5757"/>
<path d="M14.0027 8.12043L13.9039 8.04353L13.805 7.96663L13.7061 7.90071L13.6072 7.83479L13.4974 7.76888L13.3985 7.71395L13.2886 7.65902L13.1788 7.60409L13.0689 7.54916L12.9591 7.50521L12.8382 7.46127L12.7283 7.41732L12.6075 7.37338L12.4866 7.34042L12.3658 7.30746L12.245 7.28549L12.1241 7.25253L12.0033 7.23056L11.8714 7.20859L11.7506 7.1976L11.6187 7.18661L11.4869 7.17563H11.3551H11.2233H11.0914L10.9596 7.18661H10.8278L10.6959 7.20859L10.5531 7.21957L10.4213 7.24155L10.2894 7.26352L10.1466 7.29648L10.0148 7.32943L9.88295 7.36239L9.75112 7.40634L9.63027 7.43929L9.49844 7.49422L9.36661 7.53817L9.24576 7.5931L9.11392 7.64803L8.99308 7.70296L8.87223 7.75789L8.75138 7.82381L8.63054 7.88972L8.50969 7.95564L8.38884 8.03254L8.27898 8.10945L8.15814 8.18635L8.04828 8.26325L7.93842 8.35114L7.82855 8.43903L7.71869 8.52692L7.60883 8.6148L7.50996 8.70269L7.41108 8.80157L7.30122 8.90044L7.20235 8.99932L7.11446 9.09819L7.01559 9.20805L6.9277 9.30693L6.82882 9.41679L6.74093 9.52665L6.65304 9.63651L6.57614 9.75736L6.48825 9.86722L6.41135 9.98806L6.33445 10.1089L6.25755 10.2298L6.19163 10.3506L6.11473 10.4714L6.04881 10.6033L5.98289 10.7241L5.92796 10.856L5.86205 10.9878L5.80712 11.1196L5.75219 11.2515L5.70824 11.3833L5.65331 11.5151L5.60937 11.6579L5.56542 11.7898L5.53247 11.9326L5.48852 12.0754L5.45556 12.2072L5.4226 12.3501L5.40063 12.4929L5.36767 12.6357L5.3457 12.7785L5.33472 12.9323L5.31274 13.0751L5.30176 13.218V13.3608L5.29077 13.5146V13.6574V13.8002L5.30176 13.954V14.0969L5.31274 14.2397L5.33472 14.3715L5.3457 14.5143L5.36767 14.6571L5.40063 14.789L5.4226 14.9208L5.45556 15.0526L5.48852 15.1845L5.52148 15.3163L5.56542 15.4372L5.60937 15.569L5.65331 15.6898L5.70824 15.8107L5.75219 15.9315L5.80712 16.0524L5.86205 16.1622L5.92796 16.2831L5.98289 16.3929L6.04881 16.5028L6.11473 16.6017L6.19163 16.7115L6.25755 16.8104L6.33445 16.9093L6.41135 17.0082L6.48825 17.107L6.57614 17.1949L6.65304 17.2828L6.74093 17.3707L6.82882 17.4586L6.9277 17.5465L7.01559 17.6234L7.11446 17.7003L7.20235 17.7772L7.30122 17.8431L7.4001 17.909L7.50996 17.9749L7.60883 18.0409L7.71869 18.1068L7.82855 18.1617L7.93842 18.2166L8.04828 18.2606L8.15814 18.3155L8.268 18.3594L8.38884 18.4034L8.50969 18.4364L8.53166 18.4473L8.52068 18.4364L8.4218 18.3594L8.33391 18.2716L8.24603 18.1837L8.15814 18.0958L8.08123 18.0079L7.99335 17.92L7.91644 17.8211L7.83954 17.7223L7.76264 17.6234L7.69672 17.5245L7.61982 17.4146L7.5539 17.3158L7.48799 17.2059L7.43306 17.0961L7.36714 16.9752L7.31221 16.8653L7.25728 16.7445L7.20235 16.6236L7.1584 16.5028L7.11446 16.382L7.07052 16.2611L7.02657 16.1293L6.99361 15.9974L6.96065 15.8656L6.9277 15.7338L6.90572 15.6019L6.87277 15.4701L6.85079 15.3273L6.83981 15.1955L6.81784 15.0526L6.80685 14.9098L6.79586 14.767V14.6242V14.4704V14.3276V14.1738L6.80685 14.0309L6.81784 13.8881L6.83981 13.7453L6.85079 13.6025L6.87277 13.4487L6.90572 13.3059L6.9277 13.174L6.96065 13.0312L6.99361 12.8884L7.02657 12.7456L7.07052 12.6137L7.11446 12.4709L7.1584 12.3391L7.21333 12.1963L7.25728 12.0644L7.31221 11.9326L7.36714 11.8008L7.43306 11.6689L7.48799 11.5371L7.5539 11.4163L7.61982 11.2844L7.69672 11.1636L7.76264 11.0427L7.83954 10.9219L7.91644 10.801L7.99335 10.6802L8.08123 10.5703L8.15814 10.4495L8.24603 10.3396L8.33391 10.2298L8.4218 10.1199L8.52068 10.021L8.61955 9.91116L8.70744 9.81229L8.80632 9.71341L8.90519 9.61454L9.01505 9.51566L9.11392 9.42777L9.22379 9.33988L9.33365 9.252L9.44351 9.16411L9.55337 9.07622L9.66323 8.99932L9.77309 8.92241L9.89394 8.84551L10.0148 8.7796L10.1246 8.70269L10.2455 8.63678L10.3663 8.57086L10.4982 8.51593L10.619 8.461L10.7399 8.40607L10.8717 8.35114L11.0035 8.30719L11.1244 8.26325L11.2562 8.21931L11.388 8.17536L11.5199 8.1424L11.6517 8.10945L11.7945 8.08747L11.9264 8.05451L12.0582 8.03254L12.201 8.02156L12.3328 8.01057L12.4647 7.99958L12.5965 7.9886H12.7283H12.8602H12.992L13.1238 7.99958L13.2557 8.01057L13.3765 8.03254L13.5084 8.04353L13.6292 8.0655L13.75 8.09846L13.8709 8.12043L13.9917 8.15339L14.0906 8.18635L14.0027 8.12043Z" fill="#DD5757"/>
<path d="M1.53353 27.8405L1.54452 27.6647L1.56649 27.4889L1.61044 27.3132L1.65438 27.1484L1.69833 26.9726L1.76424 26.8078L1.83016 26.643L1.91805 26.4782L1.99495 26.3134L2.09382 26.1486L2.1927 25.9948L2.30256 25.83L2.42341 25.6762L2.54425 25.5224L2.67609 25.3686L2.8189 25.2148L2.96172 25.072L3.10454 24.9182L3.25835 24.7754L3.42314 24.6325L3.58793 24.4897L3.75272 24.3469L3.9285 24.2151L4.11526 24.0723L4.29104 23.9404L4.48879 23.8086L4.67555 23.6877L4.8733 23.5559L5.07105 23.4351L5.2688 23.3142L5.47753 23.1934L5.68627 23.0725L5.89501 22.9627L6.10374 22.8528L6.31248 22.7429L6.5322 22.6331L6.75192 22.5232L6.96065 22.4243L7.18038 22.3255L7.4001 22.2266L7.61982 22.1387L7.83954 22.0398L8.05926 21.9519L8.27898 21.875L8.4987 21.7872L8.71843 21.7103L8.92716 21.6334L9.14688 21.5564L9.35562 21.4905L9.57534 21.4246L9.78407 21.3587L9.99281 21.2928L10.1906 21.2379L10.3993 21.1829L10.597 21.128L10.7948 21.084L10.9925 21.0291L11.1793 20.9962L11.3661 20.9522L11.5418 20.9193L11.7176 20.8863L11.8934 20.8533L12.0582 20.8314L12.223 20.8094L12.3988 20.7874L12.5745 20.7655L12.7613 20.7545L12.9481 20.7435L13.1348 20.7325L13.3216 20.7215L13.5193 20.7105H13.7171L13.9258 20.6995H14.1346L14.3323 20.7105H14.552L14.7608 20.7215L14.9695 20.7325L15.1892 20.7435L15.4089 20.7545L15.6177 20.7764L15.8374 20.7984L16.0571 20.8204L16.2768 20.8424L16.4966 20.8753L16.7163 20.9083L16.936 20.9412L17.1557 20.9742L17.3755 21.0181L17.5842 21.0621L17.8039 21.106L18.0126 21.15L18.2324 21.2049L18.4411 21.2598L18.6498 21.3148L18.8476 21.3807L19.0453 21.4466L19.2541 21.5125L19.4408 21.5784L19.6386 21.6553L19.6715 21.6663H19.6606L19.5068 21.5564L19.3529 21.4576L19.1991 21.3587L19.0234 21.2598L18.8586 21.1719L18.6828 21.084L18.507 20.9962L18.3203 20.9193L18.1335 20.8424L17.9357 20.7655L17.749 20.6995L17.5512 20.6336L17.3425 20.5677L17.1447 20.5018L16.936 20.4469L16.7273 20.3919L16.5185 20.337L16.2988 20.293L16.0901 20.2381L15.8704 20.2052L15.6506 20.1612L15.4309 20.1283L15.2112 20.0843L14.9915 20.0623L14.7718 20.0294L14.552 20.0074L14.3323 19.9854L14.1236 19.9635L13.9039 19.9415L13.6841 19.9305L13.4644 19.9195L13.2557 19.9085L13.0469 19.8976L12.8382 19.8866H12.6295H12.4207H12.223L12.0142 19.8976L11.8165 19.9085H11.6297L11.443 19.9195L11.2562 19.9415L11.0694 19.9525L10.8937 19.9745L10.7179 19.9964L10.5531 20.0184L10.3883 20.0404L10.2125 20.0733L10.0368 20.1063L9.86098 20.1392L9.67421 20.1722L9.48745 20.2161L9.2897 20.2601L9.09195 20.315L8.8942 20.37L8.69645 20.4249L8.48772 20.4798L8.27898 20.5457L8.07025 20.6007L7.86151 20.6776L7.64179 20.7435L7.42207 20.8204L7.21333 20.8973L6.99361 20.9742L6.77389 21.0621L6.55417 21.139L6.33445 21.2269L6.11473 21.3257L5.89501 21.4136L5.67528 21.5125L5.45556 21.6114L5.24683 21.7103L5.02711 21.8201L4.80738 21.919L4.59865 22.0288L4.38991 22.1497L4.18118 22.2596L3.97244 22.3804L3.76371 22.5013L3.56596 22.6221L3.36821 22.7429L3.17046 22.8748L2.9837 22.9956L2.79693 23.1275L2.61017 23.2593L2.42341 23.4021L2.25862 23.5339L2.08284 23.6768L1.91805 23.8196L1.75326 23.9624L1.59945 24.1052L1.45663 24.248L1.31381 24.4018L1.17099 24.5556L1.03916 24.7095L0.918314 24.8633L0.797467 25.0171L0.698593 25.1709L0.588732 25.3357L0.500843 25.5004L0.412955 25.6652L0.336052 25.83L0.25915 25.9948L0.193233 26.1596L0.149289 26.3354L0.105345 26.5002L0.0723864 26.676L0.0394282 26.8517L0.0284421 27.0275L0.0174561 27.2033V30.0487L1.52255 30.8617V28.0163L1.53353 27.8405Z" fill="#DD5757"/>
<path d="M22.5829 24.8412L22.5719 24.6654L22.5499 24.5006L22.517 24.3358L22.473 24.182L22.4181 24.0282L22.3522 23.8744L22.2863 23.7316L22.2094 23.5888L22.1215 23.446L22.0226 23.3141L21.9237 23.1823L21.8139 23.0614L21.693 22.9406L21.5722 22.8197L21.4403 22.6989L21.3085 22.589L21.1657 22.4792L21.0119 22.3693L20.8581 22.2704L20.6933 22.1716L20.5285 22.0727L20.3527 21.9848L20.1769 21.8969L20.0012 21.809L19.8144 21.7321L19.6606 21.6662L19.6276 21.6552L19.4409 21.5783L19.2431 21.5124L19.0454 21.4465L18.8476 21.3806L18.6389 21.3147L18.4301 21.2597L18.2214 21.2048L18.0127 21.1499L17.8039 21.1059L17.5842 21.062L17.3645 21.018L17.1448 20.9741L16.9251 20.9411L16.7053 20.9082L16.4856 20.8752L16.2659 20.8423L16.0462 20.8203L15.8264 20.7983L15.6067 20.7763L15.387 20.7544L15.1673 20.7434L14.9476 20.7324L14.7388 20.7214L14.5301 20.7104H14.3214H14.1126H13.9039H13.7061H13.5084L13.3106 20.7214L13.1129 20.7324L12.9261 20.7434L12.7394 20.7544L12.5636 20.7653L12.3878 20.7873L12.212 20.8093L12.0472 20.8313L11.8825 20.8532L11.7067 20.8862L11.5309 20.9192L11.3551 20.9521L11.1684 20.9961L10.9816 21.04L10.7838 21.0839L10.5861 21.1279L10.3883 21.1828L10.1906 21.2377L9.98186 21.2927L9.77312 21.3586L9.56439 21.4245L9.35565 21.4904L9.14692 21.5563L8.9272 21.6332L8.70747 21.7102L8.48775 21.7871L8.26803 21.8749L8.04831 21.9628L7.82859 22.0507L7.60887 22.1386L7.38915 22.2375L7.16943 22.3364L6.9497 22.4352L6.72998 22.5341L6.51026 22.644L6.29054 22.7538L6.0818 22.8637L5.87307 22.9735L5.66433 23.0834L5.4556 23.2043L5.24686 23.3251L5.04911 23.446L4.85136 23.5668L4.65361 23.6986L4.46685 23.8305L4.29107 23.9403L4.10431 24.0722L3.92853 24.215L3.75276 24.3578L3.58797 24.4896L3.42317 24.6324L3.25838 24.7753L3.10458 24.9181L2.95077 25.0609L2.80795 25.2147L2.67612 25.3685L2.54429 25.5223L2.42344 25.6761L2.30259 25.8299L2.19273 25.9837L2.09386 26.1485L1.99498 26.3133L1.9071 26.4781L1.83019 26.6429L1.76428 26.8077L1.69836 26.9725L1.64343 27.1373L1.59949 27.313L1.56653 27.4888L1.54456 27.6646L1.53357 27.8404V28.0162V30.8616L22.6049 27.8624V25.017L22.5829 24.8412ZM4.15924 27.6426L4.18121 27.5877L4.20319 27.5328L4.23614 27.4778L4.2691 27.4229L4.30206 27.368L4.346 27.313L4.38995 27.2471L4.44488 27.1812L4.49981 27.1153L4.56573 27.0494L4.63164 26.9835L4.69756 26.9175L4.77446 26.8516L4.85136 26.7857L4.93925 26.7198L5.02714 26.6539L5.11503 26.577L5.2139 26.5001L5.31278 26.4232L5.41165 26.3463L5.52151 26.2694L5.63137 26.1925L5.74124 26.1156L5.86208 26.0387L5.98293 25.9618L6.10378 25.8849L6.22462 25.808L6.35646 25.7311L6.48829 25.6542L6.62012 25.5772L6.75195 25.5003L6.89477 25.4234L7.03759 25.3465L7.18041 25.2696L7.32323 25.1927L7.46605 25.1158L7.61985 25.0389L7.77366 24.973L7.92746 24.9071L8.08127 24.8412L8.23507 24.7753L8.38888 24.7093L8.55367 24.6434L8.71846 24.5775L8.88325 24.5116L9.04804 24.4457L9.21283 24.3798L9.37762 24.3248L9.54242 24.2699L9.70721 24.215L9.872 24.16L10.0368 24.1051L10.2016 24.0502L10.3664 24.0062L10.5312 23.9623L10.696 23.9184L10.8607 23.8744L11.0255 23.8305L11.1903 23.7975L11.3551 23.7645L11.5199 23.7316L11.7286 23.7206L11.8934 23.6876L12.0582 23.6657L12.223 23.6437L12.3878 23.6217L12.5526 23.5998L12.7174 23.5888L12.8822 23.5778L13.047 23.5668L13.2118 23.5558L13.3766 23.5448H13.5413H13.7061H13.8709H14.0357H14.2005L14.3653 23.5558L14.5301 23.5668L14.6949 23.5778L14.8597 23.5888L15.0245 23.5998L15.1893 23.6107L15.354 23.6327L15.5188 23.6547L15.6836 23.6767L15.8374 23.6986L15.9912 23.7206L16.145 23.7426L16.2989 23.7645L16.4527 23.7975L16.6065 23.8305L16.7493 23.8634L16.8921 23.8964L17.0349 23.9293L17.1777 23.9623L17.3206 23.9953L17.4524 24.0282L17.5842 24.0612L17.7161 24.0941L17.9138 24.16L18.0347 24.204L18.1555 24.2479L18.2763 24.2919L18.3972 24.3358L18.5071 24.3798L18.6169 24.4237L18.7268 24.4677L18.8256 24.5116L18.9245 24.5555L19.0234 24.5995L19.1113 24.6434L19.1992 24.6874L19.2871 24.7313L19.364 24.7753L19.4409 24.8192L19.5068 24.8632L19.5727 24.9071L19.6386 24.951L19.6935 24.995L19.7485 25.0389L19.7924 25.0829L19.8364 25.1268L19.8693 25.1708L19.9023 25.2587L19.9243 25.3026L19.9462 25.3465L19.9572 25.3905L4.15924 27.6426Z" fill="#FF7171"/>
<path d="M14.695 13.273V13.2071L14.684 13.1302V13.0643L14.673 12.9874L14.662 12.9215L14.651 12.8555L14.64 12.7896L14.629 12.7127L14.6071 12.6468L14.5961 12.5919L14.5741 12.526L14.5521 12.46L14.5302 12.3941L14.5082 12.3392L14.4862 12.2733L14.4643 12.2184L14.4313 12.1524L14.4093 12.0975L14.3764 12.0426L14.3434 11.9876L14.3104 11.9327L14.2775 11.8778L14.2445 11.8229L14.2116 11.7789L14.1676 11.724L14.1347 11.68L14.0907 11.6251L14.0468 11.5812L14.0028 11.5372L13.9699 11.4933L13.9259 11.4493L13.871 11.4054L13.8271 11.3724L13.7831 11.3285L13.7282 11.2955L13.6842 11.2626L13.6293 11.2186L13.5854 11.1857L13.5304 11.1527L13.4755 11.1307L13.4206 11.0978L13.3656 11.0758L13.3107 11.0428L13.2558 11.0209L13.2009 10.9989L13.1459 10.9769L13.08 10.955L13.0251 10.944L12.9592 10.922L12.9042 10.911L12.8383 10.9L12.7834 10.889L12.7175 10.8781L12.6515 10.8671H12.6296L12.6625 10.911L12.7065 10.955L12.7394 11.0099L12.7724 11.0648L12.8054 11.1197L12.8383 11.1747L12.8713 11.2296L12.9042 11.2845L12.9262 11.3395L12.9592 11.3944L12.9811 11.4603L13.0031 11.5152L13.0251 11.5812L13.047 11.6471L13.069 11.702L13.091 11.7679L13.102 11.8338L13.124 11.8998L13.1349 11.9657L13.1459 12.0426L13.1569 12.1085L13.1679 12.1744L13.1789 12.2403V12.3172L13.1899 12.3831V12.46V12.5369V12.6798L13.1789 12.8226L13.1569 12.9654L13.1349 13.1082L13.102 13.251L13.069 13.3939L13.0251 13.5257L12.9811 13.6685L12.9262 13.8003L12.8713 13.9322L12.8054 14.064L12.7394 14.1849L12.6625 14.3057L12.5856 14.4266L12.5087 14.5364L12.4208 14.6463L12.322 14.7561L12.2341 14.866L12.1242 14.9649L12.0253 15.0528L11.9155 15.1406L11.8056 15.2285L11.6958 15.3054L11.5749 15.3823L11.4651 15.4483L11.3332 15.5142L11.2124 15.5691L11.0805 15.613L10.9597 15.657L10.8279 15.7009L10.696 15.7229L10.5532 15.7559L10.4214 15.7669L10.2895 15.7778H10.1577L10.0259 15.7669H9.98193L10.0259 15.8218L10.1138 15.9097L10.2017 15.9976L10.2895 16.0745L10.3884 16.1514L10.4873 16.2283L10.5862 16.2832L10.696 16.3491L10.8059 16.404L10.9267 16.448L11.0366 16.4919L11.1574 16.5249L11.2783 16.5469L11.3991 16.5688L11.531 16.5798L11.6628 16.5908H11.7946L11.9265 16.5798L12.0583 16.5688L12.1901 16.5469L12.333 16.5139L12.4648 16.4809L12.5856 16.437L12.7175 16.3821L12.8383 16.3271L12.9592 16.2612L13.08 16.1953L13.2009 16.1184L13.3107 16.0415L13.4206 15.9536L13.5304 15.8657L13.6293 15.7778L13.7282 15.679L13.8271 15.5691L13.9149 15.4702L14.0028 15.3494L14.0907 15.2395L14.1676 15.1187L14.2445 14.9978L14.3104 14.877L14.3764 14.7451L14.4313 14.6133L14.4862 14.4815L14.5302 14.3497L14.5741 14.2068L14.6071 14.064L14.64 13.9322L14.662 13.7894L14.684 13.6356L14.695 13.4927V13.4158V13.4268V13.3499V13.273Z" fill="#DD5757"/>
<path d="M17.3206 12.8226V12.6797L17.3096 12.5369L17.2986 12.3941L17.2876 12.2513L17.2656 12.1085L17.2437 11.9656L17.2217 11.8448L17.1887 11.713L17.1558 11.5811L17.1228 11.4493L17.0898 11.3175L17.0459 11.1856L17.002 11.0648L16.958 10.9439L16.9141 10.8231L16.8591 10.7022L16.8042 10.5814L16.7493 10.4715L16.6943 10.3617L16.6284 10.2518L16.5625 10.1419L16.4966 10.0321L16.4307 9.92223L16.3538 9.82335L16.2769 9.72448L16.2 9.6256L16.1231 9.52673L16.0462 9.43884L15.9583 9.35095L15.8704 9.26306L15.7825 9.17517L15.6946 9.08729L15.6067 9.01038L15.5079 8.93348L15.409 8.85658L15.3101 8.77968L15.2112 8.71376L15.1124 8.64784L15.0135 8.58193L14.9036 8.527L14.7938 8.47207L14.6839 8.41714L14.574 8.3622L14.4642 8.31826L14.3543 8.27432L14.2335 8.23037L14.1126 8.18643L13.9918 8.15347L13.8709 8.12051L13.7501 8.08755L13.6292 8.06558L13.5084 8.04361L13.3766 8.03262L13.2557 8.01065L13.1239 7.99966L12.992 7.98868H12.8602H12.7284H12.5965L12.4647 7.99966L12.3329 8.01065L12.201 8.02164L12.0582 8.03262L11.9264 8.05459L11.7946 8.07657L11.6627 8.10953L11.5309 8.14248L11.3991 8.17544L11.2672 8.21939L11.1354 8.26333L11.0036 8.30727L10.8717 8.35122L10.7399 8.40615L10.6191 8.46108L10.4982 8.51601L10.3774 8.58193L10.2565 8.64784L10.1357 8.71376L10.0148 8.77968L9.89397 8.85658L9.77312 8.93348L9.66326 9.01038L9.5534 9.08729L9.44354 9.17517L9.33368 9.26306L9.22382 9.35095L9.11396 9.43884L9.01508 9.51574L8.90522 9.61462L8.80635 9.71349L8.70747 9.81237L8.6086 9.91124L8.50973 10.0101L8.42184 10.12L8.33395 10.2298L8.24606 10.3397L8.15817 10.4496L8.07028 10.5594L7.99338 10.6803L7.91648 10.8011L7.83958 10.922L7.76267 11.0428L7.68577 11.1637L7.61985 11.2845L7.55394 11.4163L7.48802 11.5482L7.4221 11.68L7.36717 11.8118L7.31224 11.9437L7.25731 12.0755L7.20238 12.2073L7.15844 12.3392L7.11449 12.471L7.07055 12.6138L7.02661 12.7566L6.99365 12.8995L6.96069 13.0423L6.92773 13.1741L6.89477 13.3169L6.8728 13.4597L6.85083 13.6026L6.82886 13.7454L6.81787 13.8882L6.80688 14.031L6.7959 14.1738V14.3167V14.4595V14.6023V14.7451L6.80688 14.8879L6.81787 15.0307L6.82886 15.1736L6.85083 15.3164L6.8728 15.4592L6.89477 15.591L6.92773 15.7229L6.96069 15.8547L6.99365 15.9865L7.02661 16.1184L7.07055 16.2502L7.11449 16.3711L7.15844 16.4919L7.20238 16.6127L7.25731 16.7336L7.31224 16.8544L7.36717 16.9753L7.4221 17.0851L7.48802 17.195L7.55394 17.3049L7.61985 17.4147L7.68577 17.5246L7.76267 17.6235L7.83958 17.7223L7.91648 17.8212L7.99338 17.9201L8.07028 18.008L8.15817 18.0959L8.24606 18.1838L8.33395 18.2716L8.42184 18.3595L8.50973 18.4364L8.6086 18.5133L8.70747 18.5902L8.80635 18.6671L8.90522 18.7331L9.0041 18.799L9.10297 18.8649L9.21283 18.9198L9.3227 18.9748L9.43256 19.0297L9.54242 19.0846L9.65228 19.1286L9.76214 19.1725L9.88298 19.2164L10.0038 19.2604L10.1247 19.2933L10.2455 19.3263L10.3664 19.3593L10.4872 19.3812L10.6081 19.4032L10.7289 19.4252L10.8607 19.4362L10.9926 19.4472L11.1244 19.4581H11.2562H11.3881H11.5199L11.6517 19.4472L11.7836 19.4362L11.9154 19.4252L12.0472 19.4032L12.1791 19.3812L12.3109 19.3593L12.4427 19.3263L12.5746 19.2933L12.7064 19.2604L12.8382 19.2164L12.9701 19.1725L13.1019 19.1286L13.2337 19.0846L13.3656 19.0297L13.4864 18.9748L13.6073 18.9198L13.7281 18.8539L13.849 18.788L13.9698 18.7221L14.1126 18.6671L14.2335 18.5902L14.3543 18.5133L14.4642 18.4364L14.574 18.3595L14.6839 18.2716L14.7938 18.1838L14.9036 18.0959L15.0135 18.008L15.1124 17.9201L15.2112 17.8212L15.3101 17.7223L15.409 17.6235L15.5079 17.5246L15.6067 17.4257L15.6946 17.3159L15.7825 17.206L15.8704 17.0961L15.9583 16.9863L16.0462 16.8764L16.1231 16.7666L16.2 16.6457L16.2769 16.5249L16.3538 16.404L16.4307 16.2832L16.4966 16.1623L16.5625 16.0415L16.6284 15.9096L16.6943 15.7778L16.7493 15.646L16.8042 15.5141L16.8591 15.3823L16.9141 15.2505L16.958 15.1186L17.002 14.9868L17.0459 14.844L17.0898 14.7012L17.1228 14.5583L17.1558 14.4155L17.1887 14.2727L17.2217 14.1299L17.2437 13.9871L17.2656 13.8443L17.2876 13.7014L17.2986 13.5586L17.3096 13.4158L17.3206 13.273V13.1302V12.9873V12.8226ZM14.6949 13.4268V13.5037V13.5806L14.6839 13.6575L14.6729 13.7344L14.6619 13.8113L14.6509 13.8882L14.64 13.9541L14.629 14.02L14.618 14.0859L14.596 14.1519L14.574 14.2178L14.5521 14.2727L14.5301 14.3386L14.5081 14.4045L14.4861 14.4705L14.4642 14.5364L14.4422 14.6023L14.4092 14.6682L14.3763 14.7341L14.3433 14.8L14.3104 14.866L14.2774 14.9319L14.2445 14.9978L14.2115 15.0637L14.1785 15.1296L14.1346 15.1846L14.0906 15.2395L14.0467 15.2944L14.0028 15.3493L13.9588 15.4043L13.9149 15.4592L13.8709 15.5141L13.827 15.5691L13.783 15.624L13.7391 15.6789L13.6952 15.7339L13.6402 15.7778L13.5853 15.8217L13.5304 15.8657L13.4754 15.9096L13.4205 15.9536L13.3656 15.9975L13.3106 16.0415L13.2557 16.0854L13.2008 16.1294L13.1458 16.1623L13.0909 16.1953L13.036 16.2282L12.9811 16.2612L12.9151 16.2941L12.8492 16.3271L12.7833 16.3601L12.7174 16.382L12.6515 16.404L12.5856 16.426L12.5196 16.448L12.4537 16.4699L12.3878 16.4919L12.3219 16.5139L12.256 16.5249L12.1901 16.5358L12.1241 16.5468L12.0582 16.5578L11.9923 16.5688L11.9264 16.5798H11.8605H11.7946H11.7286H11.6627H11.5968H11.5309L11.465 16.5688L11.3991 16.5578L11.3331 16.5468L11.2672 16.5358L11.2013 16.5249L11.1354 16.5139L11.0805 16.5029L11.0255 16.4809L10.9816 16.4699L10.9267 16.448L10.8717 16.426L10.8168 16.404L10.7619 16.382L10.7069 16.3601L10.652 16.3271L10.5971 16.2941L10.5421 16.2612L10.4872 16.2282L10.4323 16.1953L10.3883 16.1623L10.3444 16.1294L10.3005 16.0854L10.2565 16.0415L10.2126 15.9975L10.1686 15.9536L10.1247 15.9096L10.0807 15.8657L10.0368 15.8217L9.99285 15.7778L9.9489 15.7339L9.91594 15.6789L9.88298 15.624L9.85003 15.5691L9.81707 15.5141L9.78411 15.4592L9.75115 15.4043L9.71819 15.3493L9.68524 15.2944L9.66326 15.2395L9.64129 15.1846L9.61932 15.1186L9.59735 15.0527L9.57537 14.9868L9.5534 14.9209L9.53143 14.855L9.50946 14.7891L9.49847 14.7231L9.48749 14.6572L9.4765 14.5913L9.46551 14.5254L9.45453 14.4595L9.44354 14.3826L9.43256 14.3167V14.2398V14.1629V14.0859V14.009V13.9321V13.8552L9.44354 13.7783L9.45453 13.7014L9.46551 13.6245L9.4765 13.5476L9.48749 13.4817L9.49847 13.4158L9.50946 13.3499L9.53143 13.3059L9.5534 13.24L9.57537 13.1741L9.59735 13.1082L9.61932 13.0423L9.64129 12.9764L9.66326 12.9104L9.68524 12.8445L9.71819 12.7786L9.75115 12.7127L9.78411 12.6468L9.81707 12.5809L9.85003 12.5149L9.88298 12.449L9.91594 12.3831L9.9489 12.3172L9.99285 12.2623L10.0368 12.2073L10.0807 12.1524L10.1247 12.0975L10.1686 12.0425L10.2126 11.9876L10.2565 11.9327L10.3005 11.8777L10.3444 11.8228L10.3883 11.7679L10.4323 11.713L10.4872 11.669L10.5421 11.6251L10.5971 11.5811L10.652 11.5372L10.7069 11.4932L10.7619 11.4493L10.8168 11.4053L10.8717 11.3614L10.9267 11.3175L10.9816 11.2845L11.0365 11.2515L11.0915 11.2186L11.1464 11.1856L11.2123 11.1527L11.2782 11.1197L11.3441 11.0868L11.41 11.0648L11.476 11.0428L11.5419 11.0208L11.6078 10.9989L11.6737 10.9769L11.7286 10.9549L11.7946 10.9329L11.8605 10.922L11.9264 10.911L11.9923 10.9L12.0582 10.889L12.1241 10.878L12.1901 10.867H12.256H12.3219H12.3878H12.4537H12.5196H12.5856L12.6515 10.878L12.7174 10.889L12.7833 10.9L12.8492 10.911L12.9151 10.922L12.9811 10.9329L13.036 10.9439L13.0909 10.9659L13.1458 10.9769L13.2008 10.9989L13.2557 11.0208L13.3106 11.0428L13.3656 11.0648L13.4205 11.0868L13.4754 11.1197L13.5304 11.1527L13.5853 11.1856L13.6402 11.2186L13.6952 11.2515L13.7391 11.2845L13.783 11.3175L13.827 11.3614L13.8709 11.4053L13.9259 11.4493L13.9698 11.4932L14.0137 11.5372L14.0577 11.5811L14.1016 11.6251L14.1456 11.669L14.1895 11.713L14.2225 11.7679L14.2554 11.8228L14.2884 11.8777L14.3214 11.9327L14.3543 11.9876L14.3873 12.0425L14.4202 12.0975L14.4532 12.1524L14.4752 12.2073L14.4971 12.2623L14.5191 12.3282L14.5411 12.3941L14.5631 12.46L14.585 12.5259L14.607 12.5918L14.629 12.6578L14.64 12.7237L14.6509 12.7896L14.6619 12.8555L14.6729 12.9214L14.6839 12.9873L14.6949 13.0533L14.7059 13.1192V13.1961V13.273V13.3499L14.6949 13.4268Z" fill="#FF7171"/>
<path d="M14.6948 13.4268V13.4927L14.6838 13.5696V13.6356L14.6729 13.7125L14.6619 13.7894L14.6509 13.8553L14.6399 13.9322L14.6289 13.9981L14.6069 14.064L14.5959 14.1409L14.574 14.2068L14.552 14.2727L14.53 14.3496L14.5081 14.4156L14.4861 14.4815L14.4641 14.5474L14.4312 14.6133L14.4092 14.6792L14.3762 14.7451L14.3433 14.8111L14.3103 14.877L14.2774 14.9319L14.2444 14.9978L14.2114 15.0637L14.1675 15.1187L14.1345 15.1846L14.0906 15.2395L14.0466 15.2945L14.0027 15.3494L13.9697 15.4153L13.9148 15.4702L13.8709 15.5252L13.8269 15.5691L13.783 15.624L13.728 15.679L13.6841 15.7229L13.6292 15.7778L13.5852 15.8218L13.5303 15.8657L13.4754 15.9097L13.4204 15.9536L13.3655 15.9976L13.3106 16.0415L13.2556 16.0854L13.2007 16.1184L13.1458 16.1624L13.0799 16.1953L13.0249 16.2283L12.959 16.2612L12.9041 16.2942L12.8382 16.3271L12.7832 16.3601L12.7173 16.3821L12.6514 16.404L12.5855 16.437L12.5196 16.459L12.4647 16.4809L12.3987 16.4919L12.3328 16.5139L12.2669 16.5249L12.19 16.5469L12.1241 16.5578L12.0582 16.5688L11.9922 16.5798H11.9263L11.8604 16.5908H11.7945H11.7286H11.6627H11.5968L11.5308 16.5798H11.4649L11.399 16.5688L11.3441 16.5578L11.2782 16.5469L11.2232 16.5359L11.1573 16.5249L11.1024 16.5029L11.0365 16.4919L10.9815 16.47L10.9266 16.448L10.8607 16.426L10.8058 16.404L10.7508 16.3711L10.6959 16.3491L10.641 16.3162L10.586 16.2832L10.5421 16.2612L10.4872 16.2283L10.4322 16.1843L10.3883 16.1514L10.3443 16.1184L10.2894 16.0745L10.2455 16.0415L10.2015 15.9976L10.1576 15.9536L10.1136 15.9097L10.0697 15.8657L10.0257 15.8218L9.99279 15.7669L9.94884 15.7229L9.91588 15.668L9.88292 15.624L9.83898 15.5691L9.80602 15.5142L9.77306 15.4592L9.75109 15.4043L9.71813 15.3494L9.68518 15.2945L9.6632 15.2285L9.63024 15.1736L9.60827 15.1077L9.5863 15.0528L9.56433 14.9868L9.54236 14.9209L9.53137 14.855L9.5094 14.7891L9.49841 14.7232L9.47644 14.6573L9.46545 14.5913L9.45447 14.5254L9.44348 14.4595V14.3826L9.4325 14.3167V14.2398V14.1739V14.097V14.0201V13.9542V13.8772L9.44348 13.8113V13.7344L9.45447 13.6575L9.46545 13.5916L9.47644 13.5147L9.49841 13.4488L9.5094 13.3829L9.53137 13.306L9.54236 13.2401L9.56433 13.1632L9.5863 13.0972L9.60827 13.0313L9.63024 12.9654L9.6632 12.8995L9.68518 12.8336L9.71813 12.7677L9.75109 12.7017L9.77306 12.6358L9.80602 12.5699L9.83898 12.504L9.88292 12.4491L9.91588 12.3831L9.94884 12.3282L9.99279 12.2623L10.0257 12.2074L10.0697 12.1524L10.1136 12.0865L10.1576 12.0316L10.2015 11.9767L10.2455 11.9217L10.2894 11.8778L10.3443 11.8229L10.3883 11.7679L10.4322 11.724L10.4872 11.669L10.5421 11.6251L10.586 11.5812L10.641 11.5262L10.6959 11.4823L10.7508 11.4493L10.8058 11.4054L10.8607 11.3614L10.9266 11.3285L10.9815 11.2845L11.0365 11.2516L11.1024 11.2186L11.1573 11.1857L11.2232 11.1527L11.2782 11.1197L11.3441 11.0868L11.41 11.0648L11.4649 11.0428L11.5308 11.0099L11.5968 10.9879L11.6627 10.9659L11.7286 10.955L11.7945 10.933L11.8604 10.922L11.9263 10.9L11.9922 10.889L12.0582 10.8781L12.1241 10.8671H12.201L12.2669 10.8561H12.3328H12.3987H12.4647H12.5306L12.5855 10.8671H12.6514L12.7173 10.8781L12.7832 10.889L12.8382 10.9L12.9041 10.911L12.959 10.922L13.0249 10.944L13.0799 10.955L13.1458 10.9769L13.2007 10.9989L13.2556 11.0209L13.3106 11.0428L13.3655 11.0758L13.4204 11.0978L13.4754 11.1307L13.5303 11.1527L13.5852 11.1857L13.6292 11.2186L13.6841 11.2626L13.728 11.2955L13.783 11.3285L13.8269 11.3724L13.8709 11.4054L13.9258 11.4493L13.9697 11.4933L14.0027 11.5372L14.0466 11.5812L14.0906 11.6251L14.1345 11.68L14.1675 11.724L14.2114 11.7789L14.2444 11.8229L14.2774 11.8778L14.3103 11.9327L14.3433 11.9876L14.3762 12.0426L14.4092 12.0975L14.4312 12.1524L14.4641 12.2184L14.4861 12.2733L14.5081 12.3392L14.53 12.3941L14.552 12.46L14.574 12.526L14.5959 12.5919L14.6069 12.6468L14.6289 12.7127L14.6399 12.7896L14.6509 12.8555L14.6619 12.9215L14.6729 12.9874L14.6838 13.0643V13.1302L14.6948 13.2071V13.273V13.3499V13.4268Z" fill="white"/>
<path d="M4.1593 27.6428L4.18127 27.5879L4.20325 27.533L4.22522 27.4781L4.25818 27.4231L4.30212 27.3682L4.33508 27.3133L4.39001 27.2473L4.44494 27.1814L4.49987 27.1155L4.5548 27.0606L4.6317 26.9837L4.69762 26.9178L4.77452 26.8519L4.85142 26.7859L4.93931 26.709L5.0272 26.6431L5.11509 26.5662L5.21396 26.5003L5.31284 26.4234L5.41171 26.3465L5.52157 26.2696L5.63144 26.2037L5.7413 26.1268L5.86214 26.0499L5.98299 25.973L6.10384 25.8961L6.22468 25.8192L6.35652 25.7423L6.48835 25.6763L6.62018 25.5994L6.75201 25.5225L6.89483 25.4456L7.03765 25.3687L7.18047 25.3028L7.32329 25.2259L7.4771 25.149L7.61991 25.0831L7.77372 25.0062L7.92752 24.9403L8.08133 24.8634L8.23513 24.7975L8.39993 24.7315L8.55373 24.6656L8.71852 24.5997L8.88331 24.5338L9.0481 24.4789L9.2129 24.4129L9.37769 24.358L9.54248 24.3031L9.70727 24.2372L9.87206 24.1822L10.0369 24.1383L10.2126 24.0834L10.3774 24.0394L10.5422 23.9845L10.718 23.9405L10.8828 23.9076L11.0586 23.8636L11.2233 23.8197L11.3881 23.7867L11.5639 23.7538L11.7287 23.7208L11.8935 23.6988L12.0583 23.6769L12.2231 23.6549L12.3989 23.6329L12.5636 23.611L12.7284 23.6L12.9042 23.589L13.069 23.578L13.2448 23.567H13.4096L13.5744 23.556H13.7501H13.9149H14.0907L14.2555 23.567H14.4203L14.5851 23.578L14.7609 23.589L14.9257 23.6L15.0904 23.6219L15.2552 23.6329L15.409 23.6549L15.5738 23.6659L15.7386 23.6879L15.8924 23.7098L16.0572 23.7428L16.211 23.7648L16.3648 23.7867L16.5186 23.8197L16.6615 23.8527L16.8153 23.8746L16.9581 23.9076L17.1009 23.9405L17.2437 23.9735L17.3865 24.0174L17.5184 24.0504L17.6502 24.0834L17.782 24.1273L17.9139 24.1603L18.0347 24.2042L18.1665 24.2482L18.2764 24.2921L18.3973 24.3251L18.5071 24.369L18.617 24.4129L18.7268 24.4569L18.8257 24.5008L18.9246 24.5558L19.0235 24.5997L19.1113 24.6437L19.1992 24.6876L19.2871 24.7315L19.364 24.7865L19.4409 24.8304L19.5068 24.8744L19.5728 24.9183L19.6387 24.9732L19.6936 25.0172L19.7376 25.0611L19.7925 25.1161L19.8254 25.16L19.8694 25.2039L19.9023 25.2589L19.9243 25.3028L19.9463 25.3468L19.9573 25.3907L4.1593 27.6428Z" fill="white"/>
<path d="M41.0066 29.5982L40.9956 29.4115L40.9847 29.2357L40.9627 29.0599L40.9407 28.8841L40.8968 28.7084L40.8528 28.5436L40.7979 28.3678L40.743 28.203L40.677 28.0492L40.6111 27.8844L40.5232 27.7306L40.4463 27.5768L40.3475 27.423L40.2486 27.2802L40.1497 27.1374L40.0399 26.9945L39.93 26.8517L39.8091 26.7089L39.6883 26.5771L39.5565 26.4452L39.4246 26.3134L39.2818 26.1926L39.139 26.0717L38.9962 25.9509L38.8534 25.83L38.6995 25.7092L38.5348 25.5993L38.381 25.4895L38.2162 25.3906L38.0514 25.2807L37.8866 25.1818L37.7218 25.083L37.546 24.9841L37.3702 24.8962L37.1945 24.8083L37.0187 24.7204L36.8429 24.6325L36.6561 24.5556L36.4804 24.4787L36.3046 24.4018L36.1178 24.3249L35.9311 24.259L35.7553 24.1931L35.5685 24.1272L35.3927 24.0723L35.206 24.0063L35.0302 23.9514L34.8434 23.9075L34.6677 23.8525L34.4919 23.8086L34.3161 23.7646L34.1403 23.7207L33.9646 23.6877L33.7998 23.6548L33.635 23.6218L33.4702 23.5889L33.3054 23.5669L33.1406 23.5449L32.9868 23.5229L32.833 23.501L32.6792 23.49L32.5364 23.479L32.3935 23.468H32.2507H32.1189H31.9761H31.8223L31.6794 23.479L31.5256 23.49L31.3609 23.501L31.207 23.512L31.0423 23.5339L30.8775 23.5559L30.7127 23.5779L30.6248 23.5889H30.6028L30.46 23.5669L30.3062 23.5559H30.1634L30.0315 23.5449H29.8887H29.8228H29.7459H29.6031L29.4493 23.5559L29.3724 23.5669H29.2955L29.1417 23.5779L28.9769 23.5889L28.8121 23.6108L28.6473 23.6328L28.4825 23.6548L28.3177 23.6768L28.1419 23.7097L27.9662 23.7427L27.7904 23.7756L27.7025 23.7976L27.6146 23.8196L27.4388 23.8525L27.2521 23.8965L27.0763 23.9404L26.8895 23.9953L26.7137 24.0503L26.527 24.1052L26.3512 24.1601L26.1644 24.2151L25.9887 24.281L25.8019 24.3469L25.6261 24.4238L25.4503 24.4897L25.2746 24.5666L25.0878 24.6435L24.923 24.7314L24.7472 24.8083L24.5715 24.8962L24.4067 24.9841L24.2419 25.083L24.0771 25.1709L23.9123 25.2697L23.7585 25.3796L23.5937 25.4785L23.4509 25.5883L23.2971 25.6982L23.1543 25.808L23.0114 25.9289L22.8796 26.0497L22.7478 26.1706L22.6159 26.2914L22.4951 26.4233L22.3742 26.5551L22.2644 26.6869L22.1545 26.8298L22.0556 26.9726L21.9568 27.1154L21.8689 27.2582L21.781 27.412L21.7041 27.5548L21.6272 27.7196L21.5613 27.8734L21.5063 28.0382L21.4624 28.203L21.4185 28.3678L21.3745 28.5326L21.3525 28.7084L21.3306 28.8841L21.3196 29.0709V29.2467V32.2129L38.7874 32.6304L41.0176 32.5535L41.0066 29.5982Z" fill="#383838"/>
<path d="M36.6013 16.1842V16.0304V15.8766L36.5903 15.7228L36.5793 15.569L36.5683 15.4152L36.5574 15.2724L36.5354 15.1296L36.5134 14.9867L36.4914 14.8439L36.4695 14.7011L36.4365 14.5583L36.4036 14.4155L36.3596 14.2726L36.3267 14.1298L36.2937 13.998L36.2498 13.8662L36.2058 13.7343L36.1619 13.6025L36.1179 13.4707L36.063 13.3388L36.0081 13.218L35.9531 13.0971L35.8982 12.9763L35.8433 12.8554L35.7883 12.7346L35.7224 12.6137L35.6565 12.5039L35.5906 12.394L35.5247 12.2842L35.4588 12.1743L35.3819 12.0644L35.3049 11.9656L35.228 11.8667L35.1511 11.7678L35.0742 11.6689L34.9973 11.5701L34.9204 11.4822L34.8325 11.3943L34.7447 11.3064L34.6568 11.2185L34.5689 11.1416L34.481 11.0647L34.3931 10.9878L34.3052 10.9109L34.2063 10.845L34.1075 10.7791L34.0086 10.7132L33.9097 10.6582L33.8108 10.6033L33.712 10.5484L33.6131 10.4934L33.5142 10.4495L33.4153 10.4055L33.3165 10.3616L33.2066 10.3286L33.0968 10.2957L32.9869 10.2627L32.877 10.2408L32.7672 10.2188L32.6573 10.1968L32.5474 10.1858L32.4376 10.1748L32.3277 10.1638H32.2179H32.108H31.9981L31.8883 10.1748H31.8773L31.7784 10.1858L31.7235 10.1968H31.6026L30.1195 10.2517H30.0646H30.0097H29.8998H29.7899L29.6801 10.2627L29.5702 10.2737L29.5153 10.2847L29.4604 10.2957L29.3505 10.3177L29.2406 10.3396L29.1308 10.3616L29.0209 10.3946L28.9111 10.4275L28.8122 10.4605L28.7353 10.4934L28.7133 10.5044L28.6584 10.5264L28.6034 10.5484L28.5046 10.5923L28.4057 10.6362L28.3068 10.6912L28.2629 10.7241L28.2189 10.7571L28.164 10.7901L28.131 10.812L28.0322 10.8779L27.9443 10.9439L27.8564 11.0098L27.7685 11.0757L27.7246 11.1196L27.6806 11.1526L27.5927 11.2295L27.5048 11.3064L27.417 11.3833L27.3291 11.4712L27.2522 11.5591L27.1753 11.647L27.0984 11.7349L27.0215 11.8337L26.9446 11.9326L26.8676 12.0315L26.8017 12.1304L26.7358 12.2402L26.6699 12.3501L26.604 12.4599L26.5381 12.5698L26.4721 12.6797L26.4172 12.8005L26.3623 12.9214L26.3074 13.0422L26.2524 13.163L26.1975 13.2839L26.1536 13.4047L26.1096 13.5366L26.0766 13.6354L26.0657 13.6684L26.0437 13.7343L26.0217 13.8002L25.9778 13.9321L25.9448 14.0639L25.9119 14.1957L25.8789 14.3386L25.8459 14.4814L25.813 14.6242L25.802 14.6901L25.791 14.767L25.769 14.8879V14.9098L25.7471 15.0527L25.7251 15.1955L25.7141 15.3383L25.7031 15.4921L25.6921 15.6459L25.6812 15.7997V15.9535V16.1073V16.2611V16.4149L25.6921 16.5687L25.7031 16.7225L25.7141 16.8763L25.7251 17.0192L25.7471 17.162L25.769 17.3048L25.791 17.4476L25.813 17.5904L25.8459 17.7333L25.8569 17.7992L25.8789 17.8761L25.9119 18.0189L25.9448 18.1617L25.9778 18.2935L26.0217 18.4254L26.0657 18.5572L26.1096 18.689L26.1536 18.8209L26.2085 18.9527L26.2634 19.0736L26.3183 19.1944L26.3733 19.3152L26.4282 19.4361L26.4831 19.5569L26.5491 19.6778L26.615 19.7876L26.6809 19.8975L26.7468 20.0074L26.8127 20.1172L26.8896 20.2271L26.9665 20.326L27.0434 20.4248L27.1203 20.5237L27.1972 20.6226L27.2741 20.7215L27.351 20.8094L27.4389 20.8972L27.5268 20.9851L27.6147 21.073L27.7026 21.1499L27.7905 21.2268L27.8784 21.3037L27.9663 21.3806L28.0651 21.4465L28.164 21.5125L28.197 21.5344L28.2629 21.5784L28.2958 21.6003L28.3508 21.6333L28.4496 21.6882L28.5485 21.7432L28.5815 21.7651L28.6474 21.7981L28.7463 21.842L28.8451 21.886L28.944 21.9299L28.9989 21.9519L29.0539 21.9739L29.1088 21.9958L29.1637 22.0178L29.2736 22.0508L29.3835 22.0728L29.4933 22.0947L29.6032 22.1167L29.6581 22.1277L29.713 22.1387L29.8229 22.1497L29.9328 22.1606H30.0426H30.1525H30.2623H30.3063L32.3827 22.0837H32.4596H32.4925H32.5474H32.6024L32.7122 22.0728L32.8221 22.0618L32.877 22.0508L32.932 22.0398L33.0418 22.0178L33.1517 21.9958L33.2615 21.9629L33.3714 21.9299L33.4703 21.897L33.5691 21.853L33.668 21.8091L33.7339 21.7761L33.7669 21.7651L33.8658 21.7212L33.9097 21.6992L33.9537 21.6773L34.0525 21.6223L34.1514 21.5674L34.2063 21.5344L34.2393 21.5125L34.3272 21.4465L34.3711 21.4136L34.4261 21.3696L34.47 21.3367L34.514 21.3037L34.6018 21.2268L34.6897 21.1499L34.7776 21.073L34.8655 20.9961L34.9534 20.9082L34.9973 20.8643L35.0413 20.8203L35.0852 20.7764L35.1292 20.7324L35.2061 20.6446L35.283 20.5457L35.3049 20.5127L35.3599 20.4468L35.4368 20.3479L35.5027 20.2491L35.5686 20.1392L35.6345 20.0293L35.7004 19.9195L35.7664 19.8096L35.8323 19.6998L35.8872 19.5789L35.9421 19.4581L35.9971 19.3372L36.052 19.2164L36.1069 19.0955L36.1509 18.9747L36.1948 18.8428L36.2388 18.711L36.2827 18.5792L36.3267 18.4473L36.3596 18.3155L36.3926 18.1837L36.4255 18.0409L36.4365 17.9749L36.4475 17.909L36.4805 17.7662L36.5024 17.6234L36.5244 17.4806L36.5464 17.3378L36.5574 17.2718L36.5683 17.1949L36.5793 17.0521L36.5903 16.8983L36.6013 16.7445L36.6123 16.5907V16.4369L36.6013 16.1842Z" fill="#383838"/>
<path d="M32.1741 16.5798L32.1631 16.6567L32.1521 16.7226L32.1411 16.7995L32.1301 16.8655L32.1192 16.9424L32.1082 17.0083L32.0972 17.0852L32.0752 17.1511L32.0532 17.217L32.0423 17.2829L32.0203 17.3488L31.9983 17.4148L31.9763 17.4807L31.9544 17.5466L31.9324 17.6015L31.8994 17.6674L31.8775 17.7334L31.8445 17.7883L31.8225 17.8432L31.7896 17.9091L31.7566 17.9641L31.7237 18.019L31.6907 18.0739L31.6577 18.1289L31.6248 18.1838L31.5918 18.2277L31.5589 18.2827L31.5149 18.3266L31.482 18.3705L31.438 18.4255L31.3941 18.4694L31.3611 18.5134L31.3172 18.5573L31.2732 18.5903L31.2293 18.6342L31.1853 18.6672L31.1414 18.7111L31.0975 18.7441L31.0535 18.777L31.0096 18.81L30.9546 18.8429L30.9107 18.8649L30.8668 18.8979L30.8118 18.9198L30.7569 18.9528L30.7129 18.9748L30.658 18.9968L30.6141 19.0077L30.5591 19.0297L30.5042 19.0517L30.4493 19.0627L30.3943 19.0737L30.3504 19.0846L30.2955 19.0956H30.2405L30.1856 19.1066H30.1307H30.0758H30.0098H29.9549H29.9L29.845 19.0956L29.7901 19.0846H29.7352L29.6803 19.0737L29.6253 19.0517L29.5704 19.0407L29.5265 19.0187L29.4715 19.0077L29.4166 18.9858L29.3617 18.9638L29.3177 18.9418L29.2628 18.9089L29.2188 18.8869L29.1639 18.8539L29.12 18.832L29.065 18.799L29.0211 18.766L28.9771 18.7221L28.9332 18.6891L28.8783 18.6562L28.8343 18.6122L28.7904 18.5793L28.7464 18.5353L28.7135 18.4914L28.6695 18.4474L28.6256 18.4035L28.5816 18.3486L28.5487 18.3046L28.5047 18.2497L28.4718 18.2058L28.4278 18.1508L28.3949 18.0959L28.3619 18.041L28.329 17.986L28.296 17.9311L28.2631 17.8762L28.2301 17.8212L28.1971 17.7553L28.1752 17.7004L28.1422 17.6345L28.1202 17.5795L28.0873 17.5136L28.0653 17.4477L28.0433 17.3818L28.0214 17.3159L27.9994 17.25L27.9774 17.184L27.9554 17.1181L27.9445 17.0522L27.9225 16.9753L27.9115 16.9094L27.8895 16.8435L27.8785 16.7666L27.8676 16.6897L27.8566 16.6238L27.8456 16.5469V16.47L27.8346 16.404L27.8236 16.3271V16.2502V16.1733V16.0964V16.0195V15.9426V15.8767L27.8346 15.7998V15.7229L27.8456 15.646L27.8566 15.5801L27.8676 15.5032L27.8785 15.4373L27.8895 15.3604L27.9005 15.2944L27.9225 15.2285L27.9335 15.1516L27.9554 15.0857L27.9664 15.0198L27.9884 14.9539L28.0104 14.888L28.0323 14.822L28.0543 14.7671L28.0873 14.7012L28.1092 14.6353L28.1312 14.5804L28.1642 14.5144L28.1861 14.4595L28.2191 14.4046L28.2521 14.3387L28.285 14.2837L28.318 14.2288L28.3509 14.1849L28.3839 14.1299L28.4169 14.075L28.4608 14.031L28.4938 13.9761L28.5377 13.9322L28.5707 13.8882L28.6146 13.8333L28.6476 13.8003L28.6915 13.7564L28.7355 13.7125L28.7794 13.6685L28.8233 13.6355L28.8673 13.5916L28.9112 13.5586L28.9552 13.5257L29.0101 13.4927L29.054 13.4598L29.098 13.4378L29.1529 13.4048L29.1969 13.3829L29.2518 13.3609L29.2957 13.3389L29.3507 13.317L29.4056 13.295L29.4495 13.273L29.5045 13.262L29.5594 13.2401L29.6143 13.2291L29.6693 13.2181L29.7242 13.2071H29.7681L29.8341 13.1961H29.889H29.9439H29.9989H30.0538H30.1087L30.1636 13.2071L30.2186 13.2181L30.2735 13.2291L30.3284 13.2401L30.3834 13.251L30.4383 13.262L30.4822 13.284L30.5372 13.306L30.5921 13.317L30.647 13.3389L30.691 13.3719L30.7459 13.3939L30.7898 13.4158L30.8448 13.4488L30.8887 13.4817L30.9437 13.5147L30.9876 13.5477L31.0315 13.5806L31.0865 13.6136L31.1304 13.6575L31.1744 13.6905L31.2183 13.7344L31.2623 13.7784L31.3062 13.8113L31.3392 13.8553L31.3831 13.9102L31.427 13.9541L31.46 13.9981L31.5039 14.053L31.5369 14.097L31.5808 14.1519L31.6138 14.2068L31.6468 14.2618L31.6797 14.3167L31.7127 14.3716L31.7456 14.4265L31.7786 14.4815L31.8116 14.5474L31.8335 14.6023L31.8665 14.6682L31.8885 14.7342L31.9214 14.7891L31.9434 14.855L31.9654 14.9209L31.9873 14.9868L32.0093 15.0528L32.0313 15.1187L32.0532 15.1846L32.0752 15.2615L32.0862 15.3274L32.0972 15.3933L32.1192 15.4702L32.1301 15.5361L32.1411 15.613L32.1521 15.679L32.1631 15.7559L32.1741 15.8328V15.9097L32.1851 15.9756V16.0525V16.1294V16.2063V16.2832V16.3601V16.437L32.1741 16.5029V16.5798Z" fill="white"/>
<path d="M23.4949 29.3014L23.5059 29.2574L23.5278 29.2025L23.5498 29.1476L23.5828 29.0926L23.6157 29.0377L23.6487 28.9828L23.6816 28.9278L23.7256 28.8729L23.7805 28.818L23.8245 28.763L23.8794 28.7081L23.9453 28.6422L24.0002 28.5873L24.0661 28.5323L24.1431 28.4664L24.209 28.4115L24.2859 28.3456L24.3628 28.2906L24.4507 28.2357L24.5276 28.1698L24.6155 28.1149L24.7143 28.0489L24.8022 27.994L24.9011 27.9391L25 27.8732L25.0988 27.8182L25.2087 27.7633L25.3076 27.6974L25.4174 27.6425L25.5273 27.5875L25.6481 27.5326L25.758 27.4777L25.8789 27.4227L25.9997 27.3788L26.1205 27.3239L26.2414 27.2689L26.3622 27.225L26.4831 27.1701L26.6149 27.1261L26.7468 27.0822L26.8676 27.0382L26.9994 26.9943L27.1313 26.9503L27.2741 26.9064L27.4059 26.8734L27.5377 26.8295L27.6696 26.7965L27.8124 26.7636L27.9442 26.7306L28.0871 26.6977L28.2299 26.6757L28.3617 26.6427L28.5045 26.6208L28.6473 26.5988L28.7792 26.5768L28.922 26.5658L29.0648 26.5439L29.2076 26.5329L29.3395 26.5219L29.4823 26.5109H29.6251L29.7569 26.4999H29.8998L30.0426 26.5109H30.1744L30.3172 26.5219L30.4491 26.5329L30.5919 26.5439L30.7347 26.5548L30.8775 26.5768L31.0203 26.5988L31.1522 26.6208L31.295 26.6427L31.4378 26.6647L31.5806 26.6977L31.7234 26.7306L31.8553 26.7636L31.9981 26.7965L32.1409 26.8405L32.2727 26.8734L32.4156 26.9174L32.5474 26.9613L32.6792 27.0053L32.8221 27.0492L32.9539 27.0932L33.0857 27.1481L33.2175 27.192L33.3494 27.247L33.4812 27.3019L33.6021 27.3568L33.7339 27.4118L33.8547 27.4667L33.9756 27.5216L34.0964 27.5765L34.2173 27.6315L34.3381 27.6974L34.459 27.7523L34.5688 27.8182L34.6787 27.8732L34.7886 27.9391L34.8984 28.005L34.9973 28.0709L35.0962 28.1258L35.195 28.1918L35.2939 28.2577L35.3928 28.3236L35.4807 28.3785L35.5686 28.4444L35.6565 28.5104L35.7334 28.5763L35.8212 28.6422L35.8872 28.6971L35.9641 28.763L36.03 28.829L36.0959 28.8839L36.1618 28.9498L36.2167 29.0157L36.2717 29.0706L36.3266 29.1256L36.3706 29.1915L36.4145 29.2464L36.4475 29.3014L36.4914 29.3563L36.5134 29.4112L36.5463 29.4661L36.5683 29.5211L36.5793 29.576L36.6013 29.62L23.4949 29.3014Z" fill="white"/>
</svg>
