<svg width="33" height="33" viewBox="0 0 33 33" fill="none" xmlns="http://www.w3.org/2000/svg">
<g clip-path="url(#clip0_751_1622)">
<path d="M2.39093 23.1613L2.41034 23.3069L2.42975 23.433L2.46857 23.5689L2.49768 23.695L2.5365 23.8212L2.58502 23.9474L2.64324 24.0638L2.70147 24.1706L2.7597 24.2773L2.82763 24.3841L2.89556 24.4811L2.97319 24.5781L3.06053 24.6752L3.14787 24.7528L3.23521 24.8402L3.33225 24.9081L3.4293 24.9857L3.53605 25.044L3.63309 25.1022H3.6428L3.6525 25.1119H3.6622L3.67191 25.1216L3.68161 25.1313H3.70102V25.141L3.72043 25.1507L3.73984 25.1604L3.75925 25.1701L3.77866 25.1798L3.79807 25.1895L3.81747 25.1992L3.83688 25.2089L3.85629 25.2186L3.8757 25.2283V25.238L3.89511 25.2477L3.91452 25.2575L3.93393 25.2672L3.95334 25.2769L3.97274 25.2866L3.99215 25.2963L4.01156 25.306L4.03097 25.3157H4.04067L4.05038 25.3254L4.06008 25.3351H4.06979L4.07949 25.3448L4.0892 25.3545H4.0989L4.10861 25.3642H4.11831L4.12801 25.3739H4.13772L4.15713 25.3836L4.17654 25.3933L4.19594 25.403L4.21535 25.4127L4.23476 25.4224L4.25417 25.4321V25.4418L4.27358 25.4515L4.29299 25.4612L4.3124 25.4709L4.33181 25.4807L4.35121 25.4904L4.37062 25.5001L4.39003 25.5098L4.40944 25.5195L4.42885 25.5292V25.5389L4.44826 25.5486L4.46767 25.5583H4.47737L4.48708 25.568L4.50648 25.5777H4.51619L4.52589 25.5874H4.5356L4.5453 25.5971H4.55501L4.56471 25.6068H4.57442L4.58412 25.6165H4.59382L4.60353 25.6262L4.61323 25.6359H4.63264V25.6456L4.65205 25.6553L4.67146 25.665L4.69087 25.6747L4.71028 25.6844L4.72969 25.6941L4.74909 25.7039L4.7685 25.7136L4.78791 25.7233L4.80732 25.733V25.7427L4.82673 25.7524L4.84614 25.7621L4.86555 25.7718L4.88496 25.7815L4.90436 25.7912L4.92377 25.8009L4.94318 25.8106H4.95289L4.96259 25.8203L4.982 25.83L4.9917 25.8397L5.00141 25.8494H5.01111L5.02082 25.8591H5.03052L5.04023 25.8688H5.04993L5.05963 25.8785H5.06934L5.08875 25.8882L5.10816 25.8979L5.12757 25.9076L5.14697 25.9173L5.16638 25.9271L5.18579 25.9368V25.9465L5.2052 25.9562L5.22461 25.9659L5.24402 25.9756L5.26343 25.9853L5.28284 25.995L5.30224 26.0047L5.32165 26.0144L5.34106 26.0241L5.36047 26.0338V26.0435L5.37988 26.0532L5.39929 26.0629H5.40899L5.4187 26.0726L5.43811 26.0823H5.44781L5.45751 26.092H5.46722L5.47692 26.1017H5.48663L5.49633 26.1114H5.50604L5.51574 26.1211H5.52544L5.53515 26.1308L5.54485 26.1406H5.56426V26.1503L5.58367 26.16L5.60308 26.1697L5.62249 26.1794L5.6419 26.1891L5.74865 26.2376L5.8651 26.2861L5.97185 26.3249L6.098 26.3638L6.21446 26.3832L6.34061 26.4123L6.46677 26.422L6.59293 26.4317H6.71908L6.85494 26.422L6.99081 26.4026L27.8067 23.4427L27.9426 23.4233L28.0687 23.3845L28.2046 23.3554L28.3307 23.3069L28.4569 23.2583L28.583 23.2001L28.6995 23.1419L28.816 23.074L28.9324 23.006L29.0392 22.9284L29.1556 22.8411L29.2527 22.7537L29.3594 22.6567L29.4564 22.5596L29.5535 22.4626L29.6408 22.3558L29.7282 22.2491L29.8058 22.1326L29.8834 22.0162L29.9611 21.89L30.0193 21.7736L30.0872 21.6474L30.1455 21.5116L30.194 21.3854L30.2425 21.2495L30.2813 21.1137L30.3201 20.9778L30.3492 20.8323L30.3687 20.6964L30.3881 20.5508L30.3978 20.4053V20.2597L30.4172 4.81032L30.4075 4.66475L30.3978 4.51919L30.3881 4.38333L30.359 4.24746L30.3298 4.12131L30.291 3.98545L30.2522 3.86899L30.2037 3.74284L30.1552 3.62638L30.0969 3.50993L30.0387 3.40318L29.9708 3.30614L29.8931 3.19939L29.8155 3.10235L29.7379 3.01501L29.6505 2.92767L29.5632 2.85003L29.4661 2.7724L29.3691 2.70447L29.2624 2.63654L29.1556 2.57831L29.1362 2.56861L29.1168 2.5589L29.0974 2.5492L29.078 2.53949L29.0586 2.52979L29.0392 2.52008L29.0197 2.51038L29.0003 2.50068V2.49097H28.9809V2.48127L28.9615 2.47156H28.9518L28.9421 2.46186H28.9324L28.9227 2.45215H28.913L28.9033 2.44245H28.8936L28.8839 2.43274H28.8742L28.8645 2.42304H28.8548L28.8451 2.41334H28.8354L28.816 2.40363L28.7965 2.39393V2.38422L28.7771 2.37452L28.7577 2.36481L28.7383 2.35511L28.7189 2.34541L28.6995 2.3357L28.6801 2.326L28.6607 2.31629L28.6413 2.30659L28.6219 2.29688V2.28718H28.6025V2.27747L28.583 2.26777L28.5636 2.25807L28.5442 2.24836L28.5248 2.23866L28.5054 2.22895L28.486 2.21925H28.4763L28.4666 2.20954H28.4569L28.4472 2.19984H28.4375L28.4278 2.19014L28.4181 2.18043L28.4084 2.17073H28.3987L28.389 2.16102H28.3793L28.3696 2.15132H28.3598L28.3404 2.14161L28.321 2.13191L28.3016 2.1222L28.2822 2.1125L28.2628 2.1028L28.2434 2.09309L28.224 2.07368L28.2046 2.06398L28.1852 2.05427L28.1658 2.04457L28.1464 2.03487L28.1269 2.02516L28.1075 2.01546L28.0881 2.00575L28.0687 1.99605V1.98634H28.0493V1.97664L28.0299 1.96693L28.0105 1.95723H28.0008L27.9911 1.94753H27.9814L27.9717 1.93782H27.962L27.9523 1.92812H27.9426L27.9329 1.91841H27.9232L27.9134 1.90871H27.9037L27.8843 1.899L27.8649 1.8893V1.87959L27.8455 1.86989L27.8261 1.86019L27.8067 1.85048L27.7873 1.84078L27.7679 1.83107L27.7485 1.82137L27.7291 1.81166L27.7097 1.80196L27.6902 1.79226L27.6708 1.78255V1.77285L27.6514 1.76314L27.632 1.75344L27.6126 1.74373L27.5932 1.73403L27.5738 1.72432L27.5544 1.71462H27.5447L27.535 1.70492H27.5253L27.5156 1.69521H27.5059L27.4962 1.68551L27.4865 1.6758L27.4767 1.6661H27.467L27.4573 1.65639H27.4476L27.4379 1.64669H27.4282L27.4088 1.63699L27.3894 1.62728L27.37 1.61758L27.3506 1.60787L27.3312 1.59817L27.3118 1.58846V1.57876L27.2924 1.56905L27.273 1.55935L27.2535 1.54965L27.2341 1.53994L27.2147 1.53024L27.1953 1.52053L27.1759 1.51083L27.1565 1.50112L27.0498 1.4429L26.9333 1.40408L26.8169 1.35556L26.7004 1.32645L26.5839 1.29733L26.4578 1.27792L26.3316 1.26822L26.2055 1.25851H26.0696L25.9435 1.26822L25.8076 1.27792L4.982 4.24746L4.85584 4.26687L4.71998 4.29599L4.59382 4.3348L4.46767 4.37362L4.34151 4.42214L4.21535 4.48037L4.0892 4.5483L3.97274 4.60653L3.85629 4.68416L3.74954 4.7618L3.6428 4.84914L3.53605 4.93648L3.4293 5.02381L3.33225 5.12086L3.23521 5.22761L3.14787 5.33435L3.06053 5.4411L2.9829 5.55756L2.90526 5.67401L2.82763 5.79046L2.7597 5.91662L2.70147 6.04278L2.64324 6.16893L2.58502 6.30479L2.5462 6.44065L2.49768 6.57652L2.46857 6.71238L2.43945 6.85794L2.41034 6.9938L2.40063 7.13937L2.39093 7.28494L2.38123 7.4305V22.8799V23.0254L2.39093 23.1613Z" fill="#383838"/>
<path d="M29.7089 24.6072L1.08093 28.6831V31.4973L3.08004 32.5842L31.708 28.5084V25.6941L29.7089 24.6072Z" fill="#383838"/>
<path d="M27.8067 20.6284V5.17899L6.99084 8.13882V23.5979L27.8067 20.6284Z" fill="white"/>
<path d="M26.7004 21.0942L26.7877 20.9292L26.8654 20.7643L26.943 20.5993L27.0109 20.4246L27.0788 20.2499L27.1371 20.0753L27.1953 19.9006L27.2438 19.7259L27.2826 19.5512L27.3215 19.3765L27.3506 19.2019L27.3797 19.0272L27.3991 18.8525L27.4088 18.6778L27.4185 18.5032V18.3285V18.212V18.0956L27.4088 17.9791L27.3991 17.8627L27.3894 17.7462L27.3797 17.6298L27.3603 17.5133L27.3409 17.3969L27.3215 17.2804L27.2923 17.1737L27.2632 17.0669L27.2341 16.9602L27.205 16.8534L27.1662 16.7467L27.1274 16.6399L27.0886 16.5332L27.0497 16.4264L27.0012 16.3197L26.9527 16.2226L26.9042 16.1256L26.8459 16.0285L26.7877 15.9315L26.7295 15.8344L26.6713 15.7374L26.6033 15.6501L26.5354 15.5627L26.4675 15.4754L26.3995 15.388L26.3219 15.3007L26.2443 15.2134L26.1666 15.1357L26.089 15.0581L26.0017 14.9805L25.9143 14.9028L25.827 14.8349L25.7396 14.767L25.6523 14.699L25.565 14.6408L25.4679 14.5826L25.3709 14.5244L25.2835 14.4661L25.1865 14.4176L25.0895 14.3691L24.9924 14.3206L24.8954 14.2817L24.7983 14.2429L24.7013 14.2041L24.5945 14.175L24.4878 14.1459L24.381 14.1168L24.2743 14.0974L24.1675 14.078L24.0608 14.0585L23.954 14.0488L23.8473 14.0391L23.7405 14.0294L23.6338 14.0197H23.527H23.4203H23.3136L23.2068 14.0294L23.1001 14.0391L22.9933 14.0488L22.8866 14.0585L22.7798 14.078L22.6731 14.0974L22.5663 14.1168L22.4596 14.1459L22.3528 14.175L22.2461 14.2041L22.1393 14.2332L22.0326 14.272L21.9258 14.3109L21.8191 14.3497L21.7123 14.3982L21.6056 14.4467L21.4988 14.4952L21.3921 14.5438L21.2853 14.602L21.1786 14.6602L21.0718 14.7184L20.9748 14.7864L20.8778 14.8543L20.7807 14.9222L20.6837 14.9902L20.5866 15.0678L20.4896 15.1454L20.3925 15.2231L20.2955 15.3007L20.1984 15.388L20.1111 15.4754L20.0238 15.5627L19.9364 15.6598L19.8491 15.7568L19.7617 15.8539L19.6744 15.9509L19.5968 16.0576L19.5191 16.1644L19.4415 16.2711L19.3639 16.3779L19.2959 16.4846L19.228 16.5914L19.1601 16.6981L19.0921 16.8049L19.0339 16.9213L18.9757 17.0378L18.9175 17.1542L18.8592 17.2707L18.8107 17.3872L18.7622 17.5036L18.7137 17.6201L18.6749 17.7365L18.636 17.853L18.5972 17.9694L18.5293 18.0956L18.5002 18.212L18.4711 18.3285L18.442 18.4449L18.4128 18.5614L18.3934 18.6778L18.374 18.7943L18.3546 18.9107L18.3449 19.0272L18.3352 19.1436L18.3255 19.2601L18.3158 19.3765V19.493V19.6095V19.7259V19.8424L18.3255 19.9588L18.3352 20.0753L18.3449 20.1917L18.3546 20.3082L18.374 20.4246L18.3934 20.5411L18.4128 20.6575L18.442 20.774L18.4711 20.8807L18.5002 20.9875L18.5293 21.1233L18.5681 21.2301L18.6069 21.3368L18.6457 21.4436L18.6846 21.5503L18.7331 21.6571L18.7816 21.7541L18.8301 21.8512L18.8884 21.9482L18.9466 22.0453L19.0048 22.1423L19.063 22.2393L19.131 22.3364L19.1989 22.4237L19.2668 22.5111L19.3348 22.5984L19.4124 22.6857L19.49 22.7731L19.5677 22.8507L19.6453 22.9284L19.7326 23.006L19.82 23.0836L19.9073 23.1516L19.9947 23.2195L20.082 23.2874L20.1693 23.3456L20.2664 23.4039L20.3634 23.4621L20.4605 23.5106L20.5575 23.5591L20.6546 23.6077L20.7516 23.6465L20.8486 23.6853L20.9457 23.7241L21.0427 23.7629L21.1495 23.792L21.2562 23.8212L21.363 23.8503L21.4697 23.8697L21.5765 23.8891L21.6832 23.9085L21.79 23.9182L21.8967 23.9279L22.0035 23.9376L22.1102 23.9473H22.217H22.3237H22.4305L22.5372 23.9376L22.6439 23.9279L22.7507 23.9182L22.8574 23.9085L23.0224 23.8794L23.1874 23.8503L23.3427 23.8114L23.4979 23.7629L23.6532 23.7144L23.8085 23.6562L23.9637 23.598L24.119 23.53L24.2743 23.4524L24.4296 23.3748L24.5848 23.2874L24.7401 23.2001L24.8857 23.103L25.0312 22.9963L25.1768 22.8895L25.3224 22.7731L28.0396 25.3253L29.4176 23.6368L26.7004 21.0942ZM25.4679 18.7458L25.4582 18.8816L25.4388 19.0175L25.4194 19.1533L25.3903 19.2892L25.3612 19.4251L25.3224 19.5609L25.2738 19.6968L25.2253 19.8327L25.1671 19.9685L25.1089 20.0947L25.0409 20.2208L24.9633 20.347L24.8857 20.4731L24.7983 20.5896L24.7013 20.706L24.6042 20.8225L24.5072 20.9292L24.4004 21.0263L24.2937 21.1233L24.1869 21.2107L24.0705 21.298L23.954 21.3757L23.8376 21.4436L23.7211 21.5115L23.6047 21.5697L23.4785 21.6183L23.3524 21.6668L23.2262 21.7056L23.1001 21.7347L22.9739 21.7638L22.8477 21.7832L22.7216 21.7929L22.5954 21.8026H22.4693L22.3431 21.7929L22.217 21.7832L22.0908 21.7638L21.9743 21.7347L21.8579 21.7056L21.7414 21.6668L21.625 21.6183L21.5085 21.5697L21.4406 21.5309L21.3339 21.463L21.2271 21.3951L21.1301 21.3174L21.033 21.2301L20.9457 21.1427L20.8583 21.0457L20.7807 20.9487L20.7031 20.8419L20.6351 20.7352L20.5769 20.6187L20.5187 20.5023L20.4702 20.3858L20.4216 20.2596L20.3828 20.1335L20.3537 20.0073L20.3246 19.8812L20.3052 19.755L20.2761 19.6095L20.2664 19.4736V19.3377V19.2019L20.2761 19.066L20.2955 18.9301L20.3149 18.7943L20.344 18.6584L20.3731 18.5226L20.4119 18.3867L20.4605 18.2508L20.509 18.115L20.5672 17.9791L20.6254 17.853L20.6934 17.7268L20.771 17.6006L20.8486 17.4745L20.936 17.358L21.033 17.2416L21.1301 17.1251L21.2271 17.0184L21.3339 16.9213L21.4406 16.8243L21.5474 16.737L21.6638 16.6496L21.7803 16.572L21.8967 16.5041L22.0132 16.4361L22.1296 16.3779L22.2558 16.3294L22.3819 16.2809L22.5081 16.242L22.6342 16.2129L22.7604 16.1838L22.8866 16.1644L23.0127 16.1547L23.1389 16.145H23.265L23.3912 16.1547L23.5173 16.1644L23.6435 16.1838L23.76 16.2129L23.8764 16.242L23.9929 16.2809L24.1093 16.3294L24.2258 16.3779L24.3325 16.4361L24.4393 16.5041L24.546 16.572L24.643 16.6496L24.7401 16.737L24.8371 16.834L24.9245 16.931L25.0021 17.0281L25.0797 17.1348L25.1477 17.2416L25.2059 17.358L25.2641 17.4745L25.3127 17.5909L25.3224 17.6977L25.3612 17.8238L25.3903 17.95L25.4194 18.0762L25.4388 18.2023L25.4582 18.3382L25.4679 18.474V18.6099V18.7458Z" fill="#DD5757"/>
<path d="M29.4177 23.6368L26.7004 21.0942L28.0396 21.8124L30.7569 24.3646L29.4177 23.6368Z" stroke="black" stroke-width="0.0100076" stroke-miterlimit="10"/>
<path d="M28.0397 25.3252L29.3789 26.053L26.6617 23.5008L25.3225 22.7729L28.0397 25.3252Z" fill="#DD5757"/>
<path d="M28.0397 25.3252L29.4177 23.6366L30.7569 24.3644L29.3789 26.053L28.0397 25.3252Z" fill="#DD5757"/>
<path d="M28.0397 21.8125L28.1271 21.6475L28.2047 21.4825L28.2823 21.3175L28.3503 21.1429L28.4182 20.9682L28.4764 20.7935L28.5347 20.6188L28.5832 20.4442L28.622 20.2695L28.6608 20.0948L28.6899 19.9201L28.719 19.7454L28.7385 19.5708L28.7482 19.3961L28.7579 19.2214V19.0467V18.9303V18.8138L28.7482 18.6974L28.7385 18.5809L28.7287 18.4645L28.7093 18.348L28.6899 18.2316L28.6705 18.1151L28.6511 17.9986L28.622 17.8919L28.5929 17.7852L28.5638 17.6784L28.5347 17.5717L28.4958 17.4649L28.457 17.3582L28.4182 17.2514L28.3794 17.1447L28.3309 17.0379L28.2823 16.9409L28.2338 16.8438L28.1756 16.7468L28.1174 16.6497L28.0591 16.5527L28.0009 16.4557L27.933 16.3683L27.8651 16.281L27.7971 16.1936L27.7292 16.1063L27.6516 16.019L27.5739 15.9316L27.4963 15.854L27.4187 15.7763L27.3313 15.6987L27.244 15.6211L27.1566 15.5531L27.0693 15.4852L26.982 15.4173L26.8946 15.3591L26.7976 15.3008L26.7005 15.2426L26.6035 15.1941L26.5064 15.1456L26.4094 15.097L26.3124 15.0485L26.2153 15.0097L26.1183 14.9709L26.0212 14.9321L25.9145 14.903L25.8077 14.8738L25.7107 14.8544L25.6039 14.835L25.4972 14.8156L25.3904 14.7962L25.2837 14.7865L25.1769 14.7768L25.0702 14.7671L24.9634 14.7574H24.8567H24.75H24.6432L24.5365 14.7671L24.4297 14.7768L24.323 14.7865L24.2162 14.7962L24.1095 14.8156L24.0027 14.835L23.896 14.8544L23.7892 14.8835L23.6825 14.9127L23.5757 14.9418L23.469 14.9709L23.3622 15.0097L23.2555 15.0485L23.1487 15.0873L23.042 15.1359L22.9352 15.1844L22.8285 15.2329L22.7217 15.2814L22.615 15.3396L22.5082 15.3979L22.4015 15.4561L22.3044 15.524L22.2074 15.592L22.1104 15.6599L22.0133 15.7278L21.9163 15.8055L21.8192 15.8831L21.7222 15.9607L21.6251 16.0384L21.5281 16.1257L21.4408 16.213L21.3534 16.3004L21.2661 16.3974L21.1787 16.4945L21.0914 16.5915L21.0041 16.6886L20.9264 16.7953L20.8488 16.9021L20.7712 17.0088L20.6935 17.1155L20.6256 17.2223L20.5577 17.329L20.4897 17.4358L20.4218 17.5425L20.3636 17.659L20.3053 17.7754L20.2471 17.8919L20.1889 18.0084L20.1404 18.1248L20.0918 18.2413L20.0239 18.348L19.9851 18.4645L19.9463 18.5809L19.9075 18.6974L19.8686 18.8138L19.8395 18.9303L19.8104 19.0467L19.7813 19.1632L19.7522 19.2796L19.7328 19.3961L19.7134 19.5125L19.694 19.629L19.6843 19.7454L19.6746 19.8619L19.6649 19.9783L19.6552 20.0948V20.2112V20.3277V20.4442V20.5606L19.6649 20.6771L19.6746 20.7935L19.6843 20.91L19.694 21.0264L19.7134 21.1429L19.7328 21.2593L19.7522 21.3758L19.7813 21.4922L19.8104 21.599L19.8395 21.7057L19.8686 21.8125L19.9075 21.9192L19.9463 22.026L19.9851 22.1327L20.0239 22.2395L20.0724 22.3462L20.121 22.4433L20.1695 22.5403L20.2277 22.6373L20.2859 22.7344L20.3442 22.8314L20.4024 22.9285L20.4703 23.0255L20.5382 23.1129L20.6062 23.2002L20.6741 23.2875L20.7517 23.3749L20.8294 23.4622L20.907 23.5399L20.9847 23.6175L21.072 23.6951L21.1593 23.7728L21.2467 23.8407L21.334 23.9086L21.4213 23.9765L21.5087 24.0348L21.6057 24.093L21.7028 24.1512L21.7998 24.1997L21.8969 24.2483L21.9939 24.2968L22.091 24.3356L22.188 24.3744L22.285 24.4132L22.3821 24.4521L22.4888 24.4812L22.5956 24.5103L22.7023 24.5394L22.8091 24.5588L22.9158 24.5782L23.0226 24.5976L23.1293 24.6073L23.2361 24.617L23.3428 24.6267L23.4496 24.6364H23.5563H23.6631H23.7698L23.8766 24.6267L23.9833 24.617L24.0901 24.6073L24.1968 24.5976L24.3618 24.5685L24.5268 24.5394L24.682 24.5006L24.8373 24.4521L24.9926 24.4035L25.1478 24.3453L25.3031 24.2871L25.4584 24.2192L25.6136 24.1415L25.7689 24.0639L25.9242 23.9765L26.0697 23.8892L26.2153 23.7922L26.3609 23.6854L26.5064 23.5787L26.652 23.4622L29.3692 26.0145L30.7473 24.3259L28.0397 21.8125ZM26.8073 19.464L26.7976 19.5999L26.7782 19.7357L26.7588 19.8716L26.7296 20.0075L26.7005 20.1433L26.6617 20.2792L26.6132 20.415L26.5647 20.5509L26.5064 20.6868L26.4482 20.8129L26.3803 20.9391L26.3027 21.0652L26.225 21.1914L26.1377 21.3078L26.0406 21.4243L25.9436 21.5407L25.8465 21.6475L25.7398 21.7445L25.633 21.8416L25.5263 21.9289L25.4098 22.0163L25.2934 22.0939L25.1769 22.1618L25.0702 22.2298L24.9537 22.288L24.8276 22.3365L24.7014 22.385L24.5753 22.4238L24.4491 22.453L24.323 22.4821L24.1968 22.5015L24.0706 22.5112L23.9445 22.5209H23.8183L23.6922 22.5112L23.566 22.5015L23.4399 22.4821L23.3234 22.453L23.207 22.4238L23.0905 22.385L22.974 22.3365L22.8576 22.288L22.7508 22.2298L22.6441 22.1618L22.5374 22.0939L22.4403 22.0163L22.3433 21.9289L22.2559 21.8416L22.1686 21.7445L22.091 21.6475L22.0133 21.5407L21.9454 21.434L21.8872 21.3175L21.8289 21.2011L21.7804 21.0846L21.7319 20.9585L21.6931 20.8323L21.664 20.7062L21.6348 20.58L21.6154 20.4539L21.596 20.318L21.5863 20.1821V20.0463V19.9104L21.596 19.7745L21.6154 19.6387L21.6348 19.5028L21.664 19.367L21.6931 19.2311L21.7319 19.0952L21.7804 18.9594L21.8289 18.8235L21.8872 18.6877L21.9454 18.5615L22.0133 18.4353L22.091 18.3092L22.1686 18.183L22.2559 18.0666L22.353 17.9501L22.45 17.8337L22.5471 17.7269L22.6538 17.6299L22.7606 17.5328L22.8673 17.4455L22.9935 17.3776L23.1099 17.2999L23.2264 17.232L23.3428 17.1641L23.4593 17.1058L23.5854 17.0573L23.7116 17.0088L23.8377 16.97L23.9639 16.9409L24.0901 16.9118L24.2162 16.8923L24.3424 16.8826L24.4685 16.8729H24.5947L24.7208 16.8826L24.847 16.8923L24.9732 16.9118L25.0896 16.9409L25.2061 16.97L25.3225 17.0088L25.439 17.0573L25.5554 17.1058L25.6622 17.1641L25.7689 17.232L25.8757 17.2999L25.9727 17.3776L26.0697 17.4649L26.1668 17.562L26.2541 17.659L26.3318 17.756L26.4094 17.8628L26.4773 17.9695L26.5356 18.086L26.5938 18.2024L26.6423 18.3189L26.6908 18.4451L26.7296 18.5712L26.7588 18.6974L26.7879 18.8235L26.8073 18.9497L26.8267 19.0855L26.8364 19.2214V19.3573L26.8073 19.464Z" fill="#FF7171"/>
</g>
<defs>
<clipPath id="clip0_751_1622">
<rect width="32.0245" height="32.0245" fill="white" transform="translate(0.0911865 0.879913)"/>
</clipPath>
</defs>
</svg>
