<svg width="34" height="34" viewBox="0 0 34 34" fill="none" xmlns="http://www.w3.org/2000/svg">
<g clip-path="url(#clip0_751_2047)">
<path d="M32.2985 7.57147L32.2885 7.44147L32.2685 7.31147L32.2485 7.18147L32.2185 7.05147L32.1885 6.93147L32.1485 6.80147L32.1085 6.68147L32.0585 6.56147L32.0085 6.45147L31.9485 6.34147L31.8885 6.23147L31.8185 6.13147L31.7485 6.03147L31.6685 5.94147L31.5885 5.85147L31.4985 5.76147L31.4085 5.68147L31.3185 5.60147L31.2185 5.53147L31.1185 5.46147L31.0185 5.40147L30.9085 5.34147L30.7985 5.29147L30.6885 5.25147L30.5785 5.21147L30.4585 5.20147L30.3385 5.17147L30.2185 5.15147H30.2085H30.1885H30.1785H30.1685H30.1585H30.1385H30.1285H30.1185H30.1085H30.0885H30.0785H30.0585H30.0485H30.0385H30.0285H30.0085H29.9985H29.9885H29.9785H29.9685H29.9585H29.9385H29.9285H29.9185H29.9085H29.8885H29.8785H29.8585H29.8485H29.8285H29.8185H29.7985H29.7885H29.7785H29.7685H29.7485H29.7385H29.7185H29.7085H29.6985H29.6885H29.6685H29.6585H29.6485H29.6385H29.6285H29.6185H29.5985H29.5885H29.5685H29.5585H29.5385H29.5285H29.5085H29.4985H29.4785H29.4685H29.4485H29.4385H29.4285H29.4185H29.4085H29.3985H29.3885H29.3785H29.3585H29.3485H29.3285H29.3185H29.3085H29.2985H29.2785H29.2685H29.2485H29.2385H29.2185H29.2085H29.1885H29.1785H29.1585H29.1485H29.1285H29.1185H29.0985H29.0885H29.0785H29.0685H29.0485H29.0385H29.0285H29.0185H28.9985H28.9885H28.9785H28.9685H28.9585H28.9485H28.9285H28.9185H28.8985H28.8885H28.8685H28.8585H28.8385H28.8285H28.8085H28.7985H28.7885H28.7785H28.7685H28.7585H28.7385H28.7285H28.7185H28.7085H28.6885H28.6785H28.6585H28.6485H28.6385H28.6285H28.6085H28.5985H28.5785H28.5685H28.5485H28.5385H28.5185H28.5085H28.4985H28.4885H28.4685H28.4585H28.4485H28.4385H28.4185H28.4085H28.3885H28.3785H28.3685H28.3585H28.3385H28.3285H28.3185H28.3085H28.2985H28.2885H28.2685H28.2585H28.2385H28.2285H28.2185H28.2085H28.1885H28.1785H28.1685H28.1585H28.1385H28.1285H28.1185H28.1085H28.0885H28.0785H28.0585H28.0485H28.0385H28.0285H28.0085H27.9985H27.9885H27.9785H27.9685H27.9585H27.9485H27.9385H27.9285H27.9185H27.8985H27.8885H27.8785H27.8685H27.8485H27.8385H27.8185H27.8085H27.7985H27.7885H27.7685H27.7585H27.7485H27.7385H27.7185H27.7085H27.6885H27.6785H27.6685H27.6585H27.6485H27.6385H27.6285H27.6185H27.5985L27.6285 4.80147H27.5085L9.2985 4.47147H9.1385L8.9885 4.48147L8.8385 4.51147L8.6985 4.54147L8.5585 4.58147L8.4285 4.64147L8.2885 4.70147L8.1685 4.77147L8.0485 4.85147L7.9285 4.93147L7.8185 5.03147L7.7085 5.13147L7.6085 5.24147L7.5085 5.36147L7.4085 5.48147L7.3185 5.60147L0.338501 16.2915L6.4985 27.2015L6.5785 27.3315L6.6685 27.4615L6.7585 27.5815L6.8585 27.6915L6.9685 27.8015L7.0785 27.9015L7.1885 28.0015L7.3085 28.0815L7.4385 28.1615L7.5685 28.2315L7.7085 28.2915L7.8485 28.3415L7.9985 28.3815L8.1485 28.4115H8.1685H8.1885H8.2085H8.2285H8.2485H8.2685H8.2885H8.3085H8.3285H8.3485H8.3685H8.3885H8.4085H8.4285H8.4485H8.4685H8.4885H8.5085H8.5285H8.5485H8.5685H8.5885H8.6085H8.6285H8.6485H8.6685H8.6885H8.7085H8.7285H8.7485H8.7685H8.7885H8.8085H8.8285H8.8485H8.8685H8.8885H8.9085H8.9285H8.9485H8.9685H8.9885H9.0085H9.0285H9.0485H9.0685H9.0885H9.1085H9.1285H9.1485H9.1685H9.1885H9.2085H9.2285H9.2485H9.2685H9.2885H9.3085H9.3285H9.3485H9.3685H9.3885H9.4085H9.4285H9.4485H9.4685H9.4885H9.5085H9.5285H9.5485H9.5685H9.5885H9.6085H9.6285H9.6485H9.6685H9.6885H9.7085H9.7285H9.7485H9.7685H9.7885H9.8085H9.8285H9.8485H9.8685H9.8885H9.9085H9.9285H9.9485H9.9685H9.9885H10.0085H10.0285H10.0485H10.0685H10.0885H10.1085H10.1285H10.1485H10.1685L10.3185 28.4315L10.4785 28.4415L28.6085 28.7715H28.7285L28.8485 28.7615L28.9685 28.7515L29.0885 28.7315L29.2085 28.7015L29.3285 28.6715L29.4385 28.6315L29.5485 28.5815L29.6585 28.5315L30.2285 28.7915L30.3285 28.7315L30.4285 28.6615L30.5285 28.5915L30.6185 28.5115L30.7085 28.4315L30.7985 28.3415L30.8785 28.2515L30.9585 28.1515L31.0385 28.0515L31.1085 27.9515L31.1785 27.8415L31.2385 27.7315L31.2985 27.6215L31.3485 27.5015L31.3985 27.3815L31.4385 27.2615L31.4785 27.1315L31.5085 27.0015L31.5385 26.8715L31.5585 26.7415L31.5685 26.6115L31.5785 26.4715L32.2885 7.84147V7.70147L32.2985 7.57147ZM26.6885 26.0915L10.8585 25.8015L5.7085 16.6815L11.7285 7.47147L27.3885 7.75147L26.6885 26.0915Z" fill="#383838"/>
<path d="M8.22864 16.3914V16.4414V16.4914V16.5414V16.5914V16.6414V16.6914L8.23864 16.7414V16.7914L8.24864 16.8414L8.25864 16.8914L8.26864 16.9414L8.27864 16.9814L8.28864 17.0314L8.29864 17.0814L8.30864 17.1214L8.32864 17.1714L8.33864 17.2214L8.35864 17.2614L8.37864 17.3014L8.38864 17.3514L8.40864 17.3914L8.42864 17.4314L8.44864 17.4814L8.47864 17.5214L8.49864 17.5614L8.51864 17.6014L8.54864 17.6414L8.56864 17.6814L8.59864 17.7114L8.61864 17.7514L8.64864 17.7914L8.67864 17.8214L8.70864 17.8614L8.73864 17.8914L8.76864 17.9214L8.79864 17.9614L8.82864 17.9914L8.86864 18.0214L8.89864 18.0514L8.93864 18.0814L8.96864 18.1114L9.00864 18.1314L9.03864 18.1614L9.07864 18.1914L9.11864 18.2114L9.15864 18.2314L9.18864 18.2614L9.22864 18.2814L9.26864 18.3014L9.30864 18.3214L9.34864 18.3314L9.39864 18.3514L9.43864 18.3714L9.47864 18.3814L9.51864 18.4014L9.56864 18.4114L9.60864 18.4214L9.64864 18.4314L9.69864 18.4414L9.73864 18.4514H9.78864L9.83864 18.4614H9.87864L9.92864 18.4714H9.96864H10.0186H10.0686L10.1086 18.4614H10.1586H10.2086L10.2486 18.4514L10.2986 18.4414L10.3386 18.4314L10.3886 18.4214L10.4286 18.4114L10.4786 18.4014L10.5186 18.3914L10.5586 18.3714L10.5986 18.3614L10.6486 18.3414L10.6886 18.3214L10.7286 18.3014L10.7686 18.2814L10.8086 18.2614L10.8486 18.2414L10.8886 18.2214L10.9286 18.1914L10.9686 18.1714L11.0086 18.1414L11.0386 18.1214L11.0786 18.0914L11.1086 18.0614L11.1486 18.0314L11.1786 18.0014L11.2186 17.9714L11.2486 17.9414L11.2786 17.9014L11.3186 17.8714L11.3486 17.8414L11.3786 17.8014L11.4086 17.7614L11.4386 17.7314L11.4686 17.6914L11.4886 17.6514L11.5186 17.6114L11.5386 17.5714L11.5686 17.5314L11.5886 17.4914L11.6186 17.4514L11.6386 17.4114L11.6586 17.3614L11.6786 17.3214L11.6986 17.2814L11.7186 17.2314L11.7386 17.1914L11.7486 17.1414L11.7686 17.0914L11.7786 17.0514L11.7986 17.0014L11.8086 16.9514L11.8186 16.9014L11.8286 16.8514L11.8386 16.8114L11.8486 16.7614L11.8586 16.7114V16.6614L11.8686 16.6014V16.5514V16.5014L11.8786 16.4514V16.4014L11.8686 16.3514V16.3014V16.2514L11.8586 16.2014V16.1514L11.8486 16.1014L11.8386 16.0514V16.0014L11.8286 15.9614L11.8086 15.9114L11.7986 15.8614L11.7886 15.8214L11.7786 15.7714L11.7586 15.7214L11.7386 15.6814L11.7286 15.6314L11.7086 15.5914L11.6886 15.5514L11.6686 15.5114L11.6486 15.4614L11.6286 15.4214L11.5986 15.3814L11.5786 15.3414L11.5586 15.3014L11.5286 15.2614L11.5086 15.2314L11.4786 15.1914L11.4486 15.1514L11.4186 15.1214L11.3886 15.0814L11.3586 15.0514L11.3286 15.0114L11.2986 14.9814L11.2686 14.9514L11.2386 14.9214L11.1986 14.8914L11.1686 14.8614L11.1286 14.8314L11.0986 14.8014L11.0586 14.7814L11.0186 14.7514L10.9886 14.7314L10.9486 14.7114L10.9086 14.6814L10.8686 14.6614L10.8286 14.6414L10.7886 14.6214L10.7486 14.6014L10.7086 14.5914L10.6586 14.5714L10.6186 14.5614L10.5786 14.5414L10.5386 14.5314L10.4886 14.5214L10.4486 14.5114L10.3986 14.5014L10.3586 14.4914L10.3086 14.4814H10.2686H10.2186L10.1686 14.4714H10.1286H10.0786H10.0286H9.98864L9.93864 14.4814H9.89864L9.84864 14.4914L9.80864 14.5014L9.75864 14.5114L9.71864 14.5214L9.66864 14.5314L9.62864 14.5414L9.57864 14.5514L9.53864 14.5714L9.49864 14.5814L9.45864 14.6014L9.40864 14.6214L9.36864 14.6314L9.32864 14.6514L9.28864 14.6814L9.24864 14.7014L9.20864 14.7214L9.16864 14.7414L9.13864 14.7714L9.09864 14.8014L9.05864 14.8214L9.01864 14.8514L8.98864 14.8814L8.94864 14.9114L8.91864 14.9414L8.87864 14.9714L8.84864 15.0014L8.81864 15.0314L8.78864 15.0714L8.74864 15.1014L8.71864 15.1414L8.68864 15.1714L8.66864 15.2114L8.63864 15.2514L8.60864 15.2914L8.57864 15.3314L8.55864 15.3714L8.52864 15.4114L8.50864 15.4514L8.48864 15.4914L8.45864 15.5314L8.43864 15.5814L8.41864 15.6214L8.39864 15.6614L8.37864 15.7114L8.36864 15.7514L8.34864 15.8014L8.32864 15.8514L8.31864 15.8914L8.30864 15.9414L8.28864 15.9914L8.27864 16.0414L8.26864 16.0814L8.25864 16.1314L8.24864 16.1814V16.2314L8.23864 16.2814L8.22864 16.3314V16.3914Z" fill="#FF7171"/>
<path d="M29.8787 7.80141L27.4087 7.46141L9.26866 7.13141L3.24866 16.3514L8.55866 25.7714L11.0287 26.1014L5.71866 16.6914L11.7387 7.47141L29.8787 7.80141Z" fill="#383838"/>
<path d="M10.448 14.5114L10.398 14.5014L10.3581 14.4914L10.3081 14.4814H10.2681H10.2181L10.1682 14.4714H10.1282L10.508 14.5214H10.488L10.448 14.5114Z" fill="#DD5757"/>
<path d="M14.3386 16.6917V16.6417V16.5917L14.3286 16.5417V16.4917L14.3186 16.4417L14.3086 16.3917L14.2986 16.3417L14.2886 16.2917L14.2786 16.2517L14.2686 16.2017L14.2586 16.1517L14.2386 16.1117L14.2286 16.0617L14.2086 16.0217L14.1986 15.9717L14.1786 15.9317L14.1586 15.8917L14.1386 15.8417L14.1186 15.8017L14.0986 15.7617L14.0686 15.7217L14.0486 15.6817L14.0186 15.6417L13.9986 15.6017L13.9686 15.5617L13.9486 15.5317L13.9186 15.4917L13.8886 15.4517L13.8586 15.4217L13.8286 15.3917L13.7986 15.3517L13.7686 15.3217L13.7386 15.2917L13.6986 15.2617L13.6686 15.2317L13.6386 15.2017L13.5986 15.1717L13.5586 15.1417L13.5286 15.1217L13.4886 15.0917L13.4486 15.0717L13.4186 15.0417L13.3786 15.0217L13.3386 15.0017L13.2986 14.9817L13.2586 14.9617L13.2186 14.9417L13.1786 14.9317L13.1286 14.9117L13.0886 14.8917L13.0486 14.8817L12.9986 14.8717L12.9586 14.8617L12.9186 14.8517L12.8686 14.8417L12.8286 14.8317L12.7786 14.8217H12.7386L12.6886 14.8117H12.6386H12.5986L10.5086 14.5217L10.5386 14.5317L10.5786 14.5417L10.6186 14.5617L10.6586 14.5717L10.7086 14.5917L10.7486 14.6017L10.7886 14.6217L10.8286 14.6417L10.8686 14.6617L10.9086 14.6817L10.9486 14.7117L10.9886 14.7317L11.0186 14.7517L11.0586 14.7817L11.0986 14.8017L11.1286 14.8317L11.1686 14.8617L11.1986 14.8917L11.2386 14.9217L11.2686 14.9517L11.2986 14.9817L11.3286 15.0117L11.3586 15.0517L11.3886 15.0817L11.4186 15.1217L11.4486 15.1517L11.4786 15.1917L11.5086 15.2317L11.5286 15.2617L11.5586 15.3017L11.5786 15.3417L11.5986 15.3817L11.6286 15.4217L11.6486 15.4617L11.6686 15.5117L11.6886 15.5517L11.7086 15.5917L11.7286 15.6317L11.7386 15.6817L11.7586 15.7217L11.7786 15.7717L11.7886 15.8217L11.7986 15.8617L11.8086 15.9117L11.8286 15.9617L11.8386 16.0017V16.0517L11.8486 16.1017L11.8586 16.1517V16.2017L11.8686 16.2517V16.3017V16.3517L11.8786 16.4017V16.4517L11.8686 16.5017V16.5517V16.6017L11.8586 16.6617V16.7117L11.8486 16.7617L11.8386 16.8117L11.8286 16.8517L11.8186 16.9017L11.8086 16.9517L11.7986 17.0017L11.7786 17.0517L11.7686 17.0917L11.7486 17.1417L11.7386 17.1917L11.7186 17.2317L11.6986 17.2817L11.6786 17.3217L11.6586 17.3617L11.6386 17.4117L11.6186 17.4517L11.5886 17.4917L11.5686 17.5317L11.5386 17.5717L11.5186 17.6117L11.4886 17.6517L11.4686 17.6917L11.4386 17.7317L11.4086 17.7617L11.3786 17.8017L11.3486 17.8417L11.3186 17.8717L11.2786 17.9017L11.2486 17.9417L11.2186 17.9717L11.1786 18.0017L11.1486 18.0317L11.1086 18.0617L11.0786 18.0917L11.0386 18.1217L11.0086 18.1417L10.9686 18.1717L10.9286 18.1917L10.8886 18.2217L10.8486 18.2417L10.8086 18.2617L10.7686 18.2817L10.7286 18.3017L10.6886 18.3217L10.6486 18.3417L10.5986 18.3617L10.5586 18.3717L10.5186 18.3917L10.4786 18.4017L10.4286 18.4117L10.3886 18.4217L10.3386 18.4317L10.2986 18.4417L10.2486 18.4517L10.2086 18.4617H10.1586H10.1086L10.0686 18.4717H10.0186H9.96859H9.92859L12.3986 18.8017L12.4386 18.8117H12.4886H12.5386L12.5786 18.8017H12.6286L12.6686 18.7917H12.7186L12.7686 18.7817L12.8086 18.7717L12.8586 18.7617L12.8986 18.7517L12.9386 18.7417L12.9886 18.7317L13.0286 18.7117L13.0686 18.7017L13.1186 18.6817L13.1586 18.6617L13.1986 18.6417L13.2386 18.6217L13.2786 18.6017L13.3186 18.5817L13.3586 18.5617L13.3986 18.5317L13.4386 18.5117L13.4686 18.4817L13.5086 18.4617L13.5486 18.4317L13.5786 18.4017L13.6186 18.3717L13.6486 18.3417L13.6886 18.3117L13.7186 18.2817L13.7486 18.2417L13.7786 18.2117L13.8186 18.1717L13.8486 18.1417L13.8786 18.1017L13.9086 18.0717L13.9286 18.0317L13.9586 17.9917L13.9886 17.9517L14.0086 17.9117L14.0386 17.8717L14.0586 17.8317L14.0886 17.7917L14.1086 17.7517L14.1286 17.7017L14.1486 17.6617L14.1686 17.6117L14.1886 17.5717L14.2086 17.5217L14.2186 17.4817L14.2386 17.4317L14.2486 17.3917L14.2686 17.3417L14.2786 17.2917L14.2886 17.2417L14.2986 17.1917L14.3086 17.1417L14.3186 17.0917L14.3286 17.0417V16.9917L14.3386 16.9417V16.8917V16.8417V16.7917V16.7417V16.6917Z" fill="#DD5757"/>
<path d="M16.4676 14.6118L16.4275 14.6018L16.3775 14.5917H16.3374H16.2874L16.2473 14.5817L16.5377 14.6218H16.5176L16.4676 14.6118Z" fill="#DD5757"/>
<path d="M20.4084 16.8012V16.7512V16.7012L20.3984 16.6512V16.6012L20.3884 16.5512L20.3784 16.5012L20.3684 16.4512L20.3584 16.4012L20.3484 16.3612L20.3384 16.3112L20.3284 16.2612L20.3084 16.2212L20.2984 16.1712L20.2784 16.1312L20.2684 16.0812L20.2484 16.0412L20.2284 16.0012L20.2084 15.9512L20.1884 15.9112L20.1684 15.8712L20.1384 15.8312L20.1184 15.7912L20.0984 15.7512L20.0684 15.7112L20.0384 15.6712L20.0184 15.6412L19.9884 15.6012L19.9584 15.5612L19.9284 15.5312L19.8984 15.5012L19.8684 15.4612L19.8384 15.4312L19.8084 15.4012L19.7684 15.3712L19.7384 15.3412L19.7084 15.3112L19.6684 15.2812L19.6384 15.2512L19.5984 15.2312L19.5584 15.2012L19.5184 15.1812L19.4884 15.1512L19.4484 15.1312L19.4084 15.1112L19.3684 15.0912L19.3284 15.0712L19.2884 15.0512L19.2484 15.0412L19.1984 15.0212L19.1584 15.0012L19.1184 14.9912L19.0784 14.9812L19.0284 14.9712L18.9884 14.9612L18.9384 14.9512L18.8984 14.9412L18.8484 14.9312H18.8084L18.7584 14.9212H18.7084L16.5384 14.6212L16.5584 14.6312L16.6084 14.6412L16.6484 14.6512L16.6884 14.6712L16.7384 14.6812L16.7784 14.7012L16.8184 14.7112L16.8584 14.7312L16.8984 14.7512L16.9384 14.7712L16.9784 14.7912L17.0184 14.8212L17.0584 14.8412L17.0884 14.8612L17.1284 14.8912L17.1684 14.9112L17.1984 14.9412L17.2384 14.9712L17.2684 15.0012L17.3084 15.0312L17.3384 15.0612L17.3684 15.0912L17.3984 15.1212L17.4284 15.1612L17.4584 15.1912L17.4884 15.2312L17.5184 15.2612L17.5484 15.3012L17.5784 15.3412L17.5984 15.3712L17.6284 15.4112L17.6484 15.4512L17.6784 15.4912L17.6984 15.5312L17.7184 15.5712L17.7384 15.6112L17.7584 15.6612L17.7784 15.7012L17.7984 15.7412L17.8084 15.7912L17.8284 15.8312L17.8484 15.8812L17.8584 15.9212L17.8684 15.9712L17.8884 16.0212L17.8984 16.0712L17.9084 16.1112L17.9184 16.1612V16.2112L17.9284 16.2612L17.9384 16.3112V16.3612V16.4112L17.9484 16.4612V16.5112V16.5612V16.6112L17.9384 16.6612V16.7112L17.9284 16.7712V16.8212L17.9184 16.8712L17.9084 16.9112L17.8984 16.9612L17.8884 17.0112L17.8784 17.0612L17.8684 17.1112L17.8484 17.1612L17.8384 17.2012L17.8184 17.2512L17.8084 17.3012L17.7884 17.3412L17.7684 17.3912L17.7484 17.4312L17.7284 17.4712L17.7084 17.5212L17.6884 17.5612L17.6584 17.6012L17.6384 17.6412L17.6184 17.6812L17.5884 17.7212L17.5584 17.7612L17.5384 17.8012L17.5084 17.8412L17.4784 17.8712L17.4484 17.9112L17.4184 17.9512L17.3884 17.9812L17.3584 18.0112L17.3184 18.0512L17.2884 18.0812L17.2584 18.1112L17.2184 18.1412L17.1884 18.1712L17.1484 18.2012L17.1084 18.2312L17.0784 18.2512L17.0384 18.2812L16.9984 18.3012L16.9584 18.3312L16.9184 18.3512L16.8784 18.3712L16.8384 18.3912L16.7984 18.4112L16.7584 18.4312L16.7184 18.4512L16.6784 18.4712L16.6284 18.4812L16.5884 18.5012L16.5484 18.5112L16.4984 18.5212L16.4584 18.5312L16.4084 18.5412L16.3684 18.5512L16.3184 18.5612L16.2784 18.5712H16.2284H16.1884L16.1384 18.5812H16.0884H16.0484H15.9984L18.4684 18.9112L18.5084 18.9212H18.5584L18.6084 18.9112H18.6484H18.6984L18.7484 18.9012H18.7884L18.8384 18.8912L18.8784 18.8812L18.9284 18.8712L18.9684 18.8612L19.0084 18.8512L19.0584 18.8412L19.0984 18.8212L19.1384 18.8112L19.1884 18.7912L19.2284 18.7712L19.2684 18.7512L19.3084 18.7312L19.3484 18.7112L19.3884 18.6912L19.4284 18.6712L19.4684 18.6412L19.5084 18.6212L19.5384 18.5912L19.5784 18.5612L19.6184 18.5412L19.6484 18.5112L19.6884 18.4812L19.7184 18.4512L19.7584 18.4212L19.7884 18.3912L19.8184 18.3512L19.8584 18.3212L19.8884 18.2812L19.9184 18.2512L19.9484 18.2112L19.9784 18.1812L19.9984 18.1412L20.0284 18.1012L20.0584 18.0612L20.0784 18.0212L20.1084 17.9812L20.1284 17.9412L20.1584 17.9012L20.1784 17.8512L20.1984 17.8112L20.2184 17.7712L20.2384 17.7212L20.2584 17.6812L20.2784 17.6312L20.2884 17.5912L20.3084 17.5412L20.3184 17.4912L20.3384 17.4512L20.3484 17.4012L20.3584 17.3512L20.3684 17.3012L20.3784 17.2512L20.3884 17.2012L20.3984 17.1512V17.1012L20.4084 17.0512V17.0012V16.9512V16.9012L20.4184 16.8512L20.4084 16.8012Z" fill="#DD5757"/>
<path d="M15.9983 18.5817H16.0483H16.0883H16.1383L16.1883 18.5717H16.2283H16.2783L16.3183 18.5617L16.3683 18.5517L16.4083 18.5417L16.4583 18.5317L16.4983 18.5217L16.5483 18.5117L16.5883 18.5017L16.6283 18.4817L16.6783 18.4717L16.7183 18.4517L16.7583 18.4317L16.7983 18.4117L16.8383 18.3917L16.8783 18.3717L16.9183 18.3517L16.9583 18.3317L16.9983 18.3017L17.0383 18.2817L17.0783 18.2517L17.1083 18.2317L17.1483 18.2017L17.1883 18.1717L17.2183 18.1417L17.2583 18.1117L17.2883 18.0817L17.3183 18.0517L17.3583 18.0117L17.3883 17.9817L17.4183 17.9517L17.4483 17.9117L17.4783 17.8717L17.5083 17.8417L17.5383 17.8017L17.5583 17.7617L17.5883 17.7217L17.6183 17.6817L17.6383 17.6417L17.6583 17.6017L17.6883 17.5617L17.7083 17.5217L17.7283 17.4717L17.7483 17.4317L17.7683 17.3917L17.7883 17.3417L17.8083 17.3017L17.8183 17.2517L17.8383 17.2017L17.8483 17.1617L17.8683 17.1117L17.8783 17.0617L17.8883 17.0117L17.8983 16.9617L17.9083 16.9117L17.9183 16.8717L17.9283 16.8217V16.7717L17.9383 16.7117V16.6617L17.9483 16.6117V16.5617V16.5117V16.4617L17.9383 16.4117V16.3617V16.3117L17.9283 16.2617L17.9183 16.2117V16.1617L17.9083 16.1117L17.8983 16.0717L17.8883 16.0217L17.8683 15.9717L17.8583 15.9217L17.8483 15.8817L17.8283 15.8317L17.8083 15.7917L17.7983 15.7417L17.7783 15.7017L17.7583 15.6617L17.7383 15.6117L17.7183 15.5717L17.6983 15.5317L17.6783 15.4917L17.6483 15.4517L17.6283 15.4117L17.5983 15.3717L17.5783 15.3417L17.5483 15.3017L17.5183 15.2617L17.4883 15.2317L17.4583 15.1917L17.4283 15.1617L17.3983 15.1217L17.3683 15.0917L17.3383 15.0617L17.3083 15.0317L17.2683 15.0017L17.2383 14.9717L17.1983 14.9417L17.1683 14.9117L17.1283 14.8917L17.0883 14.8617L17.0583 14.8417L17.0183 14.8217L16.9783 14.7917L16.9383 14.7717L16.8983 14.7517L16.8583 14.7317L16.8183 14.7117L16.7783 14.7017L16.7383 14.6817L16.6883 14.6717L16.6483 14.6517L16.6083 14.6417L16.5583 14.6317L16.5183 14.6217L16.4683 14.6117L16.4283 14.6017L16.3783 14.5917H16.3383H16.2883L16.2483 14.5817H16.1983H16.1483H16.1083H16.0583L16.0083 14.5917H15.9683L15.9183 14.6017L15.8783 14.6117H15.8283L15.7883 14.6217L15.7383 14.6417L15.6983 14.6517L15.6483 14.6617L15.6083 14.6817L15.5683 14.6917L15.5283 14.7117L15.4883 14.7317L15.4383 14.7417L15.3983 14.7617L15.3583 14.7917L15.3183 14.8117L15.2783 14.8317L15.2383 14.8517L15.2083 14.8817L15.1683 14.9017L15.1283 14.9317L15.0883 14.9617L15.0583 14.9917L15.0183 15.0217L14.9883 15.0517L14.9483 15.0817L14.9183 15.1117L14.8883 15.1417L14.8583 15.1817L14.8283 15.2117L14.7983 15.2517L14.7683 15.2817L14.7383 15.3217L14.7083 15.3617L14.6783 15.4017L14.6483 15.4417L14.6283 15.4817L14.5983 15.5217L14.5783 15.5617L14.5583 15.6017L14.5283 15.6417L14.5083 15.6917L14.4883 15.7317L14.4683 15.7717L14.4483 15.8217L14.4383 15.8617L14.4183 15.9117L14.3983 15.9617L14.3883 16.0017L14.3783 16.0517L14.3583 16.1017L14.3483 16.1517L14.3383 16.1917L14.3283 16.2417L14.3183 16.2917V16.3417L14.3083 16.3917V16.4417L14.2983 16.4917V16.5517V16.6017V16.6517V16.7017V16.7517V16.8017L14.3083 16.8517V16.9017L14.3183 16.9517L14.3283 17.0017L14.3383 17.0517L14.3483 17.0917L14.3583 17.1417L14.3683 17.1917L14.3783 17.2317L14.3983 17.2817L14.4083 17.3217L14.4283 17.3717L14.4483 17.4117L14.4583 17.4617L14.4783 17.5017L14.4983 17.5417L14.5183 17.5917L14.5483 17.6317L14.5683 17.6717L14.5883 17.7117L14.6183 17.7517L14.6383 17.7817L14.6683 17.8217L14.6983 17.8617L14.7183 17.9017L14.7483 17.9317L14.7783 17.9717L14.8083 18.0017L14.8383 18.0317L14.8683 18.0717L14.9083 18.1017L14.9383 18.1317L14.9683 18.1617L15.0083 18.1917L15.0383 18.2217L15.0783 18.2417L15.1083 18.2717L15.1483 18.3017L15.1883 18.3217L15.2283 18.3417L15.2583 18.3717L15.2983 18.3917L15.3383 18.4117L15.3783 18.4317L15.4283 18.4417L15.4683 18.4617L15.5083 18.4817L15.5483 18.4917L15.5883 18.5117L15.6383 18.5217L15.6783 18.5317L15.7283 18.5417L15.7683 18.5517L15.8183 18.5617H15.8583L15.9083 18.5717H15.9483L15.9983 18.5817Z" fill="#FF7171"/>
<path d="M22.5484 14.7217L22.4983 14.7117L22.4583 14.7017H22.4082L22.3582 14.6917H22.3181L22.6085 14.7317H22.5884L22.5484 14.7217Z" fill="#DD5757"/>
<path d="M26.4882 16.911L26.4782 16.861V16.811V16.761L26.4682 16.711L26.4582 16.661L26.4482 16.611V16.561L26.4382 16.511L26.4182 16.471L26.4082 16.421L26.3982 16.371L26.3882 16.331L26.3682 16.281L26.3482 16.241L26.3382 16.191L26.3182 16.151L26.2982 16.111L26.2782 16.061L26.2582 16.021L26.2382 15.981L26.2082 15.941L26.1882 15.901L26.1682 15.861L26.1382 15.821L26.1182 15.781L26.0882 15.751L26.0582 15.711L26.0282 15.671L25.9982 15.641L25.9682 15.611L25.9382 15.571L25.9082 15.541L25.8782 15.511L25.8482 15.481L25.8082 15.451L25.7782 15.421L25.7382 15.391L25.7082 15.361L25.6682 15.341L25.6282 15.311L25.5982 15.291L25.5582 15.261L25.5182 15.241L25.4782 15.221L25.4382 15.201L25.3982 15.181L25.3582 15.161L25.3182 15.141L25.2782 15.131L25.2282 15.111L25.1882 15.101L25.1482 15.091L25.0982 15.081L25.0582 15.071L25.0082 15.061L24.9682 15.051L24.9182 15.041H24.8782L24.8282 15.031H24.7882L22.6082 14.731L22.6282 14.741L22.6782 14.751L22.7182 14.761L22.7582 14.781L22.8082 14.791L22.8482 14.811L22.8882 14.821L22.9282 14.841L22.9682 14.861L23.0082 14.881L23.0482 14.901L23.0882 14.921L23.1282 14.951L23.1682 14.971L23.1982 15.001L23.2382 15.021L23.2682 15.051L23.3082 15.081L23.3382 15.111L23.3782 15.141L23.4082 15.171L23.4382 15.201L23.4682 15.231L23.4982 15.271L23.5282 15.301L23.5582 15.341L23.5882 15.371L23.6182 15.411L23.6482 15.441L23.6682 15.481L23.6982 15.521L23.7182 15.561L23.7482 15.601L23.7682 15.641L23.7882 15.681L23.8082 15.721L23.8282 15.771L23.8482 15.811L23.8682 15.851L23.8882 15.901L23.8982 15.941L23.9182 15.991L23.9282 16.031L23.9382 16.081L23.9582 16.131L23.9682 16.171L23.9782 16.221L23.9882 16.271V16.321L23.9982 16.371L24.0082 16.421V16.471V16.521L24.0182 16.571V16.621V16.671V16.721L24.0082 16.771V16.821V16.871L23.9982 16.921L23.9882 16.971L23.9782 17.021L23.9682 17.071L23.9582 17.121L23.9482 17.171L23.9382 17.221L23.9282 17.271L23.9082 17.311L23.8982 17.361L23.8782 17.401L23.8582 17.451L23.8382 17.491L23.8182 17.541L23.7982 17.581L23.7782 17.631L23.7582 17.671L23.7382 17.711L23.7082 17.751L23.6882 17.791L23.6582 17.831L23.6282 17.871L23.6082 17.911L23.5782 17.951L23.5482 17.981L23.5182 18.021L23.4882 18.051L23.4582 18.091L23.4282 18.121L23.3882 18.161L23.3582 18.191L23.3282 18.221L23.2882 18.251L23.2582 18.281L23.2182 18.311L23.1782 18.341L23.1482 18.361L23.1082 18.391L23.0682 18.411L23.0282 18.441L22.9882 18.461L22.9482 18.481L22.9082 18.501L22.8682 18.521L22.8282 18.541L22.7882 18.561L22.7482 18.581L22.6982 18.591L22.6582 18.611L22.6182 18.621L22.5682 18.631L22.5282 18.641L22.4782 18.651L22.4382 18.661L22.3882 18.671H22.3482L22.2982 18.681H22.2582L22.2082 18.691H22.1582H22.1182H22.0682L24.5382 19.021L24.5882 19.031H24.6282L24.6782 19.021H24.7282H24.7682L24.8182 19.011H24.8582L24.9082 19.001L24.9482 18.991L24.9982 18.981L25.0382 18.971L25.0882 18.961L25.1282 18.951L25.1682 18.931L25.2082 18.911L25.2582 18.901L25.2982 18.881L25.3382 18.861L25.3782 18.841L25.4182 18.821L25.4582 18.801L25.4982 18.781L25.5382 18.751L25.5782 18.731L25.6182 18.701L25.6482 18.671L25.6882 18.651L25.7282 18.621L25.7582 18.591L25.7982 18.561L25.8282 18.531L25.8582 18.491L25.8982 18.461L25.9282 18.431L25.9582 18.391L25.9882 18.361L26.0182 18.321L26.0482 18.281L26.0782 18.251L26.0982 18.211L26.1282 18.171L26.1582 18.131L26.1782 18.091L26.1982 18.051L26.2282 18.011L26.2482 17.961L26.2682 17.921L26.2882 17.881L26.3082 17.831L26.3282 17.791L26.3482 17.741L26.3582 17.701L26.3782 17.651L26.3882 17.601L26.4082 17.561L26.4182 17.511L26.4282 17.461L26.4382 17.411L26.4482 17.361L26.4582 17.311L26.4682 17.261V17.211L26.4782 17.161V17.111V17.061L26.4882 17.011V16.961V16.911Z" fill="#DD5757"/>
<path d="M22.0685 18.6915H22.1185H22.1585H22.2085L22.2585 18.6815H22.2985H22.3485L22.3885 18.6715L22.4385 18.6615L22.4785 18.6515L22.5285 18.6415L22.5685 18.6315L22.6185 18.6215L22.6585 18.6115L22.6985 18.5915L22.7485 18.5815L22.7885 18.5615L22.8285 18.5415L22.8685 18.5215L22.9085 18.5015L22.9485 18.4815L22.9885 18.4615L23.0285 18.4415L23.0685 18.4115L23.1085 18.3915L23.1485 18.3615L23.1785 18.3415L23.2185 18.3115L23.2585 18.2815L23.2885 18.2515L23.3285 18.2215L23.3585 18.1915L23.3885 18.1615L23.4285 18.1215L23.4585 18.0915L23.4885 18.0515L23.5185 18.0215L23.5485 17.9815L23.5785 17.9515L23.6085 17.9115L23.6285 17.8715L23.6585 17.8315L23.6885 17.7915L23.7085 17.7515L23.7385 17.7115L23.7585 17.6715L23.7785 17.6315L23.7985 17.5815L23.8185 17.5415L23.8385 17.4915L23.8585 17.4515L23.8785 17.4015L23.8985 17.3615L23.9085 17.3115L23.9285 17.2715L23.9385 17.2215L23.9485 17.1715L23.9585 17.1215L23.9685 17.0715L23.9785 17.0215L23.9885 16.9715L23.9985 16.9315L24.0085 16.8715V16.8215V16.7715L24.0185 16.7215V16.6715V16.6215V16.5715L24.0085 16.5215V16.4715V16.4215L23.9985 16.3715L23.9885 16.3215V16.2715L23.9785 16.2215L23.9685 16.1715L23.9585 16.1315L23.9385 16.0815L23.9285 16.0315L23.9185 15.9915L23.8985 15.9415L23.8885 15.9015L23.8685 15.8515L23.8485 15.8115L23.8285 15.7715L23.8085 15.7215L23.7885 15.6815L23.7685 15.6415L23.7485 15.6015L23.7185 15.5615L23.6985 15.5215L23.6685 15.4815L23.6485 15.4415L23.6185 15.4115L23.5885 15.3715L23.5585 15.3415L23.5285 15.3015L23.4985 15.2715L23.4685 15.2315L23.4385 15.2015L23.4085 15.1715L23.3785 15.1415L23.3385 15.1115L23.3085 15.0815L23.2685 15.0515L23.2385 15.0215L23.1985 15.0015L23.1685 14.9715L23.1285 14.9515L23.0885 14.9215L23.0485 14.9015L23.0085 14.8815L22.9685 14.8615L22.9285 14.8415L22.8885 14.8215L22.8485 14.8115L22.8085 14.7915L22.7585 14.7815L22.7185 14.7615L22.6785 14.7515L22.6285 14.7415L22.5885 14.7315L22.5485 14.7215L22.4985 14.7115L22.4585 14.7015H22.4085L22.3585 14.6915H22.3185H22.2685H22.2185H22.1785H22.1285L22.0785 14.7015H22.0385L21.9885 14.7115L21.9485 14.7215H21.8985L21.8585 14.7315L21.8085 14.7515L21.7685 14.7615L21.7285 14.7715L21.6785 14.7915L21.6385 14.8015L21.5985 14.8215L21.5585 14.8415L21.5085 14.8515L21.4685 14.8715L21.4285 14.8915L21.3885 14.9215L21.3485 14.9415L21.3185 14.9615L21.2785 14.9915L21.2385 15.0115L21.1985 15.0415L21.1685 15.0715L21.1285 15.1015L21.0885 15.1315L21.0585 15.1615L21.0285 15.1915L20.9885 15.2215L20.9585 15.2515L20.9285 15.2915L20.8985 15.3215L20.8685 15.3615L20.8385 15.3915L20.8085 15.4315L20.7785 15.4715L20.7485 15.5115L20.7285 15.5515L20.6985 15.5915L20.6785 15.6315L20.6485 15.6715L20.6285 15.7115L20.6085 15.7515L20.5785 15.7915L20.5585 15.8415L20.5385 15.8815L20.5285 15.9315L20.5085 15.9715L20.4885 16.0215L20.4785 16.0615L20.4585 16.1115L20.4485 16.1615L20.4285 16.2115L20.4185 16.2615L20.4085 16.3015L20.3985 16.3515L20.3885 16.4015V16.4515L20.3785 16.5015V16.5515L20.3685 16.6015V16.6615V16.7115V16.7615V16.8115V16.8615L20.3785 16.9115V16.9615L20.3885 17.0115V17.0615L20.3985 17.1115L20.4085 17.1515L20.4185 17.2015L20.4285 17.2515L20.4385 17.3015L20.4585 17.3415L20.4685 17.3915L20.4785 17.4315L20.4985 17.4815L20.5185 17.5215L20.5385 17.5715L20.5485 17.6115L20.5685 17.6515L20.5985 17.6915L20.6185 17.7415L20.6385 17.7815L20.6585 17.8215L20.6885 17.8615L20.7085 17.8915L20.7385 17.9315L20.7685 17.9715L20.7885 18.0115L20.8185 18.0415L20.8485 18.0815L20.8785 18.1115L20.9085 18.1415L20.9385 18.1815L20.9785 18.2115L21.0085 18.2415L21.0385 18.2715L21.0785 18.3015L21.1085 18.3315L21.1485 18.3515L21.1785 18.3815L21.2185 18.4015L21.2585 18.4315L21.2985 18.4515L21.3385 18.4715L21.3785 18.5015L21.4185 18.5215L21.4585 18.5415L21.4985 18.5515L21.5385 18.5715L21.5785 18.5915L21.6185 18.6015L21.6685 18.6215L21.7085 18.6315L21.7485 18.6415L21.7985 18.6515L21.8385 18.6615L21.8885 18.6715H21.9285L21.9785 18.6815H22.0185L22.0685 18.6915Z" fill="#FF7171"/>
</g>
<defs>
<clipPath id="clip0_751_2047">
<rect width="33" height="33" fill="white" transform="translate(0.228516 0.00143433)"/>
</clipPath>
</defs>
</svg>
