<svg width="38" height="37" viewBox="0 0 38 37" fill="none" xmlns="http://www.w3.org/2000/svg">
<path d="M22.4342 21.471L22.2324 21.5494L22.0194 21.6167L21.8063 21.6728L21.5933 21.7176L21.3803 21.7513L21.156 21.7737H20.9318L20.7076 21.7625L20.4833 21.74L20.2591 21.7064L20.0348 21.6616L19.8106 21.6055L19.5863 21.5382L19.3733 21.4597L19.1491 21.37L18.936 21.2691L18.7118 21.157L18.4988 21.0337L18.2969 20.8991L18.0839 20.7646L17.8821 20.6076L17.6915 20.4507L17.4897 20.2713L17.2991 20.0919L17.1197 19.9013L16.9403 19.7107L16.7721 19.5088L16.6151 19.2958L16.4582 19.0716L16.3012 18.8473L16.1666 18.6007L16.0321 18.3652L15.8976 18.1185L15.7854 17.8607L11.4912 7.84823L11.3791 7.59035L11.2894 7.32126L11.2109 7.06338L11.1436 6.8055L11.0763 6.55884L11.0315 6.30096L10.9979 6.04308L10.9754 5.79641L10.9642 5.54975L10.953 5.30308L10.9642 5.06763L10.9866 4.83217L11.0091 4.59672L11.0539 4.37247L11.11 4.15944L11.166 3.94641L11.2333 3.73338L11.3118 3.53157L11.4127 3.32975L11.5024 3.15035L11.6145 2.97096L11.7379 2.79157L11.8612 2.6346L12.0069 2.47763L12.1527 2.33187L12.3097 2.19732L12.4779 2.06278L12.6236 1.96187L12.6124 1.97308L12.6012 1.98429H12.59L12.5676 2.00672H12.5563L12.5451 2.01793L12.5339 2.02914L12.5115 2.04035H12.5003L12.4779 2.06278H12.4666L12.4442 2.07399V2.0852L12.4218 2.09641H12.4106L12.3882 2.11884H12.3769L12.3657 2.13005L12.3545 2.14126L12.3321 2.15247H12.3209L12.2985 2.1749L12.276 2.18611L12.2648 2.19732L12.2424 2.20853L12.2312 2.21975L12.2088 2.23096L12.1863 2.24217L12.1751 2.25338L12.1527 2.2646L12.1415 2.27581L12.1191 2.28702L12.0966 2.29823L12.0854 2.30944L12.063 2.32066L12.0518 2.33187L12.0406 2.34308H12.0294L12.0069 2.35429L11.9957 2.3655L11.9733 2.37672V2.38793L11.9509 2.39914H11.9397L11.9172 2.42157H11.906L11.8836 2.43278V2.44399L11.8612 2.4552H11.85L11.8276 2.47763H11.8163L11.8051 2.48884L11.7939 2.50005L11.7715 2.51126H11.7603L11.7379 2.53369H11.7266L11.7154 2.5449L11.7042 2.55611L11.6818 2.56732H11.6706L11.6482 2.58975L11.6257 2.60096L11.6145 2.61217L11.5921 2.62338L11.5809 2.6346L11.5697 2.64581H11.5585L11.536 2.65702L11.5248 2.66823L11.5024 2.67944L11.4912 2.69066L11.48 2.70187H11.4688L11.4463 2.71308L11.4351 2.72429L11.4127 2.7355L11.4015 2.74672L11.3903 2.75793H11.3791L11.3566 2.76914L11.3454 2.78035L11.323 2.79157V2.80278L11.3006 2.81399H11.2894L11.2669 2.83641H11.2557L11.2445 2.84763L11.2333 2.85884L11.2109 2.87005H11.1997L11.1772 2.89247H11.166L11.1548 2.90369L11.1436 2.9149L11.1212 2.92611H11.11L11.0876 2.94853L11.0651 2.95975L11.0539 2.97096L11.0315 2.98217H11.0203L10.9979 3.0046L10.9754 3.01581L10.9642 3.02702L10.9418 3.03823H10.9306L10.9194 3.06066H10.9082L10.8857 3.07187L10.8745 3.08308L10.8521 3.09429L10.8409 3.1055L10.8297 3.11672H10.8185L10.796 3.12793L10.7848 3.13914L10.7624 3.15035V3.16157L10.74 3.17278H10.7288L10.7063 3.18399L10.6951 3.1952L10.6727 3.20641V3.21763L10.6503 3.22884H10.6391L10.6166 3.25126H10.6054L10.5942 3.26247L10.583 3.27369L10.5606 3.2849H10.5494L10.5269 3.30732H10.5157L10.5045 3.31853L10.4933 3.32975L10.4709 3.34096H10.4597L10.4372 3.36338L10.4148 3.3746L10.4036 3.38581L10.3812 3.39702H10.37L10.3588 3.41944H10.3476L10.3251 3.43066L10.3139 3.44187L10.2915 3.45308H10.2803L10.2691 3.4755H10.2579L10.2354 3.48672L10.2242 3.49793L10.2018 3.50914V3.52035L10.1794 3.53157H10.1682L10.1457 3.54278L10.1345 3.55399L10.1121 3.5652V3.57641L10.0897 3.58763H10.0785L10.056 3.59884L10.0448 3.61005L10.0336 3.62126L10.0224 3.63247L9.99997 3.64369H9.98876L9.96634 3.6549L9.95513 3.66611L9.94391 3.67732L9.9327 3.68853L9.91028 3.69975H9.89907L9.87664 3.72217L9.85422 3.73338L9.84301 3.7446L9.82058 3.75581H9.80937L9.78695 3.77823L9.76452 3.78944L9.75331 3.80066L9.73088 3.81187H9.71967L9.70846 3.83429H9.69725L9.67482 3.8455L9.66361 3.85672L9.49543 3.96884L9.32725 4.09217L9.17028 4.23793L9.02452 4.38369L8.87876 4.52944L8.75543 4.69763L8.6321 4.86581L8.51998 5.0452L8.43028 5.23581L8.32937 5.43763L8.25088 5.63944L8.18361 5.84126L8.12755 6.05429L8.07149 6.27853L8.02664 6.50278L8.00422 6.73823L7.98179 6.97369L7.97058 7.20914L7.98179 7.45581L7.99301 7.70247L8.01543 7.94914L8.04907 8.20702L8.09391 8.45369L8.16119 8.71156L8.22846 8.96944L8.30694 9.22732L8.39664 9.4852L8.50876 9.75429L12.803 19.7555L12.9151 20.0134L13.0497 20.2713L13.1842 20.5067L13.3188 20.7422L13.4757 20.9776L13.6327 21.1907L13.7897 21.4037L13.9579 21.6167L14.1372 21.8073L14.3166 21.9979L14.5072 22.1773L14.7091 22.3455L14.8997 22.5137L15.1015 22.6594L15.3145 22.8052L15.5163 22.9397L15.7294 23.0631L15.9536 23.1752L16.1666 23.2761L16.3909 23.3658L16.6039 23.4443L16.8282 23.5116L17.0524 23.5676L17.2766 23.6125L17.5009 23.6461L17.7251 23.6685L17.9494 23.6797L18.1736 23.6685L18.3979 23.6573L18.6109 23.6237L18.8239 23.5788L19.0369 23.5228L19.25 23.4555L19.4518 23.3658L19.6424 23.2761L19.8218 23.1752L19.8442 23.1528H19.8554L19.8666 23.1416L19.8779 23.1304L19.9003 23.1191H19.9115L19.9339 23.0967H19.9451L19.9563 23.0855L19.9676 23.0743L19.99 23.0631H20.0012L20.0236 23.0407L20.046 23.0294L20.0572 23.0182L20.0797 23.007H20.0909L20.1133 22.9846L20.1357 22.9734L20.1469 22.9622L20.1694 22.951H20.1806L20.1918 22.9285H20.203L20.2254 22.9173L20.2366 22.9061L20.2591 22.8949L20.2703 22.8837L20.2815 22.8725H20.2927L20.3151 22.8613L20.3263 22.85L20.3488 22.8388V22.8276L20.3712 22.8164H20.3824L20.4048 22.8052L20.416 22.794L20.4385 22.7828V22.7716L20.4609 22.7603H20.4721L20.4945 22.7491L20.5057 22.7379L20.5169 22.7267L20.5282 22.7155L20.5506 22.7043H20.5618L20.5842 22.6819H20.5954L20.6066 22.6707L20.6179 22.6594L20.6403 22.6482H20.6515L20.6739 22.6258L20.6963 22.6146L20.7076 22.6034L20.73 22.5922H20.7412L20.7636 22.5697L20.786 22.5585L20.7972 22.5473L20.8197 22.5361H20.8309L20.8421 22.5137H20.8533L20.8757 22.5025L20.8869 22.4913L20.9094 22.48V22.4688L20.9318 22.4576H20.943L20.9654 22.4464L20.9766 22.4352L20.9991 22.424V22.4128L21.0215 22.4016H21.0327L21.0551 22.3904L21.0663 22.3791L21.0888 22.3679V22.3567L21.1112 22.3455H21.1224L21.1448 22.3343L21.156 22.3231L21.1672 22.3119L21.1785 22.3007L21.2009 22.2894H21.2121L21.2345 22.267L21.2569 22.2558L21.2682 22.2446L21.2906 22.2334H21.3018L21.3242 22.211L21.3466 22.1997L21.3579 22.1885L21.3803 22.1773H21.3915L21.4027 22.1549H21.4139L21.4363 22.1437L21.4476 22.1325L21.47 22.1213H21.4812L21.4924 22.0988H21.5036L21.526 22.0876L21.5372 22.0764L21.5597 22.0652L21.5821 22.0428H21.5933L21.6157 22.0316L21.6269 22.0203L21.6382 22.0091L21.6494 21.9979L21.6718 21.9867H21.683L21.7054 21.9755L21.7166 21.9643L21.7279 21.9531L21.7391 21.9419L21.7615 21.9307H21.7727L21.7951 21.9194V21.9082L21.8176 21.897L21.8288 21.8858L21.8512 21.8746H21.8624L21.8848 21.8522L21.9072 21.841L21.9185 21.8297L21.9409 21.8185H21.9521L21.9633 21.7961H21.9745L21.9969 21.7849L22.0082 21.7737L22.0306 21.7625H22.0418L22.053 21.74H22.0642L22.0866 21.7288L22.0979 21.7176L22.1203 21.7064L22.1427 21.684H22.1539L22.1763 21.6728L22.1876 21.6616L22.21 21.6504L22.2324 21.6279H22.2436L22.266 21.6167L22.2772 21.6055L22.2885 21.5943L22.2997 21.5831L22.3221 21.5719H22.3333L22.3557 21.5607L22.3669 21.5494L22.3782 21.5382L22.3894 21.527L22.4118 21.5158H22.423L22.4454 21.5046V21.4934L22.4679 21.4822L22.4791 21.471L22.5015 21.4597H22.5127L22.5351 21.4485V21.4373L22.5576 21.4261L22.5688 21.4149L22.5912 21.4037H22.6024L22.6136 21.3813H22.6248L22.6472 21.37L22.6585 21.3588L22.6809 21.3476L22.7033 21.3252H22.7145L22.7369 21.314L22.7482 21.3028L22.7706 21.2916L22.793 21.2691H22.8042L22.6248 21.37L22.4342 21.471Z" fill="#DD5757"/>
<path d="M30.6418 19.1389V18.8698L30.6194 18.6119L30.597 18.3428L30.5746 18.0849L30.5409 17.8158L30.5073 17.5467L30.4624 17.2777L30.4176 17.0086L30.3727 16.7395L30.3055 16.4704L30.2494 16.1901L30.1709 15.921L30.1036 15.6407L30.0139 15.3716L29.9355 15.0913L29.8458 14.8222L29.7449 14.5419L29.6327 14.2728L29.5318 13.9925L29.4085 13.7122L26.6839 14.5419L23.7015 16.448L23.7912 16.661L23.8809 16.8852L23.9594 17.0983L24.0379 17.3113L24.1052 17.5243L24.1724 17.7374L24.2285 17.9616L24.2846 18.1746L24.3406 18.3877L24.3855 18.6007L24.4303 18.8137L24.4639 19.0267L24.4976 19.2286L24.52 19.4416L24.5424 19.6546L24.5649 19.8564L24.5761 20.0583L24.5873 20.2713V20.4731V20.6749V20.8768L24.5761 21.0786L24.5649 21.2692L24.5424 21.471L24.52 21.6616L24.4976 21.8522L24.4639 22.0428L24.4303 22.2222L24.3855 22.4128L24.3406 22.5922L24.2958 22.7716L24.2397 22.951L24.1836 23.1304L24.1276 23.2986L24.0603 23.4668L23.993 23.6349L23.9146 23.8031L23.8361 23.9601L23.7576 24.1283L23.6679 24.274L23.5782 24.431L23.4885 24.5767L23.3876 24.7225L23.2867 24.8683L23.1858 25.0028L23.1521 25.0364L23.0961 25.0477L22.9167 25.0925L22.7373 25.1261L22.5579 25.1486L22.3785 25.171L22.1991 25.1934L22.0085 25.2046L21.8291 25.2158H21.6385L21.4591 25.2046L21.2685 25.1934L21.0779 25.1822L20.8985 25.1598L20.7079 25.1374L20.5285 25.1037L20.3379 25.0701L20.1473 25.0364L19.9679 24.9916L19.7773 24.9355L19.5867 24.8795L19.4073 24.8234L19.2167 24.7561L19.0373 24.6889L18.8467 24.6104L18.6673 24.5319L18.4879 24.4534L18.3085 24.3637L18.1291 24.274L17.9497 24.1843L17.7703 24.0834L17.5909 23.9713L17.4115 23.8704L17.2433 23.7583L17.0639 23.6349L16.8958 23.5228L16.7276 23.3883L16.5594 23.2649L16.3912 23.1304L16.223 22.9958L16.0661 22.8501L15.9091 22.7043L15.7521 22.5586L15.5952 22.4128L15.4382 22.2558L15.2812 22.0989L15.1355 21.9307L14.9897 21.7625L14.8439 21.5943L14.7094 21.4261L14.5636 21.2468L14.4291 21.0674L14.3058 20.888L14.1712 20.7086L14.0479 20.518L13.9246 20.3274L13.8012 20.1255L13.6891 19.9349L13.577 19.7331L13.4649 19.5313L13.3527 19.3183L13.2518 19.1164L13.1621 18.9034L13.0612 18.6792L10.3367 19.5089L7.35425 21.4149L7.47758 21.6952L7.60091 21.9643L7.73546 22.2334L7.85879 22.4913L8.00455 22.7604L8.1391 23.0183L8.28485 23.2649L8.44182 23.5228L8.59879 23.7695L8.75576 24.0161L8.91273 24.2516L9.08091 24.4871L9.2491 24.7225L9.41728 24.9467L9.59667 25.1822L9.77607 25.3952L9.95546 25.6195L10.1349 25.8325L10.3255 26.0455L10.5161 26.2474L10.7179 26.4492L10.9085 26.6398L11.1103 26.8416L11.3121 27.021L11.5139 27.2116L11.7158 27.391L11.9288 27.5704L12.1418 27.7386L12.3549 27.9067L12.5679 28.0637L12.7809 28.2207L13.0052 28.3777L13.2294 28.5234L13.4424 28.6692L13.6667 28.8037L13.9021 28.9383L14.1264 29.0616L14.3506 29.1849L14.5861 29.3083L14.8103 29.4204L15.0458 29.5325L15.2812 29.6334L15.5167 29.7343L15.7521 29.824L15.9876 29.9137L16.223 29.9922L16.4585 30.0707L16.6939 30.138L16.9294 30.2052L17.1649 30.2613L17.4115 30.3174L17.647 30.3622L17.8824 30.4071L18.1179 30.4407L18.3646 30.4743L18.6 30.4968L18.8355 30.5192L19.0709 30.5304L19.3064 30.5416H19.5418L19.7773 30.5304L20.0127 30.5192L20.2482 30.508L20.4836 30.4743L22.6924 35.6207L25.417 34.791L28.3994 32.8849L26.1906 27.7498L26.3924 27.6377L26.583 27.5255L26.7736 27.4134L26.9643 27.2901L27.1436 27.1555L27.323 27.0322L27.4912 26.8864L27.6594 26.7519L27.8276 26.6061L27.9846 26.4492L28.1415 26.2922L28.2873 26.1352L28.4443 25.9671L28.5788 25.7989L28.7246 25.6195L28.8479 25.4513L28.9824 25.2607L29.1058 25.0813L29.2291 24.8907L29.3412 24.7001L29.4533 24.4983L29.5542 24.2964L29.6552 24.0946L29.7561 23.8816L29.8458 23.6686L29.9355 23.4555L30.0139 23.2425L30.0924 23.0183L30.1597 22.794L30.227 22.5698L30.2942 22.3455L30.3503 22.1101L30.4064 21.8746L30.4512 21.6392L30.4961 21.3925L30.5297 21.1571L30.5633 20.9104L30.597 20.6637L30.6194 20.4058L30.6306 20.1592L30.6418 19.9013L30.653 19.6546V19.3967L30.6418 19.1389Z" fill="#383838"/>
<path d="M24.4974 17.67L24.4749 17.4346V17.4234L24.4525 17.1767L24.4749 17.4009L24.4525 17.1767L24.4189 16.9188L24.374 16.6609L24.318 16.4031L24.2395 16.1452L24.1834 15.977L24.2395 16.1452L24.318 16.4031L24.2395 16.1452L24.161 15.8873L24.0713 15.6294L24.1386 15.82L24.0713 15.6294L23.9592 15.3715L23.5219 14.3625L20.3489 15.3267L19.6313 13.6561L22.8155 12.6918L22.098 11.0212L18.9137 11.9855L18.1962 10.3149L21.3804 9.35064L20.6628 7.68003L17.4786 8.64427L16.7722 6.98488L19.9452 6.02064L19.6649 5.35912L19.5528 5.10124L19.4295 4.85458L19.2949 4.60791L19.2165 4.49579L19.1492 4.37245L19.1716 4.42851L19.1492 4.37245L19.0034 4.14821L18.8465 3.92397L18.6783 3.71094L18.6222 3.65488L18.5101 3.50912L18.3307 3.3073L18.5101 3.50912L18.5325 3.54276L18.5101 3.50912L18.3307 3.3073L18.1513 3.12791L17.9607 2.94851L17.7701 2.76912L17.5683 2.61215L17.3665 2.45518L17.1646 2.32064L16.9516 2.18609L16.7386 2.06276L16.5255 1.95064L16.3013 1.84973L16.0883 1.76003L15.864 1.68155L15.6398 1.61427L15.4155 1.547L15.1913 1.50215L14.9671 1.46851L14.7428 1.4573L14.5186 1.44609H14.2943L14.0813 1.46851L13.8571 1.50215L13.644 1.53579L13.431 1.60306L13.218 1.67033L13.0162 1.74882L12.8255 1.84973L12.6462 1.95064L12.8255 1.84973L12.6462 1.95064L12.6237 1.96185L12.5452 2.01791L12.478 2.06276L12.3098 2.1973L12.1528 2.33185L12.0071 2.47761L11.8613 2.63458L11.738 2.79155L11.6146 2.97094L11.5025 3.15033L11.4128 3.32973L11.3119 3.53155L11.2334 3.73336L11.1662 3.94639L11.1101 4.15942L11.054 4.37245L11.0092 4.5967L10.9868 4.83215L10.9643 5.06761L10.9531 5.30306L10.9643 5.54973L10.9755 5.79639L10.998 6.04306L11.0316 6.30094L11.0765 6.55882L11.1437 6.80548L11.211 7.06336L11.2895 7.32124L11.3792 7.59033L11.4913 7.84821L15.7855 17.8606L15.8977 18.1185L16.0322 18.3652L16.1668 18.6006L16.3013 18.8361L16.4583 19.0715L16.6152 19.2958L16.7722 19.5088L16.9404 19.7106L17.1198 19.9012L17.2992 20.0918L17.4898 20.2712L17.6916 20.4506L17.5907 20.3609L17.6916 20.4506L17.8822 20.6076L18.084 20.7646L18.2971 20.8991L18.4989 21.0337L18.7119 21.157L18.9362 21.2691L19.1492 21.37L19.3734 21.4597L19.5865 21.5382L19.8107 21.6055L20.0349 21.6615L20.2592 21.7064L20.4834 21.74L20.7077 21.7625L20.9319 21.7737H21.0328H20.9319H21.1562L21.3804 21.7512L21.5934 21.7176L21.8065 21.6728L22.0195 21.6167L22.2325 21.5494L22.4343 21.4709L22.6249 21.37L22.8043 21.2691L22.9837 21.157L23.1407 21.0225L23.2977 20.8879L23.4434 20.7421L23.5892 20.5852L23.7125 20.4282L23.8359 20.2488L23.948 20.0694L24.0489 19.8788L24.1386 19.6882L24.2171 19.4864L24.2843 19.2734L24.3516 19.0603L24.3965 18.8473L24.4413 18.6118L24.4637 18.3876L24.4862 18.1522L24.4974 17.9055V17.67Z" fill="#F87878"/>
<path d="M18.7123 21.1572L18.9368 21.2695L18.7123 21.1572L18.499 21.0338L18.7123 21.1572Z" fill="#F87878"/>
<path d="M19.6652 5.35968L19.5529 5.10149L19.4294 4.85452L19.5529 5.10149L19.6652 5.35968Z" fill="#F87878"/>
<path d="M11.2335 3.73344L11.1663 3.94636L11.1102 4.15928L11.1663 3.94636L11.2335 3.73344Z" fill="#F87878"/>
<path d="M22.7819 12.7031L19.6313 13.6561L19.9901 14.4858L20.4723 14.1831L20.5059 14.1606L20.5956 14.1046L20.7189 14.0261L20.7974 13.97L20.831 13.9476L20.8647 13.9364L21.0104 13.8355L21.0441 13.8243L21.1226 13.7682L21.2459 13.6897L21.3356 13.6337L21.3692 13.6112L21.3916 13.5888L21.5374 13.4991L21.571 13.4767L21.6607 13.4206L21.7729 13.3534L21.8626 13.2973L21.8962 13.2749L21.9298 13.2525L21.9859 13.2188L22.098 13.1403L22.1877 13.0843L22.311 13.0058L22.4007 12.9497L22.4232 12.9385L22.4568 12.9161L22.5129 12.8825L22.5689 12.8376L22.6026 12.8264L22.6362 12.804L22.7259 12.7479L22.8156 12.6918L22.7819 12.7031Z" fill="#DD5757"/>
<path d="M19.6312 10.4608L19.6648 10.4496L19.6985 10.4272L19.7209 10.4048L19.7545 10.3935L19.7882 10.3711L19.8106 10.3487L19.8442 10.3375L19.8667 10.3151L19.9003 10.2926L19.9339 10.2814L19.9563 10.259L19.99 10.2366L20.0236 10.2141L20.046 10.2029L20.0797 10.1805L20.1133 10.1581L20.1357 10.1469L20.1694 10.1245L20.1918 10.102L20.2254 10.0908L20.2591 10.0684L20.2815 10.046L20.3151 10.0348L20.3488 10.0123L20.3712 9.98991L20.4048 9.97869L20.4609 9.93385L20.4945 9.92263L20.517 9.90021L20.5842 9.86657L20.6067 9.84415L20.6403 9.82172L20.6964 9.78809L20.73 9.76566L20.8197 9.7096L20.8421 9.68718L20.9318 9.63112L21.0215 9.57506L21.0551 9.56384L21.1673 9.48536L21.2345 9.45172L21.3467 9.37324L21.3803 9.35081L21.3467 9.36203L18.196 10.3151L18.5548 11.1448V11.156L18.5773 11.1448L18.5997 11.1223L18.6333 11.1111L18.6557 11.0887H18.667L18.6894 11.0663L18.723 11.0438L18.7454 11.0326L18.7791 11.0102L18.8127 10.9878L18.8351 10.9766L18.8688 10.9542L18.9024 10.9317L18.9248 10.9205L18.9585 10.8981L18.9809 10.8757L19.0145 10.8645L19.0482 10.842L19.0706 10.8196L19.1042 10.8084L19.1379 10.786L19.1603 10.7635L19.1939 10.7523L19.2276 10.7299L19.25 10.7075L19.2836 10.6963L19.306 10.6738L19.3397 10.6514L19.3733 10.629L19.3957 10.6178L19.4294 10.5954L19.463 10.5729L19.4854 10.5617L19.5191 10.5393L19.5415 10.5169H19.5527L19.5751 10.5057L19.6088 10.4832L19.6312 10.4608Z" fill="#DD5757"/>
<path d="M18.2072 7.13081L18.2297 7.10839L18.2633 7.08597L18.2969 7.07475L18.3194 7.05233L18.353 7.0299L18.3754 7.01869L18.4091 6.99627L18.4427 6.97384L18.4651 6.96263L18.4988 6.94021L18.5324 6.91778L18.5548 6.90657L18.5885 6.88415L18.6221 6.86172L18.6445 6.85051L18.6782 6.82809L18.7006 6.80566L18.7342 6.78324L18.7679 6.77203L18.7903 6.7496L18.8239 6.72718L18.8575 6.71596L18.88 6.69354L18.9136 6.67112L18.936 6.6599H18.9472L18.9697 6.63748L19.0033 6.61506L19.0257 6.60384L19.0594 6.58142L19.093 6.55899L19.1154 6.54778L19.1491 6.52536L19.1827 6.50293L19.2051 6.49172L19.2388 6.4693L19.2612 6.44687L19.2948 6.43566L19.3285 6.41324L19.3509 6.39081L19.3845 6.36839L19.4182 6.35718L19.4406 6.33475L19.4742 6.31233L19.5079 6.30112L19.5303 6.27869L19.5639 6.25627L19.5863 6.24506L19.62 6.22263L19.6536 6.20021L19.676 6.18899L19.7433 6.14415L19.7657 6.13293L19.7994 6.11051L19.8554 6.07687L19.8891 6.05445L19.9115 6.03203L19.9451 6.02081L16.7721 6.98506L17.1197 7.81475L17.1421 7.80354L17.2542 7.73627L17.4672 7.60172L17.7924 7.38869L17.8485 7.35506L17.8821 7.33263L17.9718 7.27657L17.9942 7.26536V7.25415L18.0503 7.22051L18.0839 7.19809L18.1175 7.18687L18.1736 7.14203L18.2072 7.13081Z" fill="#DD5757"/>
</svg>
