<svg width="53" height="34" viewBox="0 0 53 34" fill="none" xmlns="http://www.w3.org/2000/svg">
<path d="M26.4307 22.2099L26.3907 21.9299L26.3607 21.6499L24.9907 8.9099L24.8307 8.2599L26.2007 20.9999L26.2307 21.2799L26.2807 21.5599L26.3207 21.8399L26.3807 22.1099L26.4407 22.3799L26.5107 22.6499L26.5307 22.7499L26.4807 22.4899L26.4307 22.2099Z" fill="#383838"/>
<path d="M48.3708 20.1001L48.3508 19.8201L48.3308 19.5401L48.3108 19.2501L46.9308 6.51005L46.7708 5.86005L48.1508 18.6001L48.1808 18.8901L48.1908 19.1701L48.2108 19.4501V19.7301V20.0001L48.2008 20.2801L48.1808 20.5501L48.1608 20.8301L48.1308 21.1001L48.1008 21.3701L48.0508 21.6401L48.0008 21.9001L47.9508 22.1701L47.8908 22.4301L47.8208 22.6901L47.7408 22.9501L47.6608 23.2001L47.5808 23.4501L47.4808 23.7001L47.3808 23.9501L47.2808 24.2001L47.1708 24.4401L47.0508 24.6801L46.9308 24.9101L46.8008 25.1401L46.6708 25.3701L46.5308 25.6001L46.3908 25.8201L46.2408 26.0401L46.0908 26.2601L45.9308 26.4701L45.7608 26.6701L45.6008 26.8801L45.4208 27.0801L45.2408 27.2701L45.0608 27.4701L44.8708 27.6501L44.6808 27.8301L44.4808 28.0101L44.2808 28.1901L44.0808 28.3601L43.8708 28.5201L43.6608 28.6801L43.4408 28.8301L43.2208 28.9801L42.9908 29.1301L42.7608 29.2601L42.5308 29.4001L42.2908 29.5301L42.0508 29.6501L41.8108 29.7601L41.5608 29.8801L41.3108 29.9801L41.0608 30.0801L40.8008 30.1701L40.5408 30.2601L40.2708 30.3401L40.0108 30.4101L39.7408 30.4801L39.4708 30.5401L39.1908 30.6001L38.9108 30.6501L38.6308 30.6901L38.3508 30.7201L38.0708 30.7501L37.7908 30.7701L37.5108 30.7801L37.2308 30.7901H36.9508L36.6708 30.7801L36.3908 30.7601L36.1208 30.7401L35.8508 30.7101L35.5708 30.6801L35.3108 30.6401L35.0408 30.5901L34.7708 30.5301L34.5108 30.4701L34.2508 30.4001L33.9908 30.3301L33.7308 30.2501L33.4808 30.1601L33.2308 30.0701L32.9808 29.9701L32.7408 29.8701L32.4908 29.7601L32.2508 29.6501L32.0208 29.5301L31.7808 29.4001L31.5508 29.2701L31.3308 29.1301L31.1108 28.9901L30.8908 28.8401L30.6708 28.6901L30.4608 28.5301L30.2508 28.3701L30.0508 28.2001L29.8508 28.0301L29.6508 27.8501L29.4608 27.6701L29.2708 27.4801L29.0908 27.2901L28.9108 27.1001L28.7308 26.9001L28.5708 26.6901L28.4008 26.4901L28.2408 26.2701L28.0908 26.0601L27.9408 25.8401L27.7908 25.6101L27.6608 25.3901L27.5208 25.1501L27.3908 24.9201L27.2708 24.6801L27.1608 24.4401L27.0408 24.1901L26.9408 23.9401L26.8408 23.6901L26.7508 23.4301L26.6608 23.1701L26.5808 22.9101L26.5308 22.7501L26.5408 22.7601L26.6008 23.0301L26.6708 23.3001L26.7408 23.5601L26.8208 23.8201L26.9108 24.0801L27.0008 24.3401L27.1008 24.5901L27.2008 24.8401L27.3108 25.0901L27.4308 25.3301L27.5508 25.5701L27.6808 25.8001L27.8108 26.0401L27.9508 26.2601L28.1008 26.4901L28.2508 26.7101L28.4008 26.9201L28.5608 27.1401L28.7208 27.3401L28.8908 27.5501L29.0708 27.7501L29.2508 27.9401L29.4308 28.1301L29.6208 28.3201L29.8108 28.5001L30.0008 28.6801L30.2008 28.8501L30.4108 29.0201L30.6208 29.1801L30.8308 29.3401L31.0408 29.4901L31.2608 29.6401L31.4908 29.7801L31.7108 29.9201L31.9408 30.0501L32.1808 30.1801L32.4108 30.3001L32.6508 30.4101L32.9008 30.5201L33.1408 30.6201L33.3908 30.7201L33.6408 30.8101L33.8908 30.9001L34.1508 30.9801L34.4108 31.0501L34.6708 31.1201L34.9308 31.1801L35.2008 31.2401L35.4608 31.2901L35.7308 31.3301L36.0008 31.3601L36.2808 31.3901L36.5508 31.4101L36.8308 31.4301L37.1108 31.4401H37.3808L37.6608 31.4301L37.9508 31.4201L38.2308 31.4001L38.5108 31.3701L38.7908 31.3401L39.0708 31.3001L39.3508 31.2501L39.6308 31.1901L39.9008 31.1301L40.1708 31.0601L40.4308 30.9901L40.7008 30.9101L40.9608 30.8201L41.2108 30.7301L41.4708 30.6301L41.7208 30.5301L41.9708 30.4101L42.2108 30.3001L42.4508 30.1801L42.6908 30.0501L42.9208 29.9101L43.1508 29.7801L43.3708 29.6301L43.6008 29.4801L43.8108 29.3301L44.0308 29.1701L44.2408 29.0101L44.4408 28.8401L44.6408 28.6601L44.8408 28.4801L45.0308 28.3001L45.2208 28.1101L45.4008 27.9201L45.5808 27.7301L45.7508 27.5301L45.9208 27.3201L46.0908 27.1201L46.2508 26.9101L46.4008 26.6901L46.5508 26.4701L46.6908 26.2501L46.8308 26.0201L46.9608 25.7901L47.0908 25.5601L47.2108 25.3301L47.3308 25.0901L47.4408 24.8501L47.5408 24.6001L47.6408 24.3501L47.7308 24.1001L47.8208 23.8501L47.9008 23.6001L47.9808 23.3401L48.0508 23.0801L48.1108 22.8201L48.1608 22.5501L48.2108 22.2901L48.2608 22.0201L48.2908 21.7501L48.3208 21.4801L48.3408 21.2001L48.3608 20.9301L48.3708 20.6501V20.3701V20.1001Z" fill="#383838"/>
<path d="M44.6907 20.2201L44.6807 20.0301L44.6707 19.8401L44.6507 19.6501L43.6707 10.5501L43.5107 9.9001L28.8807 11.5001L29.8607 20.6001L29.8807 20.7901L29.9107 20.9701L29.9407 21.1601L29.9807 21.3401L30.0207 21.5201L30.0607 21.7001L30.1107 21.8801V21.8901L30.1007 21.8101L30.0707 21.6201L30.0407 21.4401L30.0207 21.2501L29.0407 12.1501L43.5807 10.5601L44.4907 19.0001L44.5107 19.1901L44.5207 19.3801L44.5307 19.5701V19.7501V19.9401V20.1201L44.5207 20.3001L44.5007 20.4901L44.4807 20.6701L44.4607 20.8501L44.4307 21.0301L44.4007 21.2001L44.3607 21.3801L44.3207 21.5601L44.2707 21.7301L44.2207 21.9001L44.1707 22.0701L44.1107 22.2401L44.0507 22.4101L43.9807 22.5701L43.9107 22.7301L43.8407 22.8901L43.7607 23.0501L43.6807 23.2101L43.6007 23.3701L43.5107 23.5201L43.4207 23.6701L43.3207 23.8201L43.2207 23.9601L43.1207 24.1101L43.0107 24.2501L42.9007 24.3901L42.7907 24.5201L42.6807 24.6501L42.5607 24.7801L42.4307 24.9101L42.3107 25.0401L42.1807 25.1601L42.0507 25.2801L41.9207 25.3901L41.7807 25.5101L41.6407 25.6101L41.5007 25.7201L41.3507 25.8201L41.2007 25.9201L41.0507 26.0201L40.9007 26.1101L40.7507 26.2001L40.5907 26.2801L40.4307 26.3701L40.2707 26.4401L40.1007 26.5201L39.9307 26.5901L39.7607 26.6501L39.5907 26.7201L39.4207 26.7701L39.2407 26.8301L39.0607 26.8801L38.8907 26.9201L38.7007 26.9601L38.5207 27.0001L38.3407 27.0301L38.1507 27.0601L37.9607 27.0801L37.7707 27.1001L37.5807 27.1101L37.3907 27.1201L37.2107 27.1301H37.0207L36.8407 27.1201L36.6507 27.1101L36.4707 27.1001L36.2907 27.0801L36.1107 27.0501L35.9307 27.0301L35.7507 26.9901L35.5707 26.9601L35.4007 26.9201L35.2207 26.8701L35.0507 26.8201L34.8807 26.7701L34.7107 26.7101L34.5407 26.6501L34.3807 26.5801L34.2107 26.5201L34.0507 26.4401L33.8907 26.3701L33.7307 26.2901L33.5807 26.2001L33.4307 26.1101L33.2707 26.0201L33.1307 25.9301L32.9807 25.8301L32.8407 25.7301L32.6907 25.6201L32.5607 25.5201L32.4207 25.4001L32.2907 25.2901L32.1607 25.1701L32.0307 25.0501L31.9007 24.9301L31.7807 24.8001L31.6607 24.6701L31.5507 24.5401L31.4307 24.4001L31.3207 24.2601L31.2207 24.1201L31.1207 23.9801L31.0207 23.8301L30.9207 23.6801L30.8307 23.5301L30.7407 23.3701L30.6507 23.2201L30.5707 23.0601L30.4907 22.8901L30.4207 22.7301L30.3507 22.5601L30.2807 22.4001L30.2207 22.2201L30.1707 22.0501L30.1107 21.8901L30.1407 21.9901L30.1807 22.1701L30.2207 22.3501L30.2707 22.5301L30.3207 22.7001L30.3807 22.8701L30.4407 23.0501L30.5107 23.2101L30.5807 23.3801L30.6507 23.5401L30.7307 23.7101L30.8107 23.8701L30.9007 24.0201L30.9907 24.1801L31.0807 24.3301L31.1707 24.4801L31.2707 24.6301L31.3807 24.7701L31.4807 24.9101L31.5907 25.0501L31.7107 25.1901L31.8207 25.3201L31.9407 25.4501L32.0607 25.5801L32.1907 25.7001L32.3107 25.8201L32.4507 25.9401L32.5807 26.0501L32.7107 26.1701L32.8507 26.2701L32.9907 26.3801L33.1407 26.4801L33.2807 26.5801L33.4307 26.6701L33.5807 26.7601L33.7407 26.8501L33.8907 26.9401L34.0507 27.0201L34.2107 27.0901L34.3707 27.1701L34.5407 27.2301L34.7007 27.3001L34.8707 27.3601L35.0407 27.4201L35.2107 27.4701L35.3807 27.5201L35.5507 27.5701L35.7307 27.6101L35.9107 27.6401L36.0907 27.6801L36.2607 27.7001L36.4507 27.7301L36.6307 27.7501L36.8107 27.7601L36.9907 27.7701L37.1807 27.7801H37.3707L37.5507 27.7701L37.7407 27.7601L37.9307 27.7501L38.1207 27.7301L38.3107 27.7101L38.4907 27.6801L38.6807 27.6501L38.8607 27.6101L39.0407 27.5701L39.2207 27.5301L39.4007 27.4801L39.5807 27.4201L39.7507 27.3701L39.9207 27.3001L40.0907 27.2401L40.2607 27.1701L40.4207 27.0901L40.5907 27.0201L40.7507 26.9301L40.9107 26.8501L41.0607 26.7601L41.2107 26.6701L41.3607 26.5701L41.5107 26.4701L41.6607 26.3701L41.8007 26.2601L41.9407 26.1601L42.0807 26.0401L42.2107 25.9301L42.3407 25.8101L42.4707 25.6901L42.5907 25.5601L42.7207 25.4301L42.8307 25.3001L42.9507 25.1701L43.0607 25.0401L43.1707 24.9001L43.2807 24.7601L43.3807 24.6101L43.4807 24.4701L43.5707 24.3201L43.6707 24.1701L43.7507 24.0201L43.8407 23.8601L43.9207 23.7001L44.0007 23.5401L44.0707 23.3801L44.1407 23.2201L44.2107 23.0601L44.2707 22.8901L44.3307 22.7201L44.3807 22.5501L44.4307 22.3801L44.4807 22.2101L44.5207 22.0301L44.5507 21.8501L44.5907 21.6801L44.6207 21.5001L44.6407 21.3201L44.6607 21.1401L44.6707 20.9501L44.6807 20.7701L44.6907 20.5901V20.4001V20.2201Z" fill="#383838"/>
<path d="M43.6707 10.55L29.0406 12.15L30.0206 21.25L30.0406 21.44L30.0707 21.62L30.1006 21.81L30.1406 21.99L30.1806 22.17L30.2206 22.35L30.2706 22.53L30.3207 22.7L30.3806 22.87L30.4406 23.05L30.5107 23.21L30.5807 23.38L30.6507 23.54L30.7307 23.71L30.8107 23.87L30.9007 24.02L30.9907 24.18L31.0807 24.33L31.1707 24.48L31.2706 24.63L31.3806 24.77L31.4807 24.91L31.5907 25.05L31.7106 25.19L31.8207 25.32L31.9406 25.45L32.0607 25.58L32.1906 25.7L32.3107 25.82L32.4506 25.94L32.5807 26.05L32.7107 26.17L32.8507 26.27L32.9907 26.38L33.1406 26.48L33.2807 26.58L33.4306 26.67L33.5807 26.76L33.7407 26.85L33.8906 26.94L34.0507 27.02L34.2107 27.09L34.3707 27.17L34.5407 27.23L34.7006 27.3L34.8707 27.36L35.0407 27.42L35.2107 27.47L35.3807 27.52L35.5507 27.57L35.7306 27.61L35.9106 27.64L36.0906 27.68L36.2607 27.7L36.4507 27.73L36.6307 27.75L36.8107 27.76L36.9907 27.77L37.1806 27.78H37.3707L37.5507 27.77L37.7407 27.76L37.9306 27.75L38.1207 27.73L38.3107 27.71L38.4907 27.68L38.6806 27.65L38.8607 27.61L39.0407 27.57L39.2207 27.53L39.4007 27.48L39.5807 27.42L39.7506 27.37L39.9207 27.3L40.0906 27.24L40.2607 27.17L40.4207 27.09L40.5907 27.02L40.7506 26.93L40.9106 26.85L41.0607 26.76L41.2107 26.67L41.3607 26.57L41.5107 26.47L41.6606 26.37L41.8007 26.26L41.9407 26.16L42.0807 26.04L42.2107 25.93L42.3407 25.81L42.4707 25.69L42.5907 25.56L42.7207 25.43L42.8307 25.3L42.9507 25.17L43.0607 25.04L43.1707 24.9L43.2807 24.76L43.3807 24.61L43.4806 24.47L43.5706 24.32L43.6707 24.17L43.7507 24.02L43.8407 23.86L43.9207 23.7L44.0007 23.54L44.0706 23.38L44.1406 23.22L44.2107 23.06L44.2707 22.89L44.3307 22.72L44.3807 22.55L44.4307 22.38L44.4806 22.21L44.5207 22.03L44.5507 21.85L44.5907 21.68L44.6207 21.5L44.6406 21.32L44.6607 21.14L44.6707 20.95L44.6807 20.77L44.6907 20.59V20.4V20.22L44.6807 20.03L44.6707 19.84L44.6507 19.65L43.6707 10.55Z" stroke="black" stroke-width="0.0100076" stroke-miterlimit="10"/>
<path d="M41.9207 20.13L41.9107 20.04V19.95L41.7507 19.3L32.6007 20.3L32.6107 20.39L32.6307 20.48L32.6407 20.56L32.6607 20.65L32.6907 20.73L32.7107 20.82L32.7407 20.9L32.7607 20.96L32.7707 21.04L32.7907 21.13L32.8007 21.21L32.8207 21.3L32.8407 21.38L32.8707 21.47L32.9007 21.55L32.9307 21.63L32.9607 21.71L33.0007 21.79L33.0407 21.87L33.0807 21.95L33.1207 22.02L33.1707 22.1L33.2107 22.17L33.2607 22.24L33.3207 22.32L33.3707 22.39L33.4307 22.46L33.4907 22.52L33.5507 22.59L33.6107 22.65L33.6807 22.72L33.7507 22.78L33.8207 22.84L33.8907 22.9L33.9607 22.96L34.0407 23.01L34.1207 23.07L34.2007 23.12L34.2807 23.17L34.3607 23.23L34.4507 23.27L34.5307 23.32L34.6207 23.37L34.7107 23.41L34.8007 23.45L34.8907 23.49L34.9907 23.53L35.0807 23.57L35.1807 23.6L35.2807 23.64L35.3807 23.67L35.4807 23.7L35.5807 23.73L35.6807 23.75L35.7907 23.78L35.8907 23.8L36.0007 23.82L36.1107 23.84L36.2207 23.85L36.3307 23.87L36.4407 23.88L36.5507 23.89L36.6607 23.9H36.7707L36.8907 23.91H37.0007H37.1207H37.2307L37.3507 23.9L37.4707 23.89H37.5807L37.7007 23.87L37.8207 23.86L37.9407 23.84L38.0507 23.83L38.1707 23.8L38.2807 23.78L38.3907 23.76L38.5107 23.73L38.6207 23.7L38.7207 23.67L38.8307 23.64L38.9407 23.61L39.0407 23.57L39.1507 23.53L39.2507 23.49L39.3507 23.45L39.4507 23.41L39.5507 23.37L39.6507 23.32L39.7407 23.27L39.8407 23.22L39.9307 23.17L40.0207 23.12L40.1107 23.07L40.2007 23.01L40.2807 22.95L40.3607 22.9L40.4507 22.84L40.5307 22.78L40.6007 22.71L40.6807 22.65L40.7507 22.59L40.8307 22.52L40.9007 22.45L40.9707 22.38L41.0307 22.31L41.1007 22.24L41.1607 22.17L41.2207 22.1L41.2807 22.03L41.3307 21.95L41.3807 21.88L41.4307 21.8L41.4807 21.72L41.5307 21.65L41.5707 21.57L41.6107 21.49L41.6507 21.41L41.6907 21.32L41.7207 21.24L41.7607 21.16L41.7807 21.08L41.8107 20.99L41.8307 20.91L41.8507 20.82L41.8707 20.74L41.8907 20.65L41.9007 20.57L41.9107 20.48L41.9207 20.39V20.31V20.22V20.13Z" fill="#383838"/>
<path d="M41.7507 19.3L32.6007 20.3L32.6107 20.39L32.6307 20.48L32.6407 20.56L32.6607 20.65L32.6907 20.73L32.7107 20.82L32.7407 20.9L32.7707 20.98L32.8007 21.06L32.8407 21.14L32.8807 21.22L32.9207 21.3L32.9607 21.37L33.0107 21.45L33.0507 21.52L33.1107 21.59L33.1607 21.67L33.2107 21.74L33.2707 21.81L33.3307 21.87L33.3907 21.94L33.4607 22L33.5207 22.07L33.5907 22.13L33.6607 22.19L33.7307 22.25L33.8107 22.31L33.8807 22.36L33.9607 22.42L34.0407 22.47L34.1207 22.53L34.2007 22.58L34.2907 22.62L34.3707 22.67L34.4607 22.72L34.5507 22.76L34.6407 22.8L34.7307 22.84L34.8307 22.88L34.9207 22.92L35.0207 22.95L35.1207 22.99L35.2207 23.02L35.3207 23.05L35.4207 23.08L35.5307 23.1L35.6307 23.13L35.7407 23.15L35.8407 23.17L35.9507 23.19L36.0607 23.2L36.1707 23.22L36.2807 23.23L36.3907 23.24L36.5007 23.25H36.6107L36.7307 23.26H36.8407H36.9607H37.0707L37.1907 23.25L37.3107 23.24H37.4307L37.5407 23.22L37.6607 23.21L37.7807 23.19L37.8907 23.18L38.0107 23.16L38.1207 23.13L38.2407 23.11L38.3507 23.08L38.4607 23.05L38.5707 23.02L38.6707 22.99L38.7807 22.96L38.8907 22.92L38.9907 22.88L39.0907 22.84L39.1907 22.8L39.2907 22.76L39.3907 22.72L39.4907 22.67L39.5807 22.62L39.6807 22.57L39.7707 22.52L39.8607 22.47L39.9507 22.42L40.0407 22.36L40.1207 22.3L40.2107 22.25L40.2907 22.19L40.3707 22.13L40.4507 22.06L40.5207 22L40.6007 21.94L40.6707 21.87L40.7407 21.8L40.8107 21.73L40.8707 21.67L40.9407 21.59L41.0007 21.52L41.0607 21.45L41.1207 21.38L41.1707 21.3L41.2307 21.23L41.2807 21.15L41.3207 21.07L41.3707 21L41.4107 20.92L41.4607 20.84L41.4907 20.76L41.5307 20.68L41.5607 20.59L41.6007 20.51L41.6207 20.43L41.6507 20.34L41.6707 20.26L41.7007 20.17L41.7107 20.09L41.7307 20L41.7407 19.92L41.7507 19.83L41.7607 19.74V19.66V19.57V19.48L41.7507 19.39V19.3Z" fill="#383838"/>
<path d="M42.3406 15.4399V15.3999V15.3499L42.3306 15.2999V15.2499L42.3206 15.2099L42.3106 15.1599L42.3006 15.1199L42.2906 15.0699L42.2806 15.0299L42.2706 14.9799L42.2506 14.9399L42.2406 14.8999L42.2206 14.8499L42.2106 14.8099L42.2006 14.7899L42.1806 14.6999L42.1706 14.6499V14.5999L42.1606 14.5599L42.1506 14.5099L42.1406 14.4699L42.1306 14.4199L42.1206 14.3799L42.1106 14.3299L42.1006 14.2899L42.0806 14.2499L42.0706 14.1999L42.0506 14.1599L42.0306 14.1199L42.0106 14.0799L41.9906 14.0399L41.9706 13.9999L41.9506 13.9599L41.9306 13.9199L41.9106 13.8799L41.8806 13.8499L41.8606 13.8099L41.8306 13.7699L41.8006 13.7399L41.7806 13.6999L41.7506 13.6699L41.7206 13.6399L41.6906 13.5999L41.6606 13.5699L41.6306 13.5399L41.6006 13.5099L41.5606 13.4799L41.5306 13.4499L41.5006 13.4199L41.4606 13.3999L41.4306 13.3699L41.3906 13.3399L41.3506 13.3199L41.3206 13.2999L41.2806 13.2699L41.2406 13.2499L41.2006 13.2299L41.1606 13.2099L41.1206 13.1899L41.0806 13.1699L41.0406 13.1599L41.0006 13.1399L40.9606 13.1199L40.9106 13.1099L40.8706 13.0999L40.8306 13.0799L40.7806 13.0699L40.7406 13.0599L40.7006 13.0499L40.6506 13.0399H40.6106L40.5606 13.0299H40.5206L40.4706 13.0199H40.4306H40.3806H40.3306H40.2906H40.2406L40.1906 13.0299H40.1506L40.1006 13.0399H40.0506L40.0106 13.0499L39.9606 13.0599L39.9106 13.0699L39.8706 13.0799L39.8306 13.0899L39.7806 13.1099L39.7406 13.1199L39.7006 13.1399L39.6506 13.1499L39.6106 13.1699L39.5706 13.1899L39.5306 13.2099L39.4906 13.2299L39.4506 13.2499L39.4106 13.2699L39.3706 13.2999L39.3406 13.3199L39.3006 13.3499L39.2606 13.3699L39.2306 13.3999L39.1906 13.4299L39.1606 13.4499L39.1206 13.4799L39.0906 13.5099L39.0606 13.5399L39.0306 13.5699L39.0006 13.6099L38.9706 13.6399L38.9406 13.6699L38.9106 13.7099L38.8806 13.7399L38.8606 13.7799L38.8306 13.8099L38.8106 13.8499L38.7806 13.8899L38.7606 13.9199L38.7406 13.9599L38.7206 13.9999L38.6906 14.0399L38.6806 14.0799L38.6606 14.1199L38.6406 14.1599L38.6206 14.1999L38.6106 14.2399L38.5906 14.2899L38.5806 14.3299L38.5706 14.3699L38.5606 14.4099L38.5406 14.4599V14.4999L38.5306 14.5499L38.5206 14.5899L38.5106 14.6399V14.6799V14.7299L38.5006 14.7699V14.8199V14.8599V14.9099V14.9599L38.5106 14.9999V15.0499L38.5206 15.0999V15.1399L38.5306 15.1899L38.5406 15.2399L38.5506 15.2799L38.5606 15.3299L38.5706 15.3699L38.5906 15.4099L38.6006 15.4599L38.6206 15.4999V15.5199L38.6706 15.6999L38.6806 15.7499V15.7899L38.6906 15.8399L38.7006 15.8899L38.7106 15.9299L38.7206 15.9799L38.7306 16.0199L38.7506 16.0599L38.7606 16.1099L38.7806 16.1499L38.7906 16.1899L38.8106 16.2299L38.8306 16.2699L38.8506 16.3099L38.8706 16.3499L38.8906 16.3899L38.9106 16.4299L38.9406 16.4699L38.9606 16.5099L38.9906 16.5399L39.0106 16.5799L39.0406 16.6099L39.0606 16.6499L39.0906 16.6799L39.1206 16.7199L39.1506 16.7499L39.1806 16.7799L39.2106 16.8099L39.2506 16.8399L39.2806 16.8699L39.3106 16.8999L39.3506 16.9299L39.3806 16.9599L39.4206 16.9799L39.4506 17.0099L39.4906 17.0299L39.5306 17.0599L39.5606 17.0799L39.6006 17.0999L39.6406 17.1199L39.6806 17.1399L39.7206 17.1599L39.7606 17.1799L39.8006 17.1999L39.8406 17.2099L39.8906 17.2299L39.9306 17.2399L39.9706 17.2599L40.0106 17.2699L40.0606 17.2799L40.1006 17.2899L40.1506 17.2999L40.1906 17.3099L40.2306 17.3199H40.2806L40.3306 17.3299H40.3706H40.4206H40.4606H40.5106H40.5606H40.6006H40.6506L40.7006 17.3199H40.7406L40.7906 17.3099L40.8406 17.2999L40.8806 17.2899L40.9306 17.2799L40.9706 17.2699L41.0206 17.2599L41.0606 17.2499L41.1006 17.2299L41.1506 17.2199L41.1906 17.1999L41.2306 17.1799L41.2706 17.1599L41.3106 17.1399L41.3506 17.1199L41.3906 17.0999L41.4306 17.0799L41.4706 17.0599L41.5106 17.0299L41.5406 17.0099L41.5806 16.9799L41.6206 16.9499L41.6506 16.9299L41.6806 16.8999L41.7206 16.8699L41.7506 16.8399L41.7806 16.8099L41.8106 16.7799L41.8506 16.7499L41.8706 16.7099L41.9006 16.6799L41.9306 16.6499L41.9606 16.6099L41.9906 16.5799L42.0106 16.5399L42.0406 16.4999L42.0606 16.4699L42.0806 16.4299L42.1106 16.3899L42.1306 16.3499L42.1506 16.3099L42.1706 16.2699L42.1906 16.2299L42.2006 16.1899L42.2206 16.1499L42.2306 16.1099L42.2506 16.0699L42.2606 16.0199L42.2806 15.9799L42.2906 15.9399L42.3006 15.8899L42.3106 15.8499V15.8099L42.3206 15.7599L42.3306 15.7199V15.6699L42.3406 15.6299V15.5799V15.5299V15.4899V15.4399Z" fill="#383838"/>
<path d="M35.0205 16.1898V16.1498V16.0998L35.0105 16.0498L35.0005 16.0098L34.9905 15.9598V15.9198L34.9805 15.8698L34.9605 15.8298L34.9505 15.7798L34.9405 15.7398L34.9205 15.6998L34.9105 15.6498L34.8905 15.6098L34.8805 15.5898L34.8605 15.4998V15.4498L34.8505 15.3998L34.8405 15.3598V15.3098L34.8305 15.2698L34.8205 15.2198L34.8105 15.1798L34.7905 15.1298L34.7805 15.0898L34.7605 15.0498L34.7505 14.9998L34.7305 14.9598L34.7205 14.9198L34.7005 14.8798L34.6805 14.8398L34.6605 14.7998L34.6405 14.7598L34.6105 14.7198L34.5905 14.6798L34.5705 14.6398L34.5405 14.6098L34.5205 14.5698L34.4905 14.5398L34.4605 14.4998L34.4305 14.4698L34.4005 14.4298L34.3705 14.3998L34.3405 14.3698L34.3105 14.3398L34.2805 14.3098L34.2505 14.2798L34.2105 14.2498L34.1805 14.2198L34.1405 14.1998L34.1105 14.1698L34.0705 14.1398L34.0405 14.1198L34.0005 14.0998L33.9605 14.0698L33.9205 14.0498L33.8805 14.0298L33.8405 14.0098L33.8005 13.9898L33.7605 13.9698L33.7205 13.9498L33.6805 13.9398L33.6405 13.9198L33.6005 13.9098L33.5605 13.8898L33.5105 13.8798L33.4705 13.8698L33.4205 13.8598L33.3805 13.8498L33.3405 13.8398H33.2905L33.2505 13.8298H33.2005L33.1605 13.8198H33.1105H33.0605H33.0205H32.9705H32.9205H32.8805L32.8305 13.8298H32.7805L32.7405 13.8398L32.6905 13.8498L32.6405 13.8598L32.6005 13.8698L32.5505 13.8798L32.5105 13.8898L32.4705 13.9098L32.4205 13.9198L32.3805 13.9398L32.3405 13.9498L32.3005 13.9698L32.2505 13.9898L32.2105 14.0098L32.1705 14.0298L32.1305 14.0498L32.0905 14.0698L32.0605 14.0998L32.0205 14.1198L31.9805 14.1398L31.9505 14.1698L31.9105 14.1998L31.8805 14.2198L31.8405 14.2498L31.8105 14.2798L31.7705 14.3098L31.7405 14.3398L31.7105 14.3698L31.6805 14.3998L31.6505 14.4398L31.6205 14.4698L31.5905 14.4998L31.5705 14.5398L31.5405 14.5698L31.5105 14.6098L31.4905 14.6498L31.4705 14.6798L31.4405 14.7198L31.4205 14.7598L31.4005 14.7998L31.3805 14.8398L31.3605 14.8798L31.3405 14.9198L31.3205 14.9598L31.3105 14.9998L31.2905 15.0398L31.2805 15.0798L31.2605 15.1298L31.2505 15.1698L31.2405 15.2098L31.2305 15.2598L31.2205 15.2998L31.2105 15.3498L31.2005 15.3898V15.4298L31.1905 15.4798V15.5298V15.5698L31.1805 15.6198V15.6598L31.1905 15.7098V15.7598V15.7998L31.2005 15.8498V15.8998L31.2105 15.9398L31.2205 15.9898V16.0298L31.2305 16.0798L31.2505 16.1198L31.2605 16.1698L31.2705 16.2098L31.2905 16.2598L31.3005 16.2998L31.3105 16.3198L31.3505 16.4998L31.3605 16.5498L31.3705 16.5898V16.6398L31.3805 16.6798L31.3905 16.7298L31.4005 16.7698L31.4205 16.8198L31.4305 16.8598L31.4505 16.8998L31.4605 16.9498L31.4805 16.9898L31.4905 17.0298L31.5105 17.0698L31.5305 17.1098L31.5505 17.1498L31.5705 17.1898L31.6005 17.2298L31.6205 17.2698L31.6405 17.3098L31.6705 17.3398L31.6905 17.3798L31.7205 17.4098L31.7505 17.4498L31.7805 17.4798L31.8105 17.5198L31.8405 17.5498L31.8705 17.5798L31.9005 17.6098L31.9305 17.6398L31.9605 17.6698L32.0005 17.6998L32.0305 17.7298L32.0705 17.7598L32.1005 17.7798L32.1405 17.8098L32.1705 17.8298L32.2105 17.8598L32.2505 17.8798L32.2905 17.8998L32.3305 17.9198L32.3705 17.9398L32.4105 17.9598L32.4505 17.9798L32.4905 17.9998L32.5305 18.0098L32.5705 18.0298L32.6105 18.0398L32.6505 18.0598L32.7005 18.0698L32.7405 18.0798L32.7905 18.0898L32.8305 18.0998L32.8705 18.1098H32.9205L32.9605 18.1198H33.0105L33.0505 18.1298H33.1005H33.1505H33.1905H33.2405H33.2905H33.3305L33.3805 18.1198H33.4305L33.4705 18.1098L33.5205 18.0998L33.5705 18.0898L33.6105 18.0798L33.6605 18.0698L33.7005 18.0598L33.7405 18.0398L33.7905 18.0298L33.8305 18.0098L33.8705 17.9998L33.9105 17.9798L33.9605 17.9598L34.0005 17.9398L34.0405 17.9198L34.0805 17.8998L34.1205 17.8798L34.1505 17.8598L34.1905 17.8298L34.2305 17.8098L34.2605 17.7798L34.3005 17.7498L34.3305 17.7298L34.3705 17.6998L34.4005 17.6698L34.4405 17.6398L34.4705 17.6098L34.5005 17.5798L34.5305 17.5498L34.5605 17.5098L34.5905 17.4798L34.6205 17.4498L34.6405 17.4098L34.6705 17.3798L34.7005 17.3398L34.7205 17.2998L34.7405 17.2698L34.7705 17.2298L34.7905 17.1898L34.8105 17.1498L34.8305 17.1098L34.8505 17.0698L34.8705 17.0298L34.8905 16.9898L34.9005 16.9498L34.9205 16.9098L34.9305 16.8698L34.9505 16.8198L34.9605 16.7798L34.9705 16.7398L34.9805 16.6898L34.9905 16.6498L35.0005 16.6098L35.0105 16.5598V16.5198L35.0205 16.4698V16.4198V16.3798L35.0305 16.3298V16.2898L35.0205 16.2398V16.1898Z" fill="#383838"/>
<path d="M40.4909 16.6799L40.5409 16.6699H40.5809L40.6309 16.6599L40.6809 16.6499L40.7209 16.6399L40.7709 16.6299L40.8109 16.6199L40.8609 16.6099L40.9009 16.5999L40.9509 16.5799L40.9909 16.5699L41.0309 16.5499L41.0709 16.5299L41.1109 16.5099L41.1509 16.4899L41.1909 16.4699L41.2309 16.4499L41.2709 16.4299L41.3109 16.4099L41.3509 16.3799L41.3809 16.3599L41.4209 16.3299L41.4609 16.3099L41.4909 16.2799L41.5309 16.2499L41.5609 16.2199L41.5909 16.1899L41.6209 16.1599L41.6609 16.1299L41.6909 16.0999L41.7209 16.0599L41.7409 16.0299L41.7709 15.9999L41.8009 15.9599L41.8309 15.9299L41.8509 15.8899L41.8809 15.8499L41.9009 15.8199L41.9209 15.7799L41.9509 15.7399L41.9709 15.6999L41.9909 15.6599L42.0109 15.6199L42.0309 15.5799L42.0409 15.5399L42.0609 15.4999L42.0809 15.4599L42.0909 15.4199L42.1009 15.3699L42.1209 15.3299L42.1309 15.2899L42.1409 15.2399L42.1509 15.1999L42.1609 15.1599V15.1099L42.1709 15.0699V15.0199L42.1809 14.9799V14.9299V14.8799V14.8399V14.7899V14.7499V14.6999L42.1709 14.6499V14.5999L42.1609 14.5599L42.1509 14.5099L42.1409 14.4699L42.1309 14.4199L42.1209 14.3799L42.1109 14.3299L42.1009 14.2899L42.0809 14.2499L42.0709 14.1999L42.0509 14.1599L42.0309 14.1199L42.0109 14.0799L41.9909 14.0399L41.9709 13.9999L41.9509 13.9599L41.9309 13.9199L41.9109 13.8799L41.8809 13.8499L41.8609 13.8099L41.8309 13.7699L41.8009 13.7399L41.7809 13.6999L41.7509 13.6699L41.7209 13.6399L41.6909 13.5999L41.6609 13.5699L41.6309 13.5399L41.6009 13.5099L41.5609 13.4799L41.5309 13.4499L41.5009 13.4199L41.4609 13.3999L41.4309 13.3699L41.3909 13.3399L41.3509 13.3199L41.3209 13.2999L41.2809 13.2699L41.2409 13.2499L41.2009 13.2299L41.1609 13.2099L41.1209 13.1899L41.0809 13.1699L41.0409 13.1599L41.0009 13.1399L40.9609 13.1199L40.9109 13.1099L40.8709 13.0999L40.8309 13.0799L40.7809 13.0699L40.7409 13.0599L40.7009 13.0499L40.6509 13.0399H40.6109L40.5609 13.0299H40.5209L40.4709 13.0199H40.4309H40.3809H40.3309H40.2909H40.2409L40.1909 13.0299H40.1509L40.1009 13.0399H40.0509L40.0109 13.0499L39.9609 13.0599L39.9109 13.0699L39.8709 13.0799L39.8309 13.0899L39.7809 13.1099L39.7409 13.1199L39.7009 13.1399L39.6509 13.1499L39.6109 13.1699L39.5709 13.1899L39.5309 13.2099L39.4909 13.2299L39.4509 13.2499L39.4109 13.2699L39.3709 13.2999L39.3409 13.3199L39.3009 13.3499L39.2609 13.3699L39.2309 13.3999L39.1909 13.4299L39.1609 13.4499L39.1209 13.4799L39.0909 13.5099L39.0609 13.5399L39.0309 13.5699L39.0009 13.6099L38.9709 13.6399L38.9409 13.6699L38.9109 13.7099L38.8809 13.7399L38.8609 13.7799L38.8309 13.8099L38.8109 13.8499L38.7809 13.8899L38.7609 13.9199L38.7409 13.9599L38.7209 13.9999L38.6909 14.0399L38.6809 14.0799L38.6609 14.1199L38.6409 14.1599L38.6209 14.1999L38.6109 14.2399L38.5909 14.2899L38.5809 14.3299L38.5709 14.3699L38.5609 14.4099L38.5409 14.4599V14.4999L38.5309 14.5499L38.5209 14.5899L38.5109 14.6399V14.6799V14.7299L38.5009 14.7699V14.8199V14.8599V14.9099V14.9599L38.5109 14.9999V15.0499L38.5209 15.0999V15.1399L38.5309 15.1899L38.5409 15.2399L38.5509 15.2799L38.5609 15.3299L38.5709 15.3699L38.5909 15.4099L38.6009 15.4599L38.6209 15.4999L38.6309 15.5399L38.6509 15.5799L38.6709 15.6199L38.6909 15.6599L38.7109 15.6999L38.7309 15.7399L38.7509 15.7799L38.7809 15.8199L38.8009 15.8599L38.8309 15.8899L38.8509 15.9299L38.8809 15.9699L38.9109 15.9999L38.9309 16.0299L38.9609 16.0699L38.9909 16.0999L39.0209 16.1299L39.0609 16.1599L39.0909 16.1899L39.1209 16.2199L39.1509 16.2499L39.1909 16.2799L39.2209 16.3099L39.2609 16.3299L39.2909 16.3599L39.3309 16.3799L39.3709 16.4099L39.4109 16.4299L39.4409 16.4499L39.4809 16.4699L39.5209 16.4899L39.5609 16.5099L39.6009 16.5299L39.6409 16.5499L39.6809 16.5599L39.7309 16.5799L39.7709 16.5899L39.8109 16.6099L39.8509 16.6199L39.9009 16.6299L39.9409 16.6399L39.9909 16.6499L40.0309 16.6599L40.0809 16.6699H40.1209L40.1709 16.6799H40.2109H40.2609H40.3009H40.3509H40.4009H40.4409H40.4909Z" fill="#383838"/>
<path d="M33.1705 17.4799L33.2205 17.4699H33.2705L33.3205 17.4599L33.3605 17.4499L33.4105 17.4399L33.4505 17.4299L33.5005 17.4199L33.5405 17.4099L33.5905 17.3899L33.6305 17.3799L33.6705 17.3599L33.7105 17.3499L33.7605 17.3299L33.8005 17.3099L33.8405 17.2899L33.8805 17.2699L33.9205 17.2499L33.9605 17.2299L33.9905 17.2099L34.0305 17.1799L34.0705 17.1599L34.1105 17.1299L34.1405 17.0999L34.1805 17.0799L34.2105 17.0499L34.2405 17.0199L34.2805 16.9899L34.3105 16.9599L34.3405 16.9299L34.3705 16.8999L34.4005 16.8599L34.4305 16.8299L34.4605 16.7999L34.4805 16.7599L34.5105 16.7299L34.5405 16.6899L34.5605 16.6499L34.5905 16.6199L34.6105 16.5799L34.6305 16.5399L34.6505 16.4999L34.6705 16.4599L34.6905 16.4199L34.7105 16.3799L34.7305 16.3399L34.7405 16.2999L34.7605 16.2599L34.7705 16.2199L34.7905 16.1699L34.8005 16.1299L34.8105 16.0899L34.8205 16.0399L34.8305 15.9999L34.8405 15.9599L34.8505 15.9099V15.8699L34.8605 15.8199V15.7699V15.7299L34.8705 15.6799V15.6399V15.5899L34.8605 15.5399V15.4999V15.4499L34.8505 15.3999L34.8405 15.3599V15.3099L34.8305 15.2699L34.8205 15.2199L34.8105 15.1799L34.7905 15.1299L34.7805 15.0899L34.7605 15.0499L34.7505 14.9999L34.7305 14.9599L34.7205 14.9199L34.7005 14.8799L34.6805 14.8399L34.6605 14.7999L34.6405 14.7599L34.6105 14.7199L34.5905 14.6799L34.5705 14.6399L34.5405 14.6099L34.5205 14.5699L34.4905 14.5399L34.4605 14.4999L34.4305 14.4699L34.4005 14.4299L34.3705 14.3999L34.3405 14.3699L34.3105 14.3399L34.2805 14.3099L34.2505 14.2799L34.2105 14.2499L34.1805 14.2199L34.1405 14.1999L34.1105 14.1699L34.0705 14.1399L34.0405 14.1199L34.0005 14.0999L33.9605 14.0699L33.9205 14.0499L33.8805 14.0299L33.8405 14.0099L33.8005 13.9899L33.7605 13.9699L33.7205 13.9499L33.6805 13.9399L33.6405 13.9199L33.6005 13.9099L33.5605 13.8899L33.5105 13.8799L33.4705 13.8699L33.4205 13.8599L33.3805 13.8499L33.3405 13.8399H33.2905L33.2505 13.8299H33.2005L33.1605 13.8199H33.1105H33.0605H33.0205H32.9705H32.9205H32.8805L32.8305 13.8299H32.7805L32.7405 13.8399L32.6905 13.8499L32.6405 13.8599L32.6005 13.8699L32.5505 13.8799L32.5105 13.8899L32.4705 13.9099L32.4205 13.9199L32.3805 13.9399L32.3405 13.9499L32.3005 13.9699L32.2505 13.9899L32.2105 14.0099L32.1705 14.0299L32.1305 14.0499L32.0905 14.0699L32.0605 14.0999L32.0205 14.1199L31.9805 14.1399L31.9505 14.1699L31.9105 14.1999L31.8805 14.2199L31.8405 14.2499L31.8105 14.2799L31.7705 14.3099L31.7405 14.3399L31.7105 14.3699L31.6805 14.3999L31.6505 14.4399L31.6205 14.4699L31.5905 14.4999L31.5705 14.5399L31.5405 14.5699L31.5105 14.6099L31.4905 14.6499L31.4705 14.6799L31.4405 14.7199L31.4205 14.7599L31.4005 14.7999L31.3805 14.8399L31.3605 14.8799L31.3405 14.9199L31.3205 14.9599L31.3105 14.9999L31.2905 15.0399L31.2805 15.0799L31.2605 15.1299L31.2505 15.1699L31.2405 15.2099L31.2305 15.2599L31.2205 15.2999L31.2105 15.3499L31.2005 15.3899V15.4299L31.1905 15.4799V15.5299V15.5699L31.1805 15.6199V15.6599L31.1905 15.7099V15.7599V15.7999L31.2005 15.8499V15.8999L31.2105 15.9399L31.2205 15.9899V16.0299L31.2305 16.0799L31.2505 16.1199L31.2605 16.1699L31.2705 16.2099L31.2905 16.2599L31.3005 16.2999L31.3205 16.3399L31.3405 16.3799L31.3505 16.4199L31.3705 16.4599L31.3905 16.4999L31.4205 16.5399L31.4405 16.5799L31.4605 16.6199L31.4905 16.6599L31.5105 16.6899L31.5405 16.7299L31.5605 16.7599L31.5905 16.7999L31.6205 16.8299L31.6505 16.8699L31.6805 16.8999L31.7105 16.9299L31.7405 16.9599L31.7705 16.9899L31.8005 17.0199L31.8405 17.0499L31.8705 17.0799L31.9105 17.1099L31.9405 17.1299L31.9805 17.1599L32.0105 17.1799L32.0505 17.2099L32.0905 17.2299L32.1305 17.2499L32.1705 17.2699L32.2105 17.2899L32.2505 17.3099L32.2905 17.3299L32.3305 17.3499L32.3705 17.3599L32.4105 17.3799L32.4505 17.3899L32.5005 17.4099L32.5405 17.4199L32.5805 17.4299L32.6305 17.4399L32.6705 17.4499L32.7105 17.4599H32.7605L32.8005 17.4699L32.8505 17.4799H32.9005H32.9405H32.9905H33.0305H33.0805H33.1305H33.1705Z" fill="#383838"/>
<path d="M48.2107 19.45L48.2007 19.17L48.1807 18.89L48.1507 18.61L46.7707 5.85996L24.8207 8.25996L26.1907 21L26.2207 21.28L26.2607 21.56L26.3107 21.84L26.3607 22.11L26.4207 22.38L26.4907 22.65L26.5607 22.91L26.6407 23.17L26.7307 23.43L26.8207 23.69L26.9207 23.94L27.0207 24.19L27.1307 24.44L27.2507 24.68L27.3707 24.92L27.5007 25.16L27.6307 25.39L27.7707 25.62L27.9107 25.84L28.0607 26.06L28.2107 26.28L28.3707 26.49L28.5307 26.7L28.7007 26.9L28.8707 27.1L29.0507 27.3L29.2707 27.48L29.4607 27.67L29.6507 27.85L29.8507 28.03L30.0507 28.2L30.2507 28.37L30.4607 28.53L30.6707 28.69L30.8907 28.84L31.1107 28.99L31.3307 29.13L31.5607 29.27L31.7907 29.4L32.0207 29.53L32.2607 29.65L32.5007 29.77L32.7407 29.88L32.9907 29.98L33.2407 30.08L33.4907 30.17L33.7407 30.26L34.0007 30.34L34.2607 30.41L34.5207 30.48L34.7807 30.54L35.0507 30.59L35.3207 30.64L35.5907 30.68L35.8607 30.72L36.1307 30.75L36.4007 30.77L36.6807 30.79L36.9607 30.8H37.2407L37.5207 30.79L37.8007 30.78L38.0807 30.76L38.3607 30.73L38.6407 30.7L38.9207 30.66L39.2007 30.61L39.4707 30.56L39.7407 30.48L40.0107 30.41L40.2807 30.34L40.5407 30.26L40.8007 30.17L41.0607 30.08L41.3107 29.98L41.5607 29.87L41.8107 29.76L42.0507 29.64L42.2907 29.52L42.5307 29.39L42.7607 29.26L42.9907 29.12L43.2207 28.98L43.4407 28.83L43.6607 28.68L43.8707 28.52L44.0807 28.36L44.2907 28.19L44.4907 28.02L44.6907 27.84L44.8807 27.66L45.0707 27.47L45.2507 27.28L45.4307 27.08L45.6007 26.88L45.7707 26.68L45.9307 26.47L46.0907 26.26L46.2407 26.04L46.3907 25.82L46.5307 25.6L46.6707 25.37L46.8007 25.14L46.9307 24.91L47.0507 24.67L47.1707 24.43L47.2807 24.19L47.3807 23.95L47.4807 23.7L47.5707 23.45L47.6607 23.2L47.7407 22.94L47.8107 22.68L47.8807 22.42L47.9407 22.16L48.0007 21.9L48.0507 21.63L48.0907 21.36L48.1307 21.09L48.1607 20.82L48.1807 20.55L48.2007 20.28L48.2107 20V19.72V19.45ZM44.5307 19.94L44.5207 20.12L44.5107 20.3L44.4907 20.48L44.4707 20.66L44.4507 20.84L44.4207 21.02L44.3907 21.2L44.3507 21.38L44.3107 21.55L44.2607 21.72L44.2207 21.9L44.1707 22.07L44.1107 22.24L44.0507 22.41L43.9807 22.57L43.9107 22.73L43.8407 22.89L43.7607 23.05L43.6807 23.21L43.6007 23.36L43.5107 23.51L43.4207 23.66L43.3207 23.81L43.2207 23.96L43.1207 24.1L43.0107 24.24L42.9007 24.38L42.7907 24.52L42.6707 24.65L42.5507 24.78L42.4307 24.91L42.3107 25.03L42.1807 25.15L42.0507 25.27L41.9207 25.39L41.7807 25.5L41.6407 25.61L41.5007 25.72L41.3507 25.82L41.2007 25.92L41.0507 26.02L40.9007 26.11L40.7407 26.2L40.5807 26.29L40.4207 26.37L40.2607 26.45L40.1007 26.52L39.9307 26.59L39.7607 26.66L39.5907 26.72L39.4207 26.78L39.2407 26.83L39.0607 26.88L38.8807 26.93L38.7007 26.97L38.5207 27.01L38.3307 27.04L38.1407 27.07L37.9507 27.09L37.7607 27.11L37.5707 27.12L37.3807 27.13H37.1907H37.0007L36.8107 27.12L36.6307 27.11L36.4507 27.1L36.2707 27.08L36.0907 27.06L35.9107 27.03L35.7307 27L35.5507 26.96L35.3707 26.92L35.2207 26.87L35.0507 26.82L34.8807 26.77L34.7107 26.71L34.5407 26.65L34.3707 26.58L34.2107 26.51L34.0507 26.44L33.8907 26.36L33.7307 26.28L33.5707 26.2L33.4207 26.11L33.2707 26.02L33.1207 25.93L32.9707 25.83L32.8307 25.73L32.6907 25.63L32.5507 25.52L32.4107 25.41L32.2807 25.3L32.1507 25.18L32.0207 25.06L31.9007 24.94L31.7807 24.81L31.6607 24.68L31.5407 24.55L31.4307 24.41L31.3207 24.27L31.2207 24.12L31.1207 23.98L31.0207 23.83L30.9207 23.68L30.8307 23.53L30.7407 23.38L30.6507 23.22L30.5707 23.06L30.4907 22.9L30.4207 22.74L30.3507 22.57L30.2807 22.4L30.2207 22.22L30.1607 22.05L30.1107 21.88L30.0607 21.7L30.0107 21.52L29.9707 21.34L29.9307 21.16L29.9007 20.98L29.8707 20.79L29.8507 20.6L28.8707 11.5L43.5007 9.89996L44.4807 19L44.5007 19.19L44.5107 19.38L44.5207 19.57V19.76L44.5307 19.94Z" fill="#383838"/>
<path d="M18.1802 9.85975L18.1403 9.83976L18.1003 9.82977L18.0603 9.81978L18.0203 9.80978H17.9803L17.9404 9.79979L17.9004 9.78979H17.8604H17.8204L17.7804 9.7798H17.7305H17.6905H17.6505H17.6105L17.5706 9.78979L18.2502 9.87974L18.2202 9.86975L18.1802 9.85975Z" fill="#DD5757"/>
<path d="M22.1301 11.8897V11.8397V11.7897L22.1201 11.7497V11.6997L22.1101 11.6497L22.1001 11.6097V11.5597L22.0901 11.5197L22.0801 11.4697L22.0701 11.4297L22.0501 11.3897L22.0401 11.3397L22.0301 11.2997L22.0101 11.2597L21.9901 11.2197L21.9801 11.1797L21.9601 11.1397L21.9401 11.0997L21.9201 11.0597L21.9001 11.0197L21.8801 10.9897L21.8601 10.9497L21.8401 10.9097L21.8101 10.8797L21.7901 10.8397L21.7601 10.8097L21.7401 10.7797L21.7101 10.7397L21.6801 10.7097L21.6601 10.6797L21.6301 10.6497L21.6001 10.6197L21.5701 10.5897L21.5401 10.5597L21.5101 10.5397L21.4801 10.5097L21.4401 10.4897L21.4101 10.4597L21.3801 10.4397L21.3401 10.4097L21.3101 10.3897L21.2701 10.3697L21.2401 10.3497L21.2001 10.3297L21.1701 10.3097L21.1301 10.2997L21.0901 10.2797L21.0601 10.2597L21.0201 10.2497L20.9801 10.2397L20.9401 10.2197L20.9001 10.2097L20.8601 10.1997L20.8201 10.1897H20.7801L20.7401 10.1797L20.7001 10.1697H20.6601L20.6201 10.1597H20.5801H20.5301H20.4901H20.4501H20.4101L20.3601 10.1697L18.2501 9.87968H18.2601L18.2901 9.89968L18.3301 9.91968L18.3701 9.92968L18.4001 9.94968L18.4401 9.96968L18.4801 9.98968L18.5101 10.0097L18.5401 10.0297L18.5801 10.0597L18.6101 10.0797L18.6401 10.1097L18.6801 10.1297L18.7101 10.1597L18.7401 10.1797L18.7701 10.2097L18.8001 10.2397L18.8301 10.2697L18.8601 10.2997L18.8801 10.3297L18.9101 10.3597L18.9401 10.3997L18.9601 10.4297L18.9901 10.4597L19.0101 10.4997L19.0401 10.5297L19.0601 10.5697L19.0801 10.6097L19.1001 10.6397L19.1201 10.6797L19.1401 10.7197L19.1601 10.7597L19.1801 10.7997L19.2001 10.8397L19.2101 10.8797L19.2301 10.9197L19.2401 10.9697L19.2501 11.0097L19.2701 11.0497L19.2801 11.0897L19.2901 11.1397L19.3001 11.1797L19.3101 11.2297V11.2697L19.3201 11.3197V11.3697L19.3301 11.4097V11.4597V11.5097L19.3401 11.5497L19.3301 11.5997V11.6497V11.6897V11.7397L19.3201 11.7797V11.8297L19.3101 11.8797L19.3001 11.9197V11.9597L19.2901 12.0097L19.2801 12.0497L19.2701 12.0997L19.2501 12.1397L19.2401 12.1797L19.2301 12.2197L19.2101 12.2697L19.2001 12.3097L19.1801 12.3497L19.1601 12.3897L19.1401 12.4297L19.1201 12.4697L19.1001 12.5097L19.0801 12.5497L19.0601 12.5797L19.0401 12.6197L19.0201 12.6597L18.9901 12.6897L18.9701 12.7297L18.9401 12.7597L18.9101 12.7997L18.8901 12.8297L18.8601 12.8697L18.8301 12.8997L18.8001 12.9297L18.7701 12.9597L18.7401 12.9897L18.7101 13.0197L18.6801 13.0497L18.6501 13.0697L18.6201 13.0997L18.5801 13.1297L18.5501 13.1497L18.5101 13.1797L18.4801 13.1997L18.4401 13.2197L18.4101 13.2397L18.3701 13.2597L18.3301 13.2797L18.2901 13.2997L18.2601 13.3197L18.2201 13.3397L18.1801 13.3497L18.1401 13.3697L18.1001 13.3797L18.0601 13.3897L18.0201 13.4097L17.9801 13.4197L17.9401 13.4297H17.8901L17.8501 13.4397L17.8101 13.4497H17.7701L20.5601 13.8297H20.6101L20.6501 13.8197L20.6901 13.8097H20.7301L20.7801 13.7997L20.8201 13.7897L20.8601 13.7697L20.9001 13.7597L20.9401 13.7497L20.9801 13.7297L21.0201 13.7197L21.0601 13.6997L21.0901 13.6797L21.1301 13.6597L21.1701 13.6397L21.2101 13.6197L21.2401 13.5997L21.2801 13.5797L21.3101 13.5597L21.3501 13.5297L21.3801 13.5097L21.4101 13.4797L21.4501 13.4497L21.4801 13.4297L21.5101 13.3997L21.5401 13.3697L21.5701 13.3397L21.6001 13.3097L21.6301 13.2797L21.6601 13.2497L21.6901 13.2097L21.7101 13.1797L21.7401 13.1397L21.7701 13.1097L21.7901 13.0697L21.8101 13.0397L21.8401 12.9997L21.8601 12.9597L21.8801 12.9297L21.9001 12.8897L21.9201 12.8497L21.9401 12.8097L21.9601 12.7697L21.9801 12.7297L21.9901 12.6897L22.0101 12.6497L22.0201 12.5997L22.0401 12.5597L22.0501 12.5197L22.0601 12.4797L22.0801 12.4297L22.0901 12.3897L22.1001 12.3397V12.2997L22.1101 12.2597L22.1201 12.2097V12.1597L22.1301 12.1197V12.0697V12.0297V11.9797V11.9297V11.8897Z" fill="#DD5757"/>
<path d="M6.52059 5.42984L7.52059 18.2098L7.55059 18.4898L7.58059 18.7698L7.62059 19.0498L7.66059 19.3198L7.71059 19.5898L7.77059 19.8598L7.83059 20.1298L7.90059 20.3898L7.97059 20.6498L8.05059 20.9098L8.14059 21.1598L8.23059 21.4098L8.32059 21.6598L8.42059 21.8998L8.53059 22.1398L8.64059 22.3698L8.76059 22.6098L8.88059 22.8298L9.01059 23.0598L9.14059 23.2798L9.27059 23.4998L9.41059 23.7098L9.56059 23.9198L9.71059 24.1198L9.86059 24.3198L10.0206 24.5098L10.1806 24.7098L10.3506 24.8898L10.5206 25.0698L7.72059 24.6898L7.55059 24.5098L7.38059 24.3298L7.22059 24.1398L7.06059 23.9398L6.91059 23.7398L6.76059 23.5398L6.61059 23.3298L6.47059 23.1198L6.34059 22.8998L6.21059 22.6798L6.08059 22.4498L5.96059 22.2298L5.84059 21.9898L5.73059 21.7598L5.62059 21.5198L5.52059 21.2798L5.43059 21.0298L5.34059 20.7798L5.25059 20.5298L5.17059 20.2698L5.10059 20.0098L5.03059 19.7498L4.97059 19.4798L4.91059 19.2098L4.86059 18.9398L4.82059 18.6698L4.78059 18.3898L4.75059 18.1098L4.72059 17.8298L3.73059 5.04984L6.52059 5.42984Z" stroke="black" stroke-width="0.0100076" stroke-miterlimit="10"/>
<path d="M26.4706 2.95988L6.52059 5.42988L3.73059 5.04988L23.6706 2.57988L26.4706 2.95988Z" stroke="black" stroke-width="0.0100076" stroke-miterlimit="10"/>
<path d="M14.1806 27.47L13.9506 27.38L13.7206 27.29L13.5006 27.19L13.2806 27.09L13.0606 26.98L12.8406 26.87L12.6306 26.75L12.4206 26.62L12.2206 26.49L12.0206 26.35L11.8206 26.21L11.6206 26.06L11.4306 25.91L11.2406 25.75L11.0506 25.59L10.8706 25.42L10.6906 25.25L10.5206 25.07L7.72058 24.69L7.89058 24.87L8.07058 25.04L8.25058 25.21L8.44058 25.37L8.63058 25.53L8.82058 25.68L9.02058 25.83L9.22058 25.97L9.42058 26.11L9.62058 26.24L9.83058 26.37L10.0506 26.49L10.2606 26.6L10.4806 26.71L10.7006 26.81L10.9206 26.91L11.1506 27L11.3806 27.09L11.6106 27.17L11.8406 27.24L12.0806 27.31L12.3106 27.37L12.5506 27.42L12.7906 27.47L13.0406 27.51L13.2806 27.55L13.5306 27.57L13.7806 27.6L14.0306 27.61L14.2806 27.62H14.5306H14.6206L14.4106 27.55L14.1806 27.47Z" fill="#DD5757"/>
<path d="M27.5007 16.2999L27.4907 16.0199L27.4707 15.7399L26.4707 2.95989L23.6707 2.57989L24.6707 15.3599L24.6907 15.6399L24.7007 15.9199L24.7107 16.2099V16.4899L24.7007 16.7599L24.6907 17.0399L24.6707 17.3199L24.6407 17.5899L24.6107 17.8599L24.5707 18.1299L24.5307 18.3999L24.4807 18.6699L24.4207 18.9399L24.3607 19.1999L24.2907 19.4599L24.2207 19.7199L24.1407 19.9699L24.0607 20.2299L23.9707 20.4799L23.8707 20.7299L23.7707 20.9699L23.6707 21.2199L23.5607 21.4599L23.4407 21.6899L23.3207 21.9299L23.2007 22.1599L23.0707 22.3799L22.9407 22.6099L22.8007 22.8299L22.6507 23.0399L22.5107 23.2599L22.3507 23.4599L22.2007 23.6699L22.0307 23.8699L21.8707 24.0699L21.7007 24.2599L21.5307 24.4499L21.3507 24.6299L21.1707 24.8099L20.9807 24.9899L20.7907 25.1599L20.6007 25.3199L20.4007 25.4799L20.2007 25.6399L20.0007 25.7899L19.7907 25.9299L19.5807 26.0699L19.3707 26.2099L19.1507 26.3299L18.9307 26.4599L18.7107 26.5799L18.4807 26.6899L18.2507 26.7899L18.0207 26.8899L17.7807 26.9899L17.5407 27.0799L17.3007 27.1599L17.0607 27.2299L16.8207 27.2999L16.5707 27.3699L16.3207 27.4199L16.0707 27.4699L15.8107 27.5099L15.5507 27.5499L15.3007 27.5799L15.0407 27.5999L14.7807 27.6099L14.6207 27.6199H14.6407L14.8707 27.6899L15.1107 27.7499L15.3507 27.7999L15.5907 27.8499L15.8407 27.8899L16.0807 27.9299L16.3307 27.9499L16.5807 27.9699L16.8307 27.9899L17.0807 27.9999H17.3307L17.5807 27.9899L17.8407 27.9799L18.1007 27.9599L18.3507 27.9299L18.6107 27.8899L18.8607 27.8499L19.1207 27.7999L19.3707 27.7399L19.6107 27.6799L19.8607 27.6099L20.1007 27.5399L20.3407 27.4599L20.5807 27.3699L20.8207 27.2699L21.0507 27.1699L21.2807 27.0699L21.5007 26.9599L21.7307 26.8399L21.9507 26.7099L22.1607 26.5899L22.3807 26.4499L22.5907 26.3099L22.8007 26.1699L23.0007 26.0199L23.2007 25.8599L23.4007 25.6999L23.5907 25.5399L23.7807 25.3699L23.9707 25.1899L24.1507 25.0099L24.3207 24.8299L24.5007 24.6399L24.6707 24.4499L24.8307 24.2499L24.9907 24.0499L25.1507 23.8399L25.3007 23.6399L25.4507 23.4199L25.6007 23.2099L25.7307 22.9899L25.8707 22.7599L26.0007 22.5399L26.1207 22.3099L26.2407 22.0699L26.3607 21.8299L26.4707 21.5999L26.5707 21.3499L26.6707 21.1099L26.7707 20.8599L26.8607 20.6099L26.9407 20.3499L27.0207 20.0999L27.0907 19.8399L27.1607 19.5799L27.2207 19.3199L27.2807 19.0499L27.3307 18.7799L27.3707 18.5099L27.4107 18.2399L27.4407 17.9699L27.4707 17.6999L27.4807 17.4199L27.5007 17.1399L27.5107 16.8599V16.5899L27.5007 16.2999Z" fill="#DD5757"/>
<path d="M14.8307 23.7899L14.6807 23.7199L14.5407 23.6499L14.3907 23.5699L14.2507 23.4899L14.1107 23.4099L13.9807 23.3199L13.8407 23.2299L13.7107 23.1299L13.5807 23.0399L13.4507 22.9299L13.3207 22.8299L13.2007 22.7199L13.0807 22.6099L12.9607 22.4899L12.8407 22.3799L12.7307 22.2599L12.6207 22.1299L12.5107 21.9999L12.4007 21.8699L12.3007 21.7399L12.2007 21.6099L12.1107 21.4699L12.0107 21.3199L11.9207 21.1799L11.8307 21.0299L11.7507 20.8799L11.6707 20.7299L11.5907 20.5799L11.5207 20.4199L11.4507 20.2599L11.3807 20.0999L11.3207 19.9299L11.2607 19.7699L11.2007 19.5999L11.1507 19.4299L11.1007 19.2499L11.0507 19.0799L11.0107 18.8999L10.9707 18.7199L10.9407 18.5399L10.9107 18.3599L10.8907 18.1699L10.8607 17.9899L10.8507 17.7999L10.1307 8.66993L23.4307 7.01993L20.6307 6.63993L7.3407 8.28993L8.0507 17.4199L8.0707 17.6099L8.0907 17.7899L8.1107 17.9799L8.1407 18.1599L8.1807 18.3399L8.2107 18.5199L8.2507 18.6999L8.3007 18.8699L8.3507 19.0499L8.4007 19.2199L8.4607 19.3899L8.5207 19.5499L8.5807 19.7199L8.6507 19.8799L8.7207 20.0399L8.7907 20.1999L8.8707 20.3499L8.9507 20.4999L9.0407 20.6499L9.1207 20.7999L9.2107 20.9399L9.3107 21.0899L9.4007 21.2299L9.5007 21.3599L9.6107 21.4899L9.7107 21.6199L9.8207 21.7499L9.9307 21.8799L10.0407 21.9999L10.1607 22.1199L10.2807 22.2299L10.4007 22.3399L10.5207 22.4499L10.6507 22.5499L10.7807 22.6599L10.9107 22.7499L11.0407 22.8499L11.1807 22.9399L11.3107 23.0299L11.4507 23.1099L11.5907 23.1899L11.7407 23.2699L11.8807 23.3399L12.0307 23.4099L12.1807 23.4699L12.3307 23.5299L12.4807 23.5899L12.6307 23.6399L12.7907 23.6899L12.9507 23.7399L13.1107 23.7799L13.2707 23.8099L13.4307 23.8499L13.5907 23.8699L13.7507 23.8999L13.9207 23.9099L14.0807 23.9299L14.2507 23.9399H14.4207H14.5907H14.7507L14.9307 23.9299L15.1007 23.9199L15.1207 23.9099L14.9807 23.8499L14.8307 23.7899Z" fill="#DD5757"/>
<path d="M16.7607 23.52L16.6007 23.58L16.4407 23.64L16.2707 23.69L16.1107 23.73L15.9507 23.78L15.7807 23.81L15.6107 23.85L15.4407 23.87L15.2707 23.9L15.1207 23.91H15.1307L15.2807 23.97L15.4307 24.02L15.5907 24.07L15.7507 24.12L15.9007 24.16L16.0607 24.19L16.2207 24.23L16.3907 24.25L16.5507 24.28L16.7207 24.29L16.8807 24.31L17.0507 24.32H17.2207H17.3807H17.5507L17.7207 24.31L17.9007 24.3L18.0707 24.28L18.2407 24.25L18.4107 24.22L18.5807 24.19L18.7407 24.15L18.9107 24.11L19.0707 24.07L19.2407 24.02L19.4007 23.96L19.5507 23.9L19.7107 23.84L16.9107 23.46L16.7607 23.52Z" fill="#DD5757"/>
<path d="M23.4305 7.01993L24.1505 16.1499L24.1605 16.3399L24.1705 16.5299V16.7199V16.8999L24.1605 17.0899V17.2699L24.1405 17.4599L24.1305 17.6399L24.1005 17.8199L24.0805 17.9999L24.0505 18.1799L24.0205 18.3599L23.9805 18.5399L23.9405 18.7099L23.8905 18.8899L23.8505 19.0599L23.7905 19.2299L23.7405 19.3999L23.6805 19.5699L23.6205 19.7299L23.5505 19.8999L23.4805 20.0599L23.4105 20.2199L23.3305 20.3799L23.2505 20.5299L23.1705 20.6799L23.0805 20.8399L22.9905 20.9799L22.9005 21.1299L22.8005 21.2799L22.7005 21.4199L22.6005 21.5599L22.5005 21.6899L22.3905 21.8299L22.2805 21.9599L22.1705 22.0899L22.0505 22.2099L21.9305 22.3299L21.8105 22.4499L21.6905 22.5699L21.5605 22.6799L21.4305 22.7899L21.3005 22.8999L21.1705 22.9999L21.0305 23.0999L20.8905 23.1999L20.7505 23.2899L20.6105 23.3799L20.4705 23.4699L20.3205 23.5499L20.1705 23.6299L20.0205 23.6999L19.8705 23.7699L19.7105 23.8399L16.9105 23.4599L17.0705 23.3899L17.2205 23.3199L17.3705 23.2499L17.5205 23.1699L17.6705 23.0899L17.8105 22.9999L17.9505 22.9099L18.1005 22.8199L18.2305 22.7199L18.3705 22.6199L18.5005 22.5199L18.6305 22.4099L18.7605 22.2999L18.8905 22.1899L19.0105 22.0699L19.1305 21.9499L19.2505 21.8299L19.3705 21.7099L19.4805 21.5799L19.5905 21.4499L19.7005 21.3099L19.8005 21.1799L19.9005 21.0399L20.0005 20.8999L20.1005 20.7499L20.1905 20.6099L20.2805 20.4599L20.3705 20.2999L20.4505 20.1499L20.5305 19.9999L20.6105 19.8399L20.6805 19.6799L20.7505 19.5199L20.8205 19.3499L20.8805 19.1899L20.9405 19.0199L20.9905 18.8499L21.0505 18.6799L21.0905 18.5099L21.1405 18.3299L21.1805 18.1599L21.2205 17.9799L21.2505 17.7999L21.2805 17.6199L21.3105 17.4399L21.3305 17.2599L21.3405 17.0799L21.3605 16.8899L21.3705 16.7099V16.5199V16.3399V16.1499L21.3605 15.9599L21.3505 15.7699L20.6305 6.63993L23.4305 7.01993Z" stroke="black" stroke-width="0.0100076" stroke-miterlimit="10"/>
<path d="M17.7706 13.4498H17.8106L17.8506 13.4398L17.8906 13.4298H17.9406L17.9806 13.4198L18.0206 13.4098L18.0606 13.3898L18.1006 13.3798L18.1406 13.3698L18.1806 13.3498L18.2206 13.3398L18.2606 13.3198L18.2906 13.2998L18.3306 13.2798L18.3706 13.2598L18.4106 13.2398L18.4406 13.2198L18.4806 13.1998L18.5106 13.1798L18.5506 13.1498L18.5806 13.1298L18.6206 13.0998L18.6506 13.0698L18.6806 13.0498L18.7106 13.0198L18.7406 12.9898L18.7706 12.9598L18.8006 12.9298L18.8306 12.8998L18.8606 12.8698L18.8906 12.8298L18.9106 12.7998L18.9406 12.7598L18.9706 12.7298L18.9906 12.6898L19.0206 12.6598L19.0406 12.6198L19.0606 12.5798L19.0806 12.5498L19.1006 12.5098L19.1206 12.4698L19.1406 12.4298L19.1606 12.3898L19.1806 12.3498L19.2006 12.3098L19.2106 12.2698L19.2306 12.2198L19.2406 12.1798L19.2506 12.1398L19.2706 12.0998L19.2806 12.0498L19.2906 12.0098L19.3006 11.9598V11.9198L19.3106 11.8798L19.3206 11.8298V11.7898L19.3306 11.7398V11.6898V11.6498V11.5998L19.3406 11.5498L19.3306 11.5098V11.4598V11.4098L19.3206 11.3698V11.3198L19.3106 11.2698V11.2298L19.3006 11.1798L19.2906 11.1398L19.2806 11.0898L19.2706 11.0498L19.2506 11.0098L19.2406 10.9698L19.2306 10.9198L19.2106 10.8798L19.2006 10.8398L19.1806 10.7998L19.1606 10.7598L19.1406 10.7198L19.1206 10.6798L19.1006 10.6398L19.0806 10.6098L19.0606 10.5698L19.0406 10.5298L19.0106 10.4998L18.9906 10.4598L18.9606 10.4298L18.9406 10.3998L18.9106 10.3598L18.8806 10.3298L18.8606 10.2998L18.8306 10.2698L18.8006 10.2398L18.7706 10.2098L18.7406 10.1798L18.7106 10.1598L18.6806 10.1298L18.6406 10.1098L18.6106 10.0798L18.5806 10.0598L18.5406 10.0298L18.5106 10.0098L18.4806 9.9898L18.4406 9.9698L18.4006 9.9498L18.3706 9.9298L18.3306 9.9198L18.2906 9.8998L18.2606 9.8798L18.2206 9.8698L18.1806 9.8598L18.1406 9.8398L18.1006 9.8298L18.0606 9.8198L18.0206 9.8098H17.9806L17.9406 9.7998L17.9006 9.7898H17.8606H17.8206L17.7806 9.7798H17.7306H17.6906H17.6506H17.6106L17.5706 9.7898H17.5206L17.4806 9.7998L17.4406 9.8098H17.4006L17.3506 9.8198L17.3106 9.8298L17.2706 9.8498L17.2306 9.8598L17.1906 9.8698L17.1506 9.8898L17.1106 9.8998L17.0706 9.9198L17.0406 9.9398L17.0006 9.9598L16.9606 9.9698L16.9206 9.9998L16.8906 10.0198L16.8506 10.0398L16.8206 10.0598L16.7806 10.0898L16.7506 10.1098L16.7206 10.1398L16.6806 10.1598L16.6506 10.1898L16.6206 10.2198L16.5906 10.2498L16.5606 10.2798L16.5306 10.3098L16.5006 10.3398L16.4706 10.3698L16.4406 10.4098L16.4206 10.4398L16.3906 10.4798L16.3606 10.5098L16.3406 10.5498L16.3206 10.5798L16.2906 10.6198L16.2706 10.6598L16.2506 10.6898L16.2306 10.7298L16.2106 10.7698L16.1906 10.8098L16.1706 10.8498L16.1506 10.8898L16.1406 10.9298L16.1206 10.9698L16.1006 11.0198L16.0906 11.0598L16.0806 11.0998L16.0706 11.1398L16.0506 11.1898L16.0406 11.2298L16.0306 11.2698V11.3198L16.0206 11.3598L16.0106 11.4098V11.4498L16.0006 11.4998V11.5498V11.5898V11.6398V11.6898V11.7298V11.7798V11.8298L16.0106 11.8698V11.9198L16.0206 11.9698V12.0098L16.0306 12.0598L16.0406 12.0998L16.0506 12.1398L16.0606 12.1898L16.0806 12.2298L16.0906 12.2698L16.1006 12.3198L16.1206 12.3598L16.1406 12.3998L16.1506 12.4398L16.1706 12.4798L16.1906 12.5198L16.2106 12.5598L16.2306 12.5998L16.2506 12.6298L16.2706 12.6698L16.2906 12.7098L16.3206 12.7398L16.3406 12.7798L16.3706 12.8098L16.3906 12.8398L16.4206 12.8798L16.4506 12.9098L16.4706 12.9398L16.5006 12.9698L16.5306 12.9998L16.5606 13.0298L16.5906 13.0598L16.6206 13.0798L16.6506 13.1098L16.6906 13.1298L16.7206 13.1598L16.7506 13.1798L16.7906 13.2098L16.8206 13.2298L16.8606 13.2498L16.8906 13.2698L16.9306 13.2898L16.9606 13.3098L17.0006 13.3198L17.0406 13.3398L17.0706 13.3598L17.1106 13.3698L17.1506 13.3798L17.1906 13.3898L17.2306 13.4098L17.2706 13.4198L17.3106 13.4298H17.3506L17.3906 13.4398L17.4306 13.4498H17.4706H17.5106L17.5506 13.4598H17.6006H17.6406H17.6806H17.7206L17.7706 13.4498Z" fill="#FF7171"/>
<path d="M19.1306 19.4198L19.1206 19.3298L19.1106 19.2498L19.0906 19.1598L19.0706 19.0798L19.0506 18.9898L19.0306 18.9098L19.0006 18.8298L18.9706 18.7498L18.9406 18.6698L18.9106 18.5898L18.8706 18.5098L18.8306 18.4398L18.7906 18.3598L18.7506 18.2898L18.7106 18.2098L18.6606 18.1398L18.6106 18.0698L18.5606 17.9998L18.5106 17.9398L18.4506 17.8698L18.4006 17.7998L18.3406 17.7398L18.2806 17.6798L18.2206 17.6198L18.1506 17.5598L18.0906 17.4998L18.0206 17.4398L17.9506 17.3898L17.8806 17.3398L17.8006 17.2798L17.7306 17.2298L17.6506 17.1798L17.5806 17.1398L17.5006 17.0898L17.4206 17.0498L17.3406 17.0098L17.3206 16.9998L17.2506 16.9698L17.1706 16.9298L17.0806 16.8898L17.0006 16.8598L16.9106 16.8198L16.8206 16.7898L16.7306 16.7598L16.6306 16.7298L16.5406 16.7098L16.4506 16.6798L16.3506 16.6598L16.2606 16.6398L16.1606 16.6198L16.0606 16.6098L15.9606 16.5898L15.8606 16.5798L15.7606 16.5698L15.6606 16.5598H15.5606H15.4506L15.3506 16.5498L15.2506 16.5598H15.1406H15.0306L14.9306 16.5698L14.8206 16.5798L14.7106 16.5898L14.6106 16.6098L14.5006 16.6198L14.4006 16.6398L14.2906 16.6598L14.1906 16.6898L14.0806 16.7098L13.9806 16.7398L13.8806 16.7698L13.7806 16.7998L13.6806 16.8298L13.5906 16.8598L13.4906 16.8998L13.4006 16.9398L13.3006 16.9798L13.2106 17.0198L13.1206 17.0598L13.0306 17.1098L12.9406 17.1498L12.8506 17.1998L12.7706 17.2498L12.6806 17.2998L12.6006 17.3598L12.5206 17.4098L12.4406 17.4698L12.3606 17.5198L12.2806 17.5798L12.2106 17.6398L12.1306 17.6998L12.0606 17.7698L11.9906 17.8298L11.9206 17.8898L11.8506 17.9598L11.7906 18.0298L11.7306 18.0998L11.6706 18.1698L11.6106 18.2398L11.5506 18.3098L11.4906 18.3798L11.4406 18.4598L11.3906 18.5298L11.3406 18.6098L11.2906 18.6798L11.2406 18.7598L11.2006 18.8398L11.1606 18.9198L11.1206 18.9998L11.0806 19.0798L11.0506 19.1598L11.0206 19.2398L10.9906 19.3298L10.9606 19.4098L10.9306 19.4898L10.9106 19.5798L10.8906 19.6598L10.8706 19.7498L10.8606 19.8398L10.8406 19.9198L10.8306 20.0098V20.0998L10.8206 20.1898V20.2698V20.3598V20.4498L10.8306 20.5398H10.8506L13.6606 20.1898L19.1406 19.5098L19.1306 19.4198Z" fill="#FF7171"/>
<path d="M21.9305 19.7994L21.9205 19.7094L21.9005 19.6294L21.8905 19.5394L21.8705 19.4594L21.8505 19.3694L21.8205 19.2894L21.8005 19.2094L21.7705 19.1294L21.7405 19.0494L21.7105 18.9694L21.6705 18.8894L21.6305 18.8194L21.5905 18.7394L21.5505 18.6694L21.5105 18.5894L21.4605 18.5194L21.4105 18.4494L21.3605 18.3794L21.3105 18.3194L21.2505 18.2494L21.2005 18.1794L21.1405 18.1194L21.0805 18.0594L21.0105 17.9994L20.9505 17.9394L20.8805 17.8794L20.8205 17.8194L20.7505 17.7694L20.6805 17.7194L20.6005 17.6594L20.5305 17.6094L20.4505 17.5594L20.3805 17.5194L20.3005 17.4694L20.2205 17.4294L20.1405 17.3894L20.0505 17.3494L19.9705 17.3094L19.8805 17.2694L19.7905 17.2394L19.7105 17.1994L19.6205 17.1694L19.5305 17.1394L19.4305 17.1094L19.3405 17.0894L19.2505 17.0594L19.1505 17.0394L19.0505 17.0194L18.9605 16.9994L18.8605 16.9894L18.7605 16.9694H18.7505H18.7305H18.7105H18.7005L18.6805 16.9594H18.6705H18.6505H18.6405H18.6205L18.6105 16.9494H18.5905H18.5705H18.5605L18.5405 16.9394H18.5305H18.5105H18.5005H18.4805L18.4605 16.9294H18.4505H18.4305H18.4205H18.4005L18.3905 16.9194H18.3705H18.3605H18.3405L18.3205 16.9094H18.3105H18.2905H18.2805H18.2605H18.2505L18.2305 16.8994H18.2105H18.2005H18.1805L18.1705 16.8894H18.1505H18.1205L18.1005 16.8794H18.0905H18.0705H18.0605H18.0405H18.0305L18.0105 16.8694H17.9805H17.9605L17.9505 16.8594H17.9305H17.9205H17.9005L17.8705 16.8494H17.8505H17.8405H17.8205H17.8105L17.7905 16.8394H17.7805H17.7605L17.7405 16.8294H17.7305H17.7105H17.7005H17.6805H17.6705L17.6505 16.8194H17.6405H17.6205H17.6005H17.5905L17.5705 16.8094H17.5605H17.5405H17.5305L17.5105 16.7994H17.4905H17.4805H17.4605H17.4505L17.4305 16.7894H17.4005H17.3905H17.3705L17.3505 16.7794H17.3405H17.3205H17.3105L17.2905 16.7694H17.2805H17.2605H17.2405H17.2305L17.2105 16.7594H17.2005H17.1805H17.1505L17.1405 16.7494H17.1305H17.1205H17.1005H17.0905L17.0705 16.7394H17.0405H17.0305H17.0105L16.9905 16.7294H16.9805H16.9605H16.9505H16.9305L16.9005 16.7194H16.8805H16.8705L16.8505 16.7094H16.8405H16.8205H16.8105H16.7905L16.7705 16.6994H16.7605H16.7405H16.7305H16.7105L16.7005 16.6894H16.6805H16.6505L16.6305 16.6794H16.6205H16.6005H16.5905H16.5705H16.5605L16.5405 16.6694H16.5205H16.5105H16.4905H16.4805L16.4605 16.6594H16.4505H16.4305H16.4205L16.4105 16.6494H16.4005H16.3805H16.3705H16.3505H16.3405L16.3205 16.6394H16.3105H16.2905H16.2705L16.2605 16.6294H16.2405H16.2305H16.2105L16.1805 16.6194H16.1605H16.1505H16.1305H16.1205L16.1005 16.6094H16.0705H16.0605H16.0405V16.5994H16.0205H16.0105H15.9905H15.9805L15.9605 16.5894L16.0605 16.6094L16.1605 16.6194L16.2605 16.6394L16.3505 16.6594L16.4505 16.6794L16.5405 16.7094L16.6305 16.7294L16.7305 16.7594L16.8205 16.7894L16.9105 16.8194L17.0005 16.8594L17.0805 16.8894L17.1705 16.9294L17.2505 16.9694L17.3205 16.9994L17.3405 17.0094L17.4205 17.0494L17.5005 17.0894L17.5805 17.1394L17.6505 17.1794L17.7305 17.2294L17.8005 17.2794L17.8805 17.3394L17.9505 17.3894L18.0205 17.4394L18.0905 17.4994L18.1505 17.5594L18.2205 17.6194L18.2805 17.6794L18.3405 17.7394L18.4005 17.7994L18.4505 17.8694L18.5105 17.9394L18.5605 17.9994L18.6105 18.0694L18.6605 18.1394L18.7105 18.2094L18.7505 18.2894L18.7905 18.3594L18.8305 18.4394L18.8705 18.5094L18.9105 18.5894L18.9405 18.6694L18.9705 18.7494L19.0005 18.8294L19.0305 18.9094L19.0505 18.9894L19.0705 19.0794L19.0905 19.1594L19.1105 19.2494L19.1205 19.3294L19.1305 19.4194L19.1405 19.5094L13.6605 20.1894L10.8505 20.5394H10.8805V20.5494L10.9105 20.5394V20.5494H10.9405H10.9705V20.5594H10.9905H11.0205V20.5694L11.0505 20.5594V20.5694H11.0805H11.1005V20.5794L11.1305 20.5694V20.5794H11.1605H11.1905V20.5894H11.2105H11.2205H11.2405V20.5994L11.2705 20.5894V20.5994H11.3005H11.3305V20.6094L11.3505 20.5994V20.6094H11.3805H11.4105V20.6194H11.4405H11.4605V20.6294L11.4905 20.6194V20.6294H11.5205H11.5505V20.6394L11.5705 20.6294L11.5805 20.6394H11.6005V20.6494L11.6305 20.6394V20.6494H11.6605H11.6905V20.6594L11.7105 20.6494V20.6594H11.7405H11.7705V20.6694L11.8005 20.6594V20.6694H11.8205V20.6794L11.8505 20.6694V20.6794H11.8805H11.9105V20.6894L11.9405 20.6794V20.6894H11.9605H11.9905V20.6994L12.0205 20.6894V20.6994H12.0505V20.7094L12.0705 20.6994V20.7094H12.1005H12.1305V20.7194L12.1605 20.7094V20.7194H12.1805H12.2105V20.7294L12.2405 20.7194V20.7294H12.2705V20.7394L12.3005 20.7294V20.7394H12.3205H12.3505V20.7494L12.3805 20.7394V20.7494H12.4105H12.4305V20.7594L12.4605 20.7494V20.7594H12.4905V20.7694L12.5205 20.7594V20.7694H12.5405H12.5505H12.5705V20.7794L12.6005 20.7694V20.7794H12.6305H12.6605V20.7894L12.6805 20.7794V20.7894H12.7105V20.7994L12.7405 20.7894V20.7994H12.7705H12.7905V20.8094L12.8205 20.7994V20.8094H12.8505H12.8805V20.8194L12.9005 20.8094L12.9105 20.8194H12.9305V20.8294L12.9605 20.8194V20.8294H12.9905H13.0205V20.8394L13.0405 20.8294V20.8394H13.0705H13.1005V20.8494L13.1305 20.8394V20.8494H13.1505V20.8594L13.1805 20.8494V20.8594H13.2105H13.2405V20.8694L13.2705 20.8594V20.8694H13.2905H13.3205V20.8794L13.3505 20.8694V20.8794H13.3805V20.8894L13.4005 20.8794V20.8894H13.4305H13.4605V20.8994L13.4905 20.8894V20.8994H13.5105H13.5205H13.5405V20.9094L13.5705 20.8994V20.9094H13.6005V20.9194L13.6305 20.9094V20.9194L21.9405 19.8894L21.9305 19.7994Z" fill="#DD5757"/>
<path d="M24.7006 15.9199L24.6906 15.6399L24.6706 15.3599L23.6706 2.57988L3.73059 5.04988L4.73059 17.8299L4.76059 18.1099L4.79059 18.3899L4.83059 18.6699L4.87059 18.9399L4.92059 19.2099L4.97059 19.4799L5.03059 19.7499L5.10059 20.0099L5.17059 20.2699L5.25059 20.5299L5.33059 20.7799L5.42059 21.0299L5.52059 21.2799L5.62059 21.5199L5.73059 21.7599L5.84059 21.9999L5.96059 22.2299L6.08059 22.4599L6.21059 22.6799L6.34059 22.8999L6.48059 23.1199L6.62059 23.3299L6.76059 23.5399L6.91059 23.7399L7.06059 23.9399L7.22059 24.1399L7.38059 24.3299L7.55059 24.5199L7.72059 24.6999L7.89059 24.8799L8.07059 25.0499L8.25059 25.2199L8.44059 25.3799L8.63059 25.5399L8.82059 25.6799L9.02059 25.8299L9.22059 25.9699L9.42059 26.1099L9.63059 26.2399L9.84059 26.3699L10.0506 26.4899L10.2606 26.5999L10.4806 26.7099L10.7006 26.8099L10.9206 26.9099L11.1506 26.9999L11.3806 27.0899L11.6106 27.1699L11.8406 27.2399L12.0806 27.3099L12.3206 27.3699L12.5606 27.4199L12.8006 27.4699L13.0406 27.5099L13.2906 27.5399L13.5406 27.5699L13.7906 27.5899L14.0406 27.5999L14.2906 27.6099H14.5406L14.7906 27.5999L15.0506 27.5899L15.3106 27.5699L15.5706 27.5399L15.8306 27.4999L16.0806 27.4599L16.3306 27.4099L16.5806 27.3499L16.8306 27.2899L17.0806 27.2199L17.3206 27.1399L17.5606 27.0599L17.8006 26.9699L18.0306 26.8799L18.2606 26.7799L18.4906 26.6699L18.7206 26.5599L18.9406 26.4399L19.1606 26.3199L19.3806 26.1899L19.5906 26.0599L19.8006 25.9199L20.0106 25.7699L20.2106 25.6199L20.4106 25.4599L20.6106 25.2999L20.8006 25.1299L20.9906 24.9599L21.1806 24.7899L21.3606 24.6099L21.5406 24.4299L21.7106 24.2399L21.8806 24.0499L22.0506 23.8499L22.2106 23.6499L22.3706 23.4499L22.5206 23.2399L22.6706 23.0299L22.8106 22.8099L22.9506 22.5899L23.0806 22.3699L23.2106 22.1399L23.3306 21.9099L23.4506 21.6799L23.5606 21.4399L23.6706 21.1999L23.7706 20.9599L23.8706 20.7099L23.9706 20.4799L24.0606 20.2299L24.1406 19.9799L24.2206 19.7199L24.2906 19.4599L24.3606 19.1999L24.4206 18.9399L24.4806 18.6699L24.5306 18.3999L24.5706 18.1299L24.6106 17.8599L24.6406 17.5899L24.6706 17.3199L24.6906 17.0399L24.7006 16.7599L24.7106 16.4799V16.1999L24.7006 15.9199ZM21.3706 16.5199V16.7099L21.3606 16.8899L21.3506 17.0699L21.3306 17.2499L21.3106 17.4299L21.2806 17.6099L21.2506 17.7899L21.2206 17.9799L21.1806 18.1599L21.1406 18.3399L21.1006 18.5099L21.0506 18.6799L21.0006 18.8499L20.9406 19.0199L20.8806 19.1899L20.8206 19.3599L20.7506 19.5199L20.6806 19.6799L20.6106 19.8399L20.5306 19.9999L20.4506 20.1599L20.3706 20.3099L20.2806 20.4599L20.1906 20.6099L20.1006 20.7599L20.0006 20.8999L19.9006 21.0399L19.8006 21.1799L19.7006 21.3199L19.5906 21.4499L19.4806 21.5799L19.3706 21.7099L19.2506 21.8399L19.1306 21.9599L19.0106 22.0799L18.8906 22.1999L18.7606 22.3099L18.6306 22.4199L18.5006 22.5299L18.3706 22.6299L18.2306 22.7299L18.0906 22.8299L17.9506 22.9199L17.8106 23.0099L17.6706 23.0999L17.5206 23.1799L17.3706 23.2599L17.2206 23.3199L17.0706 23.3899L16.9206 23.4599L16.7606 23.5199L16.6006 23.5799L16.4406 23.6299L16.2806 23.6799L16.1206 23.7299L15.9506 23.7699L15.7806 23.8099L15.6106 23.8399L15.4406 23.8699L15.2706 23.8899L15.1006 23.9099L14.9306 23.9199L14.7606 23.9299H14.5906H14.4206H14.2506L14.0806 23.9199L13.9106 23.9099L13.7506 23.8899L13.5906 23.8699L13.4306 23.8399L13.2706 23.8099L13.1106 23.7699L12.9506 23.7299L12.7906 23.6899L12.6306 23.6399L12.4806 23.5899L12.3306 23.5299L12.1806 23.4699L12.0306 23.4099L11.8806 23.3399L11.7306 23.2699L11.5906 23.1899L11.4506 23.1099L11.3106 23.0299L11.1706 22.9399L11.0306 22.8499L10.9006 22.7599L10.7706 22.6599L10.6406 22.5599L10.5106 22.4599L10.3906 22.3499L10.2706 22.2399L10.1506 22.1299L10.0306 22.0099L9.93059 21.8799L9.82059 21.7499L9.71059 21.6199L9.60059 21.4899L9.50059 21.3599L9.40059 21.2199L9.30059 21.0799L9.21059 20.9399L9.12059 20.7999L9.03059 20.6499L8.95059 20.4999L8.87059 20.3499L8.79059 20.1999L8.72059 20.0399L8.65059 19.8799L8.58059 19.7199L8.52059 19.5499L8.46059 19.3799L8.40059 19.2099L8.35059 19.0399L8.30059 18.8699L8.25059 18.6899L8.21059 18.5099L8.17059 18.3299L8.14059 18.1499L8.11059 17.9799L8.08059 17.7999L8.06059 17.6099L8.04059 17.4199L7.34059 8.28988L20.6406 6.63988L21.3506 15.7699L21.3606 15.9599L21.3706 16.1499V16.3399V16.5199Z" fill="#FF7171"/>
<path d="M11.5302 10.6798L11.4902 10.6698L11.4502 10.6598L11.4103 10.6498L11.3703 10.6398L11.3303 10.6298L11.2903 10.6198H11.2504L11.2104 10.6098H11.1704H11.1304L11.0904 10.5998H11.0405L11.0005 10.6098H10.9605H10.9205L11.6002 10.6998L11.5702 10.6898L11.5302 10.6798Z" fill="#DD5757"/>
<path d="M15.4801 12.7098V12.6598V12.6198L15.4701 12.5698V12.5198L15.4601 12.4798V12.4298L15.4501 12.3898L15.4401 12.3398L15.4301 12.2998L15.4201 12.2498L15.4001 12.2098L15.3901 12.1698L15.3801 12.1298L15.3601 12.0798L15.3501 12.0398L15.3301 11.9998L15.3101 11.9598L15.2901 11.9198L15.2701 11.8898L15.2501 11.8498L15.2301 11.8098L15.2101 11.7698L15.1901 11.7398L15.1601 11.6998L15.1401 11.6698L15.1101 11.6298L15.0901 11.5998L15.0601 11.5698L15.0401 11.5398L15.0101 11.4998L14.9801 11.4698L14.9501 11.4398L14.9201 11.4198L14.8901 11.3898L14.8601 11.3598L14.8301 11.3298L14.7901 11.3098L14.7601 11.2798L14.7301 11.2598L14.6901 11.2398L14.6601 11.2198L14.6301 11.1898L14.5901 11.1698L14.5501 11.1598L14.5201 11.1398L14.4801 11.1198L14.4401 11.0998L14.4101 11.0898L14.3701 11.0698L14.3301 11.0598L14.2901 11.0498L14.2501 11.0398L14.2101 11.0298L14.1701 11.0198L14.1301 11.0098L14.0901 10.9998H14.0501L14.0101 10.9898H13.9701H13.9301L13.8801 10.9798H13.8401L13.8001 10.9898H13.7601H13.7201L11.6001 10.6998L11.6101 10.7098L11.6501 10.7198L11.6801 10.7398L11.7201 10.7598L11.7601 10.7798L11.7901 10.7898L11.8301 10.8098L11.8601 10.8398L11.9001 10.8598L11.9301 10.8798L11.9601 10.8998L12.0001 10.9298L12.0301 10.9498L12.0601 10.9798L12.0901 11.0098L12.1201 11.0398L12.1501 11.0598L12.1801 11.0898L12.2101 11.1198L12.2401 11.1598L12.2601 11.1898L12.2901 11.2198L12.3201 11.2498L12.3401 11.2898L12.3601 11.3198L12.3901 11.3598L12.4101 11.3898L12.4301 11.4298L12.4501 11.4698L12.4701 11.5098L12.4901 11.5398L12.5101 11.5798L12.5301 11.6198L12.5501 11.6598L12.5601 11.6998L12.5801 11.7498L12.5901 11.7898L12.6101 11.8298L12.6201 11.8698L12.6301 11.9198L12.6401 11.9598L12.6501 12.0098L12.6601 12.0498V12.0998L12.6701 12.1398L12.6801 12.1898V12.2398V12.2798L12.6901 12.3298V12.3798V12.4198L12.6801 12.4698V12.5198V12.5598L12.6701 12.6098V12.6498L12.6601 12.6998V12.7398L12.6501 12.7898L12.6401 12.8298L12.6301 12.8798L12.6201 12.9198L12.6001 12.9598L12.5901 13.0098L12.5801 13.0498L12.5601 13.0898L12.5501 13.1298L12.5301 13.1698L12.5101 13.2098L12.4901 13.2498L12.4701 13.2898L12.4501 13.3298L12.4301 13.3698L12.4101 13.4098L12.3901 13.4398L12.3701 13.4798L12.3401 13.5198L12.3201 13.5498L12.2901 13.5898L12.2701 13.6198L12.2401 13.6598L12.2101 13.6898L12.1801 13.7198L12.1501 13.7498L12.1201 13.7798L12.0901 13.8098L12.0601 13.8398L12.0301 13.8698L12.0001 13.8998L11.9701 13.9198L11.9301 13.9498L11.9001 13.9798L11.8601 13.9998L11.8301 14.0198L11.7901 14.0498L11.7601 14.0698L11.7201 14.0898L11.6801 14.1098L11.6501 14.1298L11.6101 14.1398L11.5701 14.1598L11.5301 14.1798L11.4901 14.1898L11.4501 14.2098L11.4101 14.2198L11.3701 14.2298L11.3301 14.2398L11.2901 14.2498L11.2401 14.2598H11.2001L11.1601 14.2698L11.1201 14.2798L13.9201 14.6498H13.9601L14.0001 14.6398H14.0401L14.0901 14.6298L14.1301 14.6198L14.1701 14.6098L14.2101 14.5998L14.2501 14.5898L14.2901 14.5698L14.3301 14.5598L14.3701 14.5398L14.4101 14.5198L14.4501 14.5098L14.4801 14.4898L14.5201 14.4698L14.5601 14.4498L14.5901 14.4298L14.6301 14.3998L14.6601 14.3798L14.7001 14.3598L14.7301 14.3298L14.7701 14.2998L14.8001 14.2798L14.8301 14.2498L14.8601 14.2198L14.8901 14.1898L14.9201 14.1598L14.9501 14.1298L14.9801 14.0998L15.0101 14.0698L15.0401 14.0398L15.0701 13.9998L15.0901 13.9698L15.1201 13.9298L15.1401 13.8998L15.1701 13.8598L15.1901 13.8198L15.2101 13.7898L15.2301 13.7498L15.2501 13.7098L15.2701 13.6698L15.2901 13.6298L15.3101 13.5898L15.3301 13.5498L15.3501 13.5098L15.3601 13.4698L15.3801 13.4298L15.3901 13.3898L15.4001 13.3398L15.4201 13.2998L15.4301 13.2598L15.4401 13.2098L15.4501 13.1698V13.1198L15.4601 13.0798L15.4701 13.0298V12.9898L15.4801 12.9398V12.8998V12.8498V12.7998L15.4901 12.7598L15.4801 12.7098Z" fill="#DD5757"/>
<path d="M11.1206 14.2798L11.1606 14.2698L11.2006 14.2598H11.2406L11.2906 14.2498L11.3306 14.2398L11.3706 14.2298L11.4106 14.2198L11.4506 14.2098L11.4906 14.1898L11.5306 14.1798L11.5706 14.1598L11.6106 14.1398L11.6506 14.1298L11.6806 14.1098L11.7206 14.0898L11.7606 14.0698L11.7906 14.0498L11.8306 14.0198L11.8606 13.9998L11.9006 13.9798L11.9306 13.9498L11.9706 13.9298L12.0006 13.8998L12.0306 13.8698L12.0606 13.8398L12.0906 13.8098L12.1206 13.7798L12.1506 13.7498L12.1806 13.7198L12.2106 13.6898L12.2406 13.6598L12.2706 13.6198L12.2906 13.5898L12.3206 13.5498L12.3406 13.5198L12.3706 13.4798L12.3906 13.4398L12.4106 13.4098L12.4306 13.3698L12.4506 13.3298L12.4706 13.2898L12.4906 13.2498L12.5106 13.2098L12.5306 13.1698L12.5506 13.1298L12.5606 13.0898L12.5806 13.0498L12.5906 13.0098L12.6006 12.9598L12.6206 12.9198L12.6306 12.8798L12.6406 12.8298L12.6506 12.7898L12.6606 12.7398V12.6998L12.6706 12.6498V12.6098L12.6806 12.5598V12.5198V12.4698L12.6906 12.4198V12.3798V12.3298L12.6806 12.2798V12.2398V12.1898L12.6706 12.1398L12.6606 12.0998V12.0498L12.6506 12.0098L12.6406 11.9598L12.6306 11.9198L12.6206 11.8698L12.6106 11.8298L12.5906 11.7898L12.5806 11.7498L12.5606 11.6998L12.5506 11.6598L12.5306 11.6198L12.5106 11.5798L12.4906 11.5398L12.4706 11.5098L12.4506 11.4698L12.4306 11.4298L12.4106 11.3898L12.3906 11.3598L12.3606 11.3198L12.3406 11.2898L12.3206 11.2498L12.2906 11.2198L12.2606 11.1898L12.2406 11.1598L12.2106 11.1198L12.1806 11.0898L12.1506 11.0598L12.1206 11.0398L12.0906 11.0098L12.0606 10.9798L12.0306 10.9498L12.0006 10.9298L11.9606 10.8998L11.9306 10.8798L11.9006 10.8598L11.8606 10.8398L11.8306 10.8098L11.7906 10.7898L11.7606 10.7798L11.7206 10.7598L11.6806 10.7398L11.6506 10.7198L11.6106 10.7098L11.5706 10.6898L11.5306 10.6798L11.4906 10.6698L11.4506 10.6598L11.4106 10.6498L11.3706 10.6398L11.3306 10.6298L11.2906 10.6198H11.2506L11.2106 10.6098H11.1706H11.1306L11.0906 10.5998H11.0406L11.0006 10.6098H10.9606H10.9206L10.8706 10.6198H10.8306L10.7906 10.6298L10.7506 10.6398L10.7006 10.6498L10.6606 10.6598L10.6206 10.6698L10.5806 10.6798L10.5406 10.6998L10.5006 10.7098L10.4606 10.7298L10.4306 10.7398L10.3906 10.7598L10.3506 10.7798L10.3106 10.7998L10.2806 10.8198L10.2406 10.8398L10.2006 10.8598L10.1706 10.8898L10.1306 10.9098L10.1006 10.9398L10.0706 10.9598L10.0306 10.9898L10.0006 11.0198L9.97059 11.0398L9.94059 11.0698L9.91059 11.0998L9.88059 11.1298L9.85059 11.1698L9.82059 11.1998L9.79059 11.2298L9.77059 11.2598L9.74059 11.2998L9.72059 11.3298L9.69059 11.3698L9.67059 11.4098L9.64059 11.4398L9.62059 11.4798L9.60059 11.5198L9.58059 11.5598L9.56059 11.5898L9.54059 11.6298L9.52059 11.6698L9.50059 11.7098L9.49059 11.7598L9.47059 11.7998L9.46059 11.8398L9.44059 11.8798L9.43059 11.9198L9.42059 11.9698L9.41059 12.0098L9.40059 12.0498L9.39059 12.0998L9.38059 12.1398L9.37059 12.1898L9.36059 12.2298V12.2798L9.35059 12.3198V12.3698V12.4198V12.4598V12.5098V12.5598V12.5998V12.6498L9.36059 12.6998V12.7398L9.37059 12.7898L9.38059 12.8298V12.8798L9.39059 12.9198L9.40059 12.9698L9.42059 13.0098L9.43059 13.0598L9.44059 13.0998L9.46059 13.1398L9.47059 13.1798L9.49059 13.2198L9.50059 13.2598L9.52059 13.2998L9.54059 13.3398L9.56059 13.3798L9.58059 13.4198L9.60059 13.4598L9.62059 13.4898L9.65059 13.5298L9.67059 13.5698L9.69059 13.5998L9.72059 13.6298L9.74059 13.6698L9.77059 13.6998L9.80059 13.7298L9.82059 13.7598L9.85059 13.7898L9.88059 13.8198L9.91059 13.8498L9.94059 13.8798L9.97059 13.9098L10.0106 13.9298L10.0406 13.9598L10.0706 13.9798L10.1006 14.0098L10.1406 14.0298L10.1706 14.0498L10.2106 14.0698L10.2406 14.0898L10.2806 14.1098L10.3106 14.1298L10.3506 14.1498L10.3906 14.1598L10.4306 14.1798L10.4606 14.1898L10.5006 14.2098L10.5406 14.2198L10.5806 14.2298L10.6206 14.2398L10.6606 14.2498L10.7006 14.2598H10.7406L10.7806 14.2698H10.8206L10.8606 14.2798H10.9106H10.9506H10.9906H11.0306H11.0706H11.1206Z" fill="#FF7171"/>
</svg>
