<svg width="44" height="44" viewBox="0 0 44 44" fill="none" xmlns="http://www.w3.org/2000/svg">
<path d="M28.7183 11.012V10.8687L28.6922 10.7253L28.6661 10.595L28.6401 10.4647L28.601 10.3344L28.5619 10.2041L28.5098 10.0738L28.4577 9.9435L28.4055 9.82623L28.3404 9.70896L28.2752 9.59168L28.1971 9.47441L28.1189 9.37017L28.0407 9.26593L27.9495 9.16168L27.8583 9.05744L27.7801 8.9532L27.6758 8.86199L27.5716 8.77078L27.4674 8.69259L27.3501 8.61441L27.2328 8.53623L27.1155 8.47108L26.9983 8.40593L26.868 8.35381L26.7377 8.30168L26.6074 8.26259L26.4771 8.2235L26.3467 8.19744L26.2164 8.17138L26.0731 8.15835L25.9298 8.14532L6.78826 7.15502H6.64493H6.51463L6.38432 7.16805L6.25402 7.18108L6.12372 7.20714L5.99341 7.2332L5.86311 7.27229L5.73281 7.32441L5.61553 7.3635L5.49826 7.41562L5.38099 7.48078L5.27675 7.54593L5.15947 7.61108L5.06826 7.68926L5.05523 7.70229H5.0422L5.02917 7.71532L5.01614 7.72835H5.00311L4.99008 7.75441H4.97705V7.76744H4.96402L4.95099 7.78047H4.93796V7.7935H4.92493L4.9119 7.80653H4.89887V7.83259H4.88584L4.87281 7.84562H4.85978V7.85865H4.84675L4.83372 7.87168H4.82069V7.88471H4.80766L4.79463 7.91078L4.78159 7.92381H4.76856L4.75553 7.93684H4.7425V7.94987H4.72947L4.71644 7.97593L4.70341 7.98896H4.69038L4.67735 8.00199H4.66432L4.65129 8.01502H4.63826V8.02805H4.62523L4.6122 8.05411H4.59917V8.06714H4.58614L4.57311 8.08017H4.56008V8.0932L4.54705 8.10623H4.53402L4.52099 8.13229H4.50796V8.14532H4.49493L4.4819 8.15835L4.45584 8.17138H4.44281V8.18441H4.42978L4.41675 8.21047H4.40372V8.2235H4.39069L4.37766 8.23653H4.36463V8.24956H4.3516L4.33856 8.26259L4.32553 8.27562H4.3125L4.29947 8.30168H4.28644V8.31471H4.27341L4.26038 8.32775H4.24735V8.34078H4.23432L4.22129 8.35381H4.20826V8.37987H4.19523L4.1822 8.3929H4.16917V8.40593H4.15614L4.14311 8.41896H4.13008V8.43199H4.11705L4.10402 8.45805L4.09099 8.47108H4.07796L4.06493 8.48411V8.49714H4.0519H4.03887L4.02584 8.5232L4.01281 8.53623H3.99978L3.98675 8.54926H3.97372V8.56229H3.96069L3.94766 8.57532H3.93463V8.60138H3.9216L3.90856 8.61441H3.89553V8.62744H3.8825L3.86947 8.64047H3.85644V8.6535H3.84341L3.83038 8.67956H3.81735V8.69259H3.80432L3.79129 8.70562L3.77826 8.71865H3.76523L3.7522 8.73168H3.73917V8.75775H3.72614L3.71311 8.77078H3.70008V8.78381H3.68705L3.67402 8.79684H3.66099V8.80987L3.63493 8.83593H3.6219V8.84896H3.60887L3.59584 8.86199H3.58281V8.87502L3.55675 8.88805H3.54372V8.91411H3.53069L3.51766 8.92714H3.50463V8.94017H3.49159L3.47856 8.9532H3.46553V8.96623H3.4525L3.43947 8.99229H3.42644L3.41341 9.00532L3.40038 9.01835H3.38735V9.03138H3.37432L3.36129 9.04441H3.34826L3.33523 9.07047L3.3222 9.0835H3.30917L3.29614 9.09653H3.28311V9.10956H3.27008L3.25705 9.12259H3.24402V9.14865H3.23099V9.16168H3.21796L3.20493 9.17472H3.1919L3.17887 9.18775H3.16584V9.20078H3.15281L3.13978 9.22684H3.12675V9.23987H3.11372L3.10069 9.2529L3.08766 9.26593H3.07463L2.98341 9.35714L2.8922 9.43532L2.80099 9.52653L2.70978 9.63078L2.63159 9.72199L2.56644 9.82623L2.48826 9.93047L2.43614 10.0477L2.37099 10.152L2.31887 10.2693L2.26675 10.3996L2.22766 10.5299L2.18856 10.6602L2.1625 10.7905L2.13644 10.9208L2.12341 11.0511V11.1814V11.3247L2.51432 30.375V30.5184L2.52735 30.6617L2.55341 30.792L2.57947 30.9223L2.61856 31.0526L2.65766 31.1829L2.70978 31.3132L2.7619 31.4435L2.81402 31.5608L2.87917 31.6781L2.94432 31.7953L3.0225 31.9126L3.10069 32.0168L3.17887 32.1211L3.27008 32.2253L3.36129 32.3296L3.4525 32.4208L3.55675 32.512L3.66099 32.6032L3.76523 32.6814L3.8825 32.7596L3.99978 32.8247L4.11705 32.8899L4.23432 32.955L4.36463 33.0071L4.49493 33.0593L4.62523 33.0984L4.75553 33.1374L4.88584 33.1635L5.01614 33.1896L5.1725 33.2156L5.31584 33.2287L24.4574 34.219H24.6007H24.744L24.8743 34.2059L25.0046 34.1929L25.1349 34.1668L25.2652 34.1408L25.3955 34.1017L25.5128 34.0626L25.6301 34.0105L25.7474 33.9584L25.8646 33.8932L25.9689 33.8281L26.0731 33.7629L26.1774 33.6847L26.1904 33.6717H26.2034L26.2164 33.6587V33.6456H26.2295L26.2425 33.6326H26.2555L26.2686 33.6196H26.2816L26.2946 33.6065H26.3077L26.3207 33.5935H26.3337L26.3467 33.5805H26.3598L26.3728 33.5674H26.3858L26.3989 33.5544H26.4119L26.4249 33.5414H26.438L26.451 33.5284H26.464L26.4771 33.5153H26.4901L26.5031 33.5023L26.5161 33.4893H26.5292L26.5422 33.4762H26.5552L26.5683 33.4632H26.5813L26.5943 33.4502L26.6074 33.4371H26.6204L26.6334 33.4241H26.6464L26.6595 33.4111H26.6725L26.6855 33.3981H26.6986L26.7116 33.385H26.7246L26.7377 33.372H26.7507L26.7637 33.359H26.7767L26.7898 33.3459L26.8028 33.3329H26.8158L26.8289 33.3199H26.8419L26.8549 33.3068H26.868L26.7507 33.2156L26.7637 33.2026H26.7767L26.7898 33.1896H26.8028L26.8158 33.1765H26.8289L26.8419 33.1635H26.8549L26.868 33.1505H26.881L26.894 33.1374H26.9071L26.9201 33.1244L26.9331 33.1114H26.9461L26.9592 33.0984H26.9722L26.9852 33.0853H26.9983L27.0113 33.0723H27.0243L27.0374 33.0593H27.0504L27.0634 33.0462H27.0764L27.0895 33.0332H27.1025L27.1155 33.0202H27.1286L27.1416 33.0071H27.1546L27.1677 32.9941H27.1807L27.1937 32.9811H27.2067L27.2198 32.9681L27.2328 32.955H27.2458L27.2589 32.942H27.2719L27.2849 32.929H27.298L27.311 32.9159L27.324 32.9029H27.3371L27.3501 32.8899H27.3631L27.3761 32.8768H27.3892L27.4022 32.8638H27.4152L27.4283 32.8508H27.4413L27.4543 32.8377H27.4674L27.4804 32.8247H27.4934L27.5064 32.8117H27.5195L27.5325 32.7987H27.5455L27.5586 32.7856H27.5716L27.5846 32.7726H27.5977L27.6107 32.7596L27.6237 32.7465H27.6367L27.6498 32.7335H27.6628L27.6758 32.7205H27.6889L27.5195 32.6032H27.5325L27.5455 32.5902H27.5586L27.5716 32.5771H27.5846L27.5977 32.5641L27.6107 32.5511H27.6237L27.6367 32.5381H27.6498L27.6628 32.525H27.6758L27.6889 32.512L27.7019 32.499H27.7149L27.728 32.4859H27.741L27.754 32.4729H27.7671L27.7801 32.4599H27.7931L27.8061 32.4468H27.8192L27.8322 32.4338H27.8452L27.8583 32.4208H27.8713L27.8843 32.4077L27.8974 32.3947H27.9104L27.9234 32.3817H27.9364L27.9495 32.3687H27.9625L27.9755 32.3556L27.9886 32.3426H28.0016L28.0146 32.3296H28.0277L28.0407 32.3165H28.0537L28.0667 32.3035H28.0798L28.0928 32.2905H28.1058L28.1189 32.2774H28.1319L28.1449 32.2644H28.158L28.171 32.2514H28.184L28.1971 32.2384H28.2101L28.2231 32.2253H28.2361L28.2492 32.2123H28.2622L28.2752 32.1993L28.2883 32.1862H28.3013L28.3925 32.1081L28.4837 32.0168L28.5749 31.9256L28.6531 31.8344L28.7313 31.7302L28.8095 31.6259L28.8746 31.5217L28.9398 31.4174L28.9919 31.3002L29.044 31.1829L29.0961 31.0656L29.1352 30.9353L29.1743 30.805L29.2004 30.6747L29.2264 30.5444L29.2395 30.4141L29.2525 30.2708V30.1274L28.7183 11.012ZM7.23129 28.9287L6.87947 11.5593L7.59614 11.5984L7.83069 23.1562L7.84372 23.2996L7.86978 23.4299L7.90887 23.5602L7.96099 23.6905L8.02614 23.8077L8.09129 23.925L8.16947 24.0293L8.26069 24.1335L8.36493 24.2247L8.46917 24.3029L8.58644 24.3811L8.70372 24.4462L8.83402 24.4984L8.96432 24.5374L9.09463 24.5635L9.23796 24.5765L9.57675 24.5896L9.66796 29.0199L7.23129 28.9287ZM13.7334 29.2544L13.6161 23.8338H13.6292L13.6422 23.8208H13.6552L13.6683 23.8077H13.6813L13.6943 23.7947H13.7074L13.7204 23.7817H13.7334L13.7464 23.7687H13.7595L13.7725 23.7556H13.7855L13.7986 23.7426H13.8116L13.8246 23.7296H13.8377L13.8507 23.7165H13.8637L13.8767 23.7035H13.8898L13.9028 23.6905H13.9158L13.9289 23.6774H13.9419L13.9549 23.6644H13.968L13.981 23.6514H13.994L14.007 23.6384H14.0201L14.0331 23.6253H14.0461L14.0592 23.6123H14.0722L14.0852 23.5993H14.0983L14.1113 23.5862H14.1243L14.1374 23.5732H14.1504L14.1634 23.5602H14.1764L14.1895 23.5471H14.2025L14.2155 23.5341H14.2286L14.2416 23.5211H14.2546L14.2677 23.508H14.2807L14.2937 23.495H14.3067L14.3198 23.482H14.3328L14.3458 23.469H14.3589L14.3719 23.4559H14.3849L14.398 23.4429H14.411L14.424 23.4299H14.437L14.4501 23.4168H14.4631L14.4761 23.4038H14.4892L14.5022 23.3908H14.5152L14.5283 23.3777H14.5413L14.5543 23.3647H14.5674L14.5804 23.3517H14.5934L14.6064 23.3387H14.6195L14.6325 23.3256H14.6455L14.6586 23.3126H14.6716L14.6846 23.2996H14.6977L14.7107 23.2865H14.7237L14.7367 23.2735H14.7498L14.7628 23.2605H14.7758L14.7889 23.2474H14.8019L14.8149 23.2344H14.828L14.841 23.2214H14.854L14.8671 23.2084H14.8801L14.8931 23.1953H14.9061L14.9192 23.1823H14.9322L14.9452 23.1693H14.9583L14.9713 23.1562H14.9843L14.9974 23.1432H15.0104L15.0234 23.1302H15.0364L15.0495 23.1171H15.0625L15.0755 23.1041H15.0886L15.1016 23.0911H15.1146L15.1277 23.078H15.1407L15.1537 23.065H15.1667L15.1798 23.052H15.1928L15.284 22.9738L15.3752 22.8826L15.4534 22.7784L15.5186 22.6741L15.5707 22.5568L15.6098 22.4396L15.6358 22.3093L15.6489 22.179V22.0356L15.4404 12.1587L15.7922 12.0284L16.0267 23.5862L16.0398 23.7296L16.0658 23.8599L16.1049 23.9902L16.157 24.1205L16.2222 24.2377L16.2874 24.355L16.3655 24.4593L16.4567 24.5635L16.561 24.6547L16.6652 24.7329L16.7825 24.8111L16.8998 24.8762L17.0301 24.9284L17.1604 24.9674L17.2907 24.9935L17.434 25.0065L17.7728 25.0196L17.864 29.4499L13.7334 29.2544ZM21.9295 29.6844L21.8122 24.2638H21.8252L21.8383 24.2508H21.8513L21.8643 24.2377H21.8774L21.8904 24.2247H21.9034L21.9164 24.2117H21.9295L21.9425 24.1987H21.9555L21.9686 24.1856H21.9816L21.9946 24.1726H22.0077L22.0207 24.1596H22.0337L22.0467 24.1465H22.0598L22.0728 24.1335H22.0858L22.0989 24.1205H22.1119L22.1249 24.1074H22.138L22.151 24.0944H22.164L22.177 24.0814H22.1901L22.2031 24.0684H22.2161L22.2292 24.0553H22.2422L22.2552 24.0423H22.2683L22.2813 24.0293H22.2943L22.3074 24.0162H22.3204L22.3334 24.0032H22.3464L22.3595 23.9902H22.3725L22.3855 23.9771H22.3986L22.4116 23.9641H22.4246L22.4377 23.9511H22.4507L22.3074 23.8729H22.3204L22.3334 23.8599H22.3464L22.3595 23.8468H22.3725L22.3855 23.8338H22.3986L22.4116 23.8208H22.4246L22.4377 23.8077H22.4507L22.4637 23.7947H22.4767L22.4898 23.7817H22.5028L22.5158 23.7687H22.5289L22.5419 23.7556H22.5549L22.568 23.7426H22.581L22.594 23.7296H22.607L22.6201 23.7165H22.6331L22.6461 23.7035H22.6592L22.6722 23.6905H22.6852L22.6983 23.6774H22.7113L22.7243 23.6644H22.7374L22.7504 23.6514H22.7634L22.7764 23.6384H22.7895L22.8025 23.6253H22.8155L22.8286 23.6123H22.8416L22.8546 23.5993H22.8677L22.8807 23.5862H22.8937L22.9067 23.5732H22.9198L22.9328 23.5602H22.9458L22.9589 23.5471H22.9719L22.9849 23.5341H22.998L23.011 23.5211H23.024L23.0371 23.508H23.0501L23.0631 23.495H23.0761L23.0892 23.482H23.1022L23.1152 23.469H23.1283L23.1413 23.4559H23.1543L23.1674 23.4429H23.1804L23.1934 23.4299H23.2064L23.2195 23.4168H23.2325L23.3237 23.3387L23.4149 23.2474L23.4931 23.1432L23.5583 23.039L23.6104 22.9217L23.6495 22.8044L23.6755 22.6741L23.6886 22.5438V22.4005L23.4801 12.5235L24.1967 12.5626L24.5486 29.919L21.9295 29.6844Z" fill="#C64444"/>
<path d="M28.7182 11.012V10.8687L28.6922 10.7253L28.6661 10.595L28.6401 10.4647L28.601 10.3344L28.5619 10.2041L28.5098 10.0738L28.4576 9.94353L28.4055 9.82625L28.3404 9.70898L28.2752 9.59171L28.197 9.47444L28.1189 9.37019L28.0407 9.26595L27.9495 9.16171L27.8582 9.05747L27.7801 8.95322L27.6758 8.86201L27.5716 8.7708L27.4673 8.69262L27.3501 8.61443L27.2328 8.53625L27.1155 8.4711L26.9982 8.40595L26.8679 8.35383L26.7376 8.30171L26.6073 8.26262L26.477 8.22353L26.3467 8.19747L26.2164 8.1714L26.0731 8.15837L25.9298 8.14534L6.78825 7.15504H6.64491H6.51461L6.38431 7.16807L6.254 7.1811L6.1237 7.20716L5.9934 7.23322L5.8631 7.27231L5.73279 7.32443L5.61552 7.36353L5.49825 7.41565L5.38097 7.4808L5.27673 7.54595L5.15946 7.6111L5.06825 7.68928L4.964 7.76746L4.87279 7.85868L4.78158 7.94989L4.7034 8.0411L4.62522 8.14534L4.54703 8.24959L4.48188 8.35383L4.41673 8.45807L4.35158 8.57534L4.29946 8.69262L4.26037 8.80989L4.22128 8.94019L4.18219 9.0705L4.15613 9.2008L4.13006 9.3311L4.11703 9.4614L4.104 9.60474V9.74807L4.49491 28.7984V28.9417L4.50794 29.085L4.534 29.2153L4.56006 29.3456L4.59916 29.476L4.63825 29.6063L4.69037 29.7366L4.74249 29.8669L4.79461 29.9841L4.85976 30.1014L4.92491 30.2187L5.0031 30.336L5.08128 30.4402L5.15946 30.5444L5.25067 30.6487L5.34188 30.7529L5.4331 30.8441L5.53734 30.9353L5.64158 31.0266L5.74582 31.1047L5.8631 31.1829L5.98037 31.2481L6.09764 31.3132L6.21491 31.3784L6.34522 31.4305L6.47552 31.4826L6.60582 31.5217L6.73613 31.5608L6.86643 31.5869L6.99673 31.6129L7.14007 31.626L7.2834 31.639L26.4249 32.6293H26.5682H26.7116L26.8419 32.6163L26.9722 32.6032L27.1025 32.5772L27.2328 32.5511L27.3631 32.512L27.4804 32.4729L27.5976 32.4208L27.7149 32.3687L27.8322 32.3035L27.9364 32.2384L28.0407 32.1732L28.1449 32.095L28.2361 32.0169L28.3273 31.9256L28.4186 31.8344L28.4967 31.7432L28.5749 31.639L28.6531 31.5347L28.7182 31.4305L28.7834 31.3263L28.8355 31.209L28.8876 31.0917L28.9398 30.9744L28.9789 30.8441L29.0179 30.7138L29.044 30.5835L29.0701 30.4532L29.0831 30.3229L29.0961 30.1796V30.0363L28.7182 11.012ZM7.23128 28.9287L6.84037 9.87837L9.57673 10.0217L9.81128 21.5796L9.82431 21.7229L9.85037 21.8532L9.88946 21.9835L9.94158 22.1138L10.0067 22.2311L10.0719 22.3484L10.1501 22.4526L10.2413 22.5569L10.3455 22.6481L10.4498 22.7263L10.567 22.8044L10.6843 22.8696L10.8146 22.9217L10.9449 22.9608L11.0752 22.9869L11.2186 22.9999L11.5573 23.0129L11.6876 29.1372L7.23128 28.9287ZM13.7334 29.2544L13.6031 23.1302L13.9419 23.1432H14.0852L14.2155 23.1302L14.3458 23.1041L14.4761 23.065L14.5934 23.0129L14.7107 22.9478L14.8149 22.8696L14.9061 22.7914L14.9973 22.7002L15.0755 22.596L15.1407 22.4917L15.1928 22.3744L15.2319 22.2572L15.2579 22.1269L15.271 21.9966V21.8532L15.0364 10.2953L17.7728 10.4387L18.0073 21.9966L18.0204 22.1399L18.0464 22.2702L18.0855 22.4005L18.1376 22.5308L18.2028 22.6481L18.2679 22.7653L18.3461 22.8696L18.4373 22.9738L18.5416 23.065L18.6458 23.1432L18.7631 23.2214L18.8804 23.2866L19.0107 23.3387L19.141 23.3778L19.2713 23.4038L19.4146 23.4169L19.7534 23.4299L19.8837 29.5541L13.7334 29.2544ZM21.9295 29.6844L21.7992 23.5602L22.1379 23.5732H22.2813L22.4116 23.5602L22.5419 23.5341L22.6722 23.495L22.7895 23.4429L22.9067 23.3778L23.011 23.2996L23.1022 23.2214L23.1934 23.1302L23.2716 23.026L23.3367 22.9217L23.3889 22.8044L23.4279 22.6872L23.454 22.5569L23.467 22.4266V22.2832L23.2325 10.7253L25.9689 10.8687L26.3598 29.919L21.9295 29.6844Z" fill="#FF7171"/>
<path d="M41.9962 14.5952L41.9441 9.2137L40.172 8.04097L40.185 9.4743L34.2432 10.3734L34.3866 24.5634L34.2432 24.4982L34.0999 24.4461L33.9566 24.394L33.8002 24.3419L33.6438 24.3028L33.4875 24.2637L33.3311 24.2376L33.1747 24.2116L33.0184 24.1855L32.849 24.1725L32.6796 24.1595H32.5102H32.3408L32.1714 24.1725L32.002 24.1855L31.8326 24.2116L31.572 24.2637L31.3114 24.3288L31.0508 24.407L30.8032 24.4982L30.5556 24.5895L30.3081 24.6937L30.0735 24.811L29.839 24.9413L29.6175 25.0846L29.3959 25.241L29.1484 25.3973L28.9399 25.5667L28.7444 25.7491L28.549 25.9316L28.3665 26.127L28.1841 26.3355L28.0147 26.544L27.8584 26.7655L27.702 26.987L27.5587 27.2216L27.4284 27.4561L27.3111 27.7037L27.1938 27.9513L27.0896 28.1988L26.9984 28.4595L26.9202 28.7201L26.855 28.9807L26.8029 29.2543L26.7638 29.5279L26.7378 29.8016L26.7247 30.0752V30.3488L26.7378 30.6225L26.7638 30.8961L26.8029 31.1567L26.855 31.4173L26.9202 31.6649L26.9984 31.9125L27.0766 32.147L27.1678 32.3816L27.272 32.6031L27.3893 32.8116L27.5196 33.0201L27.6499 33.2155L27.7932 33.411L27.9496 33.5934L28.119 33.7628L28.2884 33.9191L28.4708 34.0755L28.6532 34.2188L28.8487 34.3491L29.0572 34.4664L29.2656 34.5707L29.4872 34.6619L29.7087 34.7531L29.9432 34.8313L30.1778 34.8964L30.4123 34.9485L30.6599 34.9876L30.9075 35.0137L31.155 35.0267H31.4156L31.6762 35.0137L31.9369 34.9746L32.1975 34.9225L32.4581 34.8573L32.7187 34.7791L32.9662 34.6879L33.2138 34.5967L33.4614 34.4925L33.6959 34.3752L33.9305 34.2449L34.152 34.1016L34.3735 33.9452L34.582 33.7888L34.7905 33.6194L34.9859 33.437L35.1814 33.2546L35.3638 33.0591L35.5462 32.8507L35.7156 32.6422L35.872 32.4207L36.0284 32.1991L36.1717 31.9646L36.302 31.7301L36.4193 31.4825L36.5366 31.2349L36.6408 30.9873L36.732 30.7267L36.8102 30.4661L36.8753 30.2055L36.9275 29.9319L36.9665 29.6582L36.9926 29.3846L37.0056 29.111V28.8373L36.8753 15.3901L41.9962 14.5952ZM34.4256 29.3455L34.4126 29.4888L34.3996 29.6191L34.3735 29.7495L34.3475 29.8798L34.3084 30.0101L34.2693 30.1404L34.2302 30.2707L34.1781 30.401L34.1259 30.5313L34.0608 30.6485L33.9956 30.7658L33.9305 30.8831L33.8523 31.0004L33.7741 31.1046L33.6959 31.2088L33.6047 31.3131L33.5135 31.4173L33.4223 31.5085L33.3181 31.5998L33.2138 31.691L33.1096 31.7691L33.0053 31.8473L32.875 31.9125L32.7578 31.9776L32.6405 32.0428L32.5232 32.0949L32.4059 32.147L32.2756 32.1861L32.1453 32.2252L32.015 32.2513L31.8847 32.2773L31.7544 32.2904L31.6241 32.3034H31.4938H31.3635L31.2332 32.2904L31.1159 32.2773L30.9987 32.2513L30.8814 32.2252L30.7641 32.1861L30.6469 32.147L30.5426 32.0949L30.4384 32.0428L30.3341 31.9776L30.2429 31.9125L30.1517 31.8473L30.0605 31.7691L29.9693 31.691L29.8911 31.5998L29.8129 31.5085L29.7347 31.4173L29.6696 31.3131L29.6044 31.2088L29.5523 31.1046L29.5002 30.9873L29.4481 30.8701L29.409 30.7528L29.3699 30.6355L29.3438 30.5052L29.3178 30.3749L29.3047 30.2446L29.2917 30.1143V29.971V29.8276L29.3047 29.6843L29.3178 29.554L29.3438 29.4237L29.3699 29.2934L29.409 29.1631L29.4481 29.0328L29.4872 28.9025L29.5393 28.7722L29.5914 28.6419L29.6565 28.5246L29.7217 28.4073L29.7869 28.2901L29.865 28.1728L29.9432 28.0685L30.0214 27.9643L30.1126 27.8601L30.2038 27.7558L30.295 27.6646L30.3993 27.5734L30.5035 27.4822L30.6078 27.404L30.712 27.3258L30.8293 27.2607L30.9465 27.1955L31.0638 27.1304L31.1811 27.0782L31.2984 27.0261L31.4287 26.987L31.559 26.9479L31.6893 26.9219L31.8196 26.8958L31.9499 26.8828L32.0802 26.8698H32.2105H32.3408L32.4711 26.8828L32.5884 26.8958L32.7056 26.9219L32.8229 26.9479L32.9402 26.987L33.0575 27.0261L33.1617 27.0782L33.2659 27.1304L33.3702 27.1955L33.4744 27.2607L33.5656 27.3258L33.6569 27.404L33.7481 27.4822L33.8262 27.5734L33.9044 27.6646L33.9826 27.7558L34.0347 27.8731L34.0999 27.9773L34.152 28.0816L34.2041 28.1988L34.2562 28.3161L34.2953 28.4334L34.3344 28.5507L34.3605 28.681L34.3866 28.8113L34.3996 28.9416L34.4126 29.0719V29.2152L34.4256 29.3455Z" fill="#383838"/>
<path d="M40.2111 13.4226L40.159 8.05414L32.4581 9.21383L32.6014 23.3908L32.4581 23.3387L32.3148 23.2735L32.1584 23.2214L32.0151 23.1823L31.8587 23.1302L31.7023 23.0911L31.546 23.065L31.3896 23.039L31.2202 23.0129L31.0508 22.9999H30.8945L30.7251 22.9869L30.5557 22.9999H30.3732L30.2038 23.026L30.0345 23.039L29.7608 23.0911L29.5002 23.1563L29.2526 23.2214L28.992 23.3126L28.7445 23.4038L28.5099 23.5211L28.2623 23.6384L28.0408 23.7687L27.8063 23.912L27.5848 24.0684L27.3763 24.2247L27.1678 24.3941L26.9723 24.5766L26.7769 24.759L26.5945 24.9675L26.412 25.1629L26.2426 25.3844L26.0863 25.5929L25.9429 25.8275L25.7996 26.062L25.6693 26.2966L25.539 26.5441L25.4348 26.7917L25.3305 27.0393L25.2393 27.2999L25.1611 27.5605L25.096 27.8211L25.0438 28.0947L25.0048 28.3684L24.9657 28.642L24.9526 28.9157V29.2023L24.9657 29.476L24.9787 29.7366L25.0178 30.0102L25.0699 30.2708L25.122 30.5184L25.2002 30.766L25.2784 31.0005L25.3696 31.235L25.4738 31.4566L25.5911 31.665L25.7214 31.8735L25.8517 32.069L26.0081 32.2644L26.1514 32.4469L26.3208 32.6163L26.4902 32.7726L26.6726 32.929L26.8551 33.0593L27.0505 33.1896L27.259 33.3199L27.4675 33.4241L27.689 33.5153L27.9105 33.6066L28.132 33.6847L28.3666 33.7369L28.6142 33.789L28.8487 33.8281L29.0963 33.8411L29.3569 33.8541H29.6175L29.8781 33.8281L30.1387 33.802L30.3993 33.7499L30.6599 33.6978L30.9205 33.6196L31.1681 33.5284L31.4157 33.4372L31.6632 33.3329L31.8978 33.2026L32.1323 33.0723L32.3538 32.929L32.5754 32.7857L32.7969 32.6163L33.0054 32.4469L33.2008 32.2644L33.3963 32.082L33.5787 31.8866L33.7481 31.6781L33.9175 31.4696L34.0869 31.2481L34.2302 31.0135L34.3735 30.792L34.5038 30.5444L34.6211 30.2969L34.7384 30.0493L34.8426 29.8017L34.9208 29.5411L34.999 29.2805L35.0642 29.0199L35.1293 28.7463L35.1684 28.4726L35.1945 28.199L35.2205 27.9253V27.6517L35.0772 14.2044L40.2111 13.4226Z" fill="#383838"/>
<path d="M32.6536 28.1729L32.6406 28.3032L32.6275 28.4465L32.6015 28.5768L32.5754 28.7201L32.5493 28.8504L32.5103 28.9807L32.4581 29.111L32.406 29.2413L32.3539 29.3586L32.2887 29.4759L32.2236 29.6062L32.1584 29.7104L32.0803 29.8277L32.0021 29.945L31.9109 30.0492L31.8327 30.1535L31.7415 30.2447L31.6372 30.3489L31.533 30.4271L31.4418 30.5183L31.3245 30.5965L31.2203 30.6747L31.103 30.7529L30.9857 30.818L30.8684 30.8701L30.7512 30.9223L30.6209 30.9744L30.5036 31.0265L30.3733 31.0526L30.243 31.0916L30.1127 31.1047L29.9824 31.1307H29.8521L29.7218 31.1438L29.5915 31.1307L29.4742 31.1177L29.3439 31.1047L29.2266 31.0786L29.1093 31.0526L28.9921 31.0135L28.8878 30.9744L28.7836 30.9223L28.6793 30.8701L28.5751 30.805L28.4709 30.7398L28.3797 30.6747L28.2884 30.5965L28.2103 30.5183L28.119 30.4271L28.0409 30.3359L27.9757 30.2447L27.9106 30.1404L27.8454 30.0362L27.7803 29.932L27.7281 29.8277L27.689 29.7104L27.6369 29.5932L27.6109 29.4629L27.5718 29.3456L27.5457 29.2153L27.5327 29.085L27.5197 28.9416V28.8113V28.668L27.5327 28.5377L27.5457 28.3944L27.5587 28.2641L27.5978 28.1207L27.6239 27.9904L27.663 27.8601L27.7151 27.7298L27.7542 27.6126L27.8193 27.4823L27.8715 27.365L27.9366 27.2477L28.0148 27.1304L28.093 27.0132L28.1712 26.8959L28.2493 26.7916L28.3406 26.6874L28.4318 26.5962L28.536 26.505L28.6272 26.4138L28.7315 26.3226L28.8357 26.2444L28.953 26.1662L29.0572 26.101L29.1745 26.0229L29.2918 25.9707L29.4221 25.9186L29.5393 25.8665L29.6697 25.8274L29.8 25.7883L29.9303 25.7492L30.0606 25.7362L30.1909 25.7101H30.3212H30.4515H30.5687L30.699 25.7232L30.8163 25.7362L30.9336 25.7623L31.0509 25.7883L31.1681 25.8274L31.2854 25.8795L31.3896 25.9186L31.4939 25.9707L31.5981 26.0359L31.6893 26.101L31.7936 26.1792L31.8848 26.2444L31.963 26.3226L32.0412 26.4138L32.1193 26.505L32.1975 26.5962L32.2627 26.7004L32.3278 26.8047L32.38 26.9089L32.4321 27.0262L32.4842 27.1304L32.5233 27.2477L32.5624 27.378L32.5884 27.4953L32.6145 27.6256L32.6406 27.7559V27.8992L32.6536 28.0295V28.1729Z" fill="#383838"/>
<path d="M32.6536 28.1729L32.6406 28.3032L32.6275 28.4465L32.6015 28.5768L32.5754 28.7201L32.5493 28.8504L32.5103 28.9807L32.4581 29.111L32.406 29.2413L32.3539 29.3586L32.2887 29.4759L32.2236 29.6062L32.1584 29.7104L32.0803 29.8277L32.0021 29.945L31.9109 30.0492L31.8327 30.1535L31.7415 30.2447L31.6372 30.3489L31.533 30.4271L31.4418 30.5183L31.3245 30.5965L31.2203 30.6747L31.103 30.7529L30.9857 30.818L30.8684 30.8701L30.7512 30.9223L30.6209 30.9744L30.5036 31.0265L30.3733 31.0526L30.243 31.0916L30.1127 31.1047L29.9824 31.1307H29.8521L29.7218 31.1438L29.5915 31.1307L29.4742 31.1177L29.3439 31.1047L29.2266 31.0786L29.1093 31.0526L28.9921 31.0135L28.8878 30.9744L28.7836 30.9223L28.6793 30.8701L28.5751 30.805L28.4709 30.7398L28.3797 30.6747L28.2884 30.5965L28.2103 30.5183L28.119 30.4271L28.0409 30.3359L27.9757 30.2447L27.9106 30.1404L27.8454 30.0362L27.7803 29.932L27.7281 29.8277L27.689 29.7104L27.6369 29.5932L27.6109 29.4629L27.5718 29.3456L27.5457 29.2153L27.5327 29.085L27.5197 28.9416V28.8113V28.668L27.5327 28.5377L27.5457 28.3944L27.5587 28.2641L27.5978 28.1207L27.6239 27.9904L27.663 27.8601L27.7151 27.7298L27.7542 27.6126L27.8193 27.4823L27.8715 27.365L27.9366 27.2477L28.0148 27.1304L28.093 27.0132L28.1712 26.8959L28.2493 26.7916L28.3406 26.6874L28.4318 26.5962L28.536 26.505L28.6272 26.4138L28.7315 26.3226L28.8357 26.2444L28.953 26.1662L29.0572 26.101L29.1745 26.0229L29.2918 25.9707L29.4221 25.9186L29.5393 25.8665L29.6697 25.8274L29.8 25.7883L29.9303 25.7492L30.0606 25.7362L30.1909 25.7101H30.3212H30.4515H30.5687L30.699 25.7232L30.8163 25.7362L30.9336 25.7623L31.0509 25.7883L31.1681 25.8274L31.2854 25.8795L31.3896 25.9186L31.4939 25.9707L31.5981 26.0359L31.6893 26.101L31.7936 26.1792L31.8848 26.2444L31.963 26.3226L32.0412 26.4138L32.1193 26.505L32.1975 26.5962L32.2627 26.7004L32.3278 26.8047L32.38 26.9089L32.4321 27.0262L32.4842 27.1304L32.5233 27.2477L32.5624 27.378L32.5884 27.4953L32.6145 27.6256L32.6406 27.7559V27.8992L32.6536 28.0295V28.1729Z" fill="white"/>
</svg>
