<svg width="16" height="16" viewBox="0 0 16 16" fill="none" xmlns="http://www.w3.org/2000/svg">
<path fill-rule="evenodd" clip-rule="evenodd" d="M10.0638 10.9517C9.21747 11.6088 8.15442 12 7 12C4.23858 12 2 9.76142 2 7C2 4.23858 4.23858 2 7 2C9.76142 2 12 4.23858 12 7C12 8.15442 11.6088 9.21747 10.9517 10.0638C11.0191 10.0957 11.0823 10.1395 11.1381 10.1953L14.4714 13.5286C14.7318 13.7889 14.7318 14.2111 14.4714 14.4714C14.2111 14.7318 13.7889 14.7318 13.5286 14.4714L10.1953 11.1381C10.1395 11.0823 10.0957 11.0191 10.0638 10.9517ZM10.6667 7C10.6667 9.02504 9.02504 10.6667 7 10.6667C4.97496 10.6667 3.33333 9.02504 3.33333 7C3.33333 4.97496 4.97496 3.33333 7 3.33333C9.02504 3.33333 10.6667 4.97496 10.6667 7Z" fill="#949494"/>
</svg>
