<svg width="12" height="19" viewBox="0 0 12 19" fill="none" xmlns="http://www.w3.org/2000/svg">
<path d="M11.0805 2.18427C11.5964 1.72563 11.6429 0.935537 11.1843 0.419559C10.7256 -0.0964199 9.93554 -0.142896 9.41956 0.315752L0.433737 8.30315C0.410588 8.32316 0.388025 8.34414 0.366103 8.3661C0.123657 8.60811 0.000115223 8.92837 8.05601e-08 9.25001C-6.57896e-05 9.43402 0.0402623 9.61848 0.121831 9.78901C0.181563 9.91417 0.263102 10.0311 0.366103 10.1339C0.388026 10.1559 0.410591 10.1769 0.433741 10.1969L9.41956 18.1843C9.93554 18.6429 10.7256 18.5964 11.1843 18.0805C11.6429 17.5645 11.5964 16.7744 11.0805 16.3158L3.13151 9.25001L11.0805 2.18427Z" fill="#383838"/>
</svg>
